<svg xmlns="http://www.w3.org/2000/svg" fill="none" viewBox="0 0 96 115">
  <path stroke="#00A94F" stroke-linecap="round" stroke-linejoin="round" stroke-width="5" d="M47.99 3.01c-12.42 15.04-32.55 15.04-44.97 0H3v41.91C3 74.47 20.82 101.03 48 112c27.18-10.97 45-37.54 45-67.08V3h-.02C80.57 18.05 60.43 18.05 48 3h-.03v.01Z"/>
  <path stroke="#00A94F" stroke-linecap="round" stroke-linejoin="round" stroke-width="5" d="M48 84.58c14.92 0 27-12.2 27-27.25S62.93 30.08 48 30.08c-14.9 0-27 12.2-27 27.25s12.1 27.25 27 27.25Z"/>
  <path stroke="#00A94F" stroke-linecap="round" stroke-linejoin="round" stroke-width="5" d="m37.88 57.33 6.75 6.81 13.5-13.62"/>
</svg>