<svg width="88" height="81" viewBox="0 0 88 81" fill="none" xmlns="http://www.w3.org/2000/svg">
  <path
    d="M43.9999 66.7C54.8999 66.7 63.7999 57.8 63.7999 46.9C63.7999 36 54.8999 27.1 43.9999 27.1C33.0999 27.1 24.2 36 24.2 46.9C24.2 57.8 33.0999 66.7 43.9999 66.7ZM43.9999 29.8C53.3999 29.8 61.0999 37.5 61.0999 46.9C61.0999 56.3 53.3999 64 43.9999 64C34.5999 64 26.8999 56.3 26.8999 46.9C26.8999 37.5 34.5999 29.8 43.9999 29.8Z"
    fill="currentColor" />
  <path
    d="M40.7999 53.8C41.0999 54.1 41.3999 54.2 41.7999 54.2C41.7999 54.2 41.7999 54.2 41.8999 54.2C42.2999 54.2 42.5999 54 42.8999 53.7L52.4999 41.8C52.9999 41.2 52.8999 40.3 52.2999 39.9C51.6999 39.4 50.7999 39.5 50.3999 40.1L41.7 50.9L37.7 46.9C37.2 46.4 36.2999 46.4 35.7999 46.9C35.2999 47.4 35.2999 48.3 35.7999 48.8L40.7999 53.8Z"
    fill="currentColor" />
  <path
    d="M87.5 14.2V5.50002C87.5 2.60002 85.1 0.200012 82.2 0.200012H5.89996C2.99996 0.200012 0.599976 2.60002 0.599976 5.50002V75.5C0.599976 78.4 2.99996 80.8 5.89996 80.8H82.2C85.1 80.8 87.5 78.4 87.5 75.5V14.6V14.5C87.5 14.5 87.5 14.3 87.5 14.2ZM84.8 75.5C84.8 76.9 83.6 78.1 82.2 78.1H5.89996C4.49996 78.1 3.29996 76.9 3.29996 75.5V15.8H84.8V75.5ZM84.8 13H3.29996V5.50002C3.29996 4.10002 4.49996 2.90001 5.89996 2.90001H82.2C83.6 2.90001 84.8 4.10002 84.8 5.50002V13Z"
    fill="currentColor" />
  <path
    d="M10.8 10.2C12.015 10.2 13 9.21504 13 8.00002C13 6.78499 12.015 5.80002 10.8 5.80002C9.58493 5.80002 8.59998 6.78499 8.59998 8.00002C8.59998 9.21504 9.58493 10.2 10.8 10.2Z"
    fill="currentColor" />
  <path
    d="M18.1999 5.90001C16.9999 5.70001 15.8999 6.50002 15.6999 7.70002C15.4999 8.90002 16.2999 10 17.4999 10.2C18.6999 10.4 19.7999 9.60001 19.9999 8.40001C20.1999 7.20001 19.3999 6.10001 18.1999 5.90001Z"
    fill="currentColor" />
  <path
    d="M24.8 5.90002C23.6 5.90002 22.6 6.90004 22.6 8.10004C22.6 9.30004 23.6 10.3 24.8 10.3C26 10.3 27 9.30004 27 8.10004C27 6.80004 26 5.90002 24.8 5.90002Z"
    fill="currentColor" />
</svg>
  