<svg width="77" height="82" viewBox="0 0 77 82" fill="none" xmlns="http://www.w3.org/2000/svg">
  <path
    d="M38 12C38.8 12 39.5 11.3 39.5 10.5V1.79999C39.5 0.999988 38.8 0.299988 38 0.299988C37.2 0.299988 36.5 0.999988 36.5 1.79999V10.5C36.5 11.3 37.2 12 38 12Z"
    fill="currentColor" />
  <path
    d="M25.8 18.9H50.2C51 18.9 51.7 18.2 51.7 17.4C51.7 16.6 51 15.9 50.2 15.9H48.2V13.9C48.2 9.6 45.8 6 42 4.5C41.2 4.2 40.4 4.59999 40.1 5.29999C39.8 5.99999 40.2 6.90001 40.9 7.20001C43.6 8.30001 45.2 10.7 45.2 13.8V15.8H30.8V13.8C30.8 10.7 32.4 8.20001 35.1 7.20001C35.9 6.90001 36.3 5.99999 35.9 5.29999C35.6 4.49999 34.7 4.1 34 4.5C30.2 6 27.8 9.6 27.8 13.9V15.9H25.8C25 15.9 24.3 16.6 24.3 17.4C24.3 18.2 25 18.9 25.8 18.9Z"
    fill="currentColor" />
  <path
    d="M31 19.4C30.2 19.4 29.5 20.1 29.5 20.9V22.6C29.5 27.5 33.1 31 38 31C42.9 31 46.5 27.4 46.5 22.6V20.9C46.5 20.1 45.8 19.4 45 19.4C44.2 19.4 43.5 20.1 43.5 20.9V22.6C43.5 25.9 41.3 28 38 28C34.7 28 32.5 25.8 32.5 22.6V20.9C32.5 20.1 31.9 19.4 31 19.4Z"
    fill="currentColor" />
  <path
    d="M76 50.4C76 47.3 73.8 45.4 70.2 45.4C66.6 45.4 64.3 47.3 64.3 50.4V52.4H60.6C61 51.3 60.8 50 60.3 48.2C59.6 46.2 55.5 36.9 55 35.9C53.8 33.2 50.6 31.6 46.7 31.6H43.2C42.4 31.6 41.7 32.3 41.7 33.1C41.7 33.9 42.4 34.6 43.2 34.6H46.7C49.4 34.6 51.6 35.6 52.3 37.2C52.9 38.4 56.9 47.4 57.5 49.2C58 50.7 58.2 51.4 57.2 52.4C56.5 52.4 55.8 52.9 55.7 53.6C55.4 53.8 55 54.1 54.6 54.3C52 56 49.1 57.4 48.5 57.5C46.9 57.5 45.9 56.7 45.2 55.7C45.4 55.5 45.7 55.2 45.9 55C46 54.9 46.1 54.8 46.2 54.7C47.7 53.2 49.8 51.2 51.3 49.7L52.1 48.9L48.1 41C47.7 40.3 46.8 40 46.1 40.3C45.4 40.7 45.1 41.6 45.4 42.3L48.4 48.3C47.4 49.3 45.7 51 44.4 52.3H31.8C30.4 50.9 28.8 49.3 27.8 48.3L30.8 42.3C31.2 41.6 30.9 40.7 30.1 40.3C29.4 39.9 28.5 40.2 28.1 41L24.1 48.9L24.9 49.7C26.4 51.2 28.5 53.2 30 54.7C30.1 54.8 30.2 54.9 30.3 55C30.6 55.3 30.8 55.5 31 55.7C30.3 56.7 29.3 57.5 27.8 57.5C27.1 57.4 24.2 56 21.6 54.3C21.2 54 20.8 53.8 20.5 53.6C20.4 52.9 19.8 52.4 19 52.4C18 51.4 18.3 50.7 18.7 49.2C19.3 47.4 23.3 38.4 23.9 37.2C24.6 35.6 26.8 34.6 29.5 34.6H33C33.8 34.6 34.5 33.9 34.5 33.1C34.5 32.3 33.8 31.6 33 31.6H29.5C25.6 31.6 22.4 33.3 21.2 35.9C20.7 36.9 16.6 46.2 15.9 48.2C15.3 49.9 15.2 51.2 15.6 52.4H11.9V50.4C11.9 47.4 9.6 45.4 6 45.4C2.4 45.4 0.200012 47.3 0.200012 50.4V74.7C0.200012 76.3 0.800012 81.4 8.70001 81.4H67.9C75.5 81.4 76.4 76.7 76.4 74.7V50.4H76ZM3 50.4C3 49.9 2.99999 48.4 5.79999 48.4C7.09999 48.4 8.70001 48.7 8.70001 50.4V69.5C7.90001 69.2 7 69.1 6 69.1C5 69.1 3.9 69.4 3 69.9V50.4ZM67.6 78.4H8.39999C4.79999 78.4 2.89999 77.2 2.89999 74.7C2.89999 72.8 4.69999 72.1 5.89999 72.1C7.59999 72.1 8.60001 72.6 8.60001 73.1C8.60001 73.6 8.50001 73.9 8.20001 74C7.50001 74.5 7.29999 75.4 7.79999 76.1C8.29999 76.8 9.19999 77 9.89999 76.5C10.5 76.1 11.6 75 11.6 73V55.4H17.6C18.2 55.9 18.9 56.4 19.7 56.9C21.2 57.9 25.7 60.6 27.5 60.6C31.5 60.6 33.3 57.6 34 56.4L34.6 55.5L34.5 55.4H41.4L41.3 55.5L41.9 56.4C42.6 57.5 44.4 60.6 48.4 60.6C50.1 60.6 54.7 57.9 56.2 56.9C57 56.4 57.7 55.9 58.3 55.4H64.3V73C64.3 75 65.3 76.1 66 76.5C66.7 77 67.6 76.8 68.1 76.1C68.6 75.4 68.4 74.5 67.7 74C67.4 73.8 67.3 73.5 67.3 73C67.3 72.6 68.3 72.1 70 72.1C71.2 72.1 73 72.8 73 74.7C73 75.7 73 78.4 67.6 78.4ZM73 69.8C72.1 69.3 71 69.1 70 69.1C69 69.1 68.1 69.3 67.3 69.5V50.4C67.3 48.8 68.9 48.4 70.2 48.4C73 48.4 73 49.8 73 50.4V69.8Z"
    fill="currentColor" />
</svg>
  