<svg xmlns="http://www.w3.org/2000/svg" fill="none" viewBox="0 0 111 115">
  <path stroke="#00A94F" stroke-linecap="round" stroke-linejoin="round" stroke-width="5" d="M101 112c3.87 0 7-3.36 7-7.5 0-4.14-3.13-7.5-7-7.5s-7 3.36-7 7.5c0 4.14 3.13 7.5 7 7.5Zm7-37.67L72.4 110m7.13-23.18a7.13 7.13 0 1 0-.02-14.26 7.13 7.13 0 0 0 .02 14.26ZM52.83 13.7H13.68v19.6h39.15V13.7Z"/>
  <path stroke="#00A94F" stroke-linecap="round" stroke-linejoin="round" stroke-width="5" d="M60.62 3H5.89A2.9 2.9 0 0 0 3 5.9v76.23c0 1.6 1.3 2.9 2.9 2.9h54.72c1.6 0 2.9-1.3 2.9-2.9V5.9c0-1.6-1.3-2.9-2.9-2.9ZM13.68 45.8h7.12m8.9 0h7.11m8.91 0h7.11M13.68 58.28h7.12m8.9 0h7.11m8.91 0h7.11M13.68 70.77h7.12m8.9 0h7.11m8.91 0h7.11m-7.11-12.49v12.49"/>
</svg>