<svg xmlns="http://www.w3.org/2000/svg" fill="none" viewBox="0 0 133 94">
  <path stroke="currentcolor" stroke-linecap="round" stroke-linejoin="round" stroke-width="5" d="M96.87 80v8.25A2.75 2.75 0 0 0 99.63 91h16.57a2.75 2.75 0 0 0 2.75-2.75V80m-82.82 0v8.25A2.75 2.75 0 0 1 33.37 91H16.8a2.75 2.75 0 0 1-2.75-2.75V80m33.12-8.24V63.5h38.66v8.25M94.1 52.5h16.57l6.07-4.83m-5.34-18.65 4.8-9.52h11.04a2.75 2.75 0 0 1 2.76 2.74v5.5l-13.8 5.5m-94.6-4.22-4.8-9.52H5.76A2.75 2.75 0 0 0 3 22.24v5.5l13.8 5.5M36.13 52.5H19.56l-4.63-4.6"/>
  <path stroke="currentcolor" stroke-linecap="round" stroke-linejoin="round" stroke-width="5" d="m111.44 26.52-8.76-17.44A11.04 11.04 0 0 0 92.81 3H40.2c-4.18 0-8 2.36-9.88 6.08l-8.75 17.44a2.75 2.75 0 0 0 2.47 3.99h84.94a2.75 2.75 0 0 0 2.46-3.99h0Z"/>
  <path stroke="currentcolor" stroke-linecap="round" stroke-linejoin="round" stroke-width="5" d="m22.33 25-10.6 12.7a13.72 13.72 0 0 0-3.2 8.8v28.03c0 3.03 2.47 5.5 5.52 5.5h104.91a5.51 5.51 0 0 0 5.53-5.5V46.49c0-3.22-1.14-6.33-3.2-8.8L110.68 25"/>
</svg>