<svg xmlns="http://www.w3.org/2000/svg" fill="none" viewBox="0 0 126 107">
  <path fill="currentcolor" stroke="currentcolor" d="M61.5 89.93a6.84 6.84 0 0 0 0 13.7 6.84 6.84 0 0 0 0-13.7Zm0-2.88a9.72 9.72 0 0 1 0 19.45 9.72 9.72 0 0 1 0-19.45Zm45.15 9.73a6.84 6.84 0 0 0-6.83-6.85 6.84 6.84 0 0 0 0 13.7 6.84 6.84 0 0 0 6.83-6.85Zm2.86-.01a9.72 9.72 0 0 1-9.7 9.72 9.72 9.72 0 0 1 0-19.45c5.35 0 9.7 4.36 9.7 9.73Zm12.62-65.8.14-.61h-9.13a1.43 1.43 0 0 1 0-2.87h10.93c.43 0 .84.2 1.12.54.27.35.37.8.27 1.22l-9.84 42.3a1.43 1.43 0 0 1-1.4 1.11H45.44l.23.67.88 2.53a7.47 7.47 0 0 0 7.05 5.03h61.16a1.43 1.43 0 0 1 0 2.87H53.59c-4.38 0-8.3-2.8-9.75-6.96l-18.1-52.3a5.7 5.7 0 0 0-5.37-3.84H1.93a1.43 1.43 0 0 1 0-2.87h18.44a8.57 8.57 0 0 1 8.09 5.77l1.24 3.59.11.34h13.86a1.43 1.43 0 0 1 0 2.87H30.8l.23.66 13.29 38.42.12.34h68.65l.09-.39 8.94-38.42Z"/>
  <path stroke="currentcolor" stroke-linecap="round" stroke-linejoin="round" stroke-width="5" d="M102.73 25h-4.31a20.43 20.43 0 0 0-2.98-7.18l3.04-3.06c.65-.64.65-1.68 0-2.32l-3.55-3.56a1.64 1.64 0 0 0-2.31 0l-3.06 3.06a20.4 20.4 0 0 0-7.18-2.98V4.64c0-.91-.73-1.64-1.63-1.64h-5.03c-.9 0-1.63.74-1.63 1.64v4.32c-2.6.53-5.04 1.56-7.17 2.99l-3.05-3.06a1.64 1.64 0 0 0-2.32 0L58 12.45a1.65 1.65 0 0 0 0 2.33l3.05 3.06a20.51 20.51 0 0 0-2.97 7.2h-4.3c-.91 0-1.64.73-1.64 1.64v5.04c0 .9.73 1.64 1.63 1.64h4.31a20.43 20.43 0 0 0 2.98 7.19l-3.04 3.05a1.65 1.65 0 0 0 0 2.33l3.55 3.56c.64.64 1.67.64 2.31 0l3.06-3.06a20.4 20.4 0 0 0 7.18 2.98v4.32c0 .9.73 1.63 1.63 1.63h5.03c.9 0 1.63-.73 1.63-1.63V49.4c2.6-.54 5.04-1.57 7.17-3l3.05 3.06c.64.65 1.68.65 2.32 0l3.55-3.56c.64-.64.64-1.68 0-2.32l-3.05-3.06a20.5 20.5 0 0 0 2.97-7.2h4.3c.91 0 1.64-.74 1.64-1.64v-5.04c0-.91-.73-1.64-1.63-1.64Z"/>
</svg>