<svg width="62" height="82" viewBox="0 0 62 82" fill="none" xmlns="http://www.w3.org/2000/svg">
  <path
    d="M49.6 7.59998C48.8 7.59998 48.1 8.29998 48.1 9.09998C48.1 9.89998 48.8 10.6 49.6 10.6H58.3V78.9H3.59998V10.6H12.3C13.1 10.6 13.8 9.89998 13.8 9.09998C13.8 8.29998 13.1 7.59998 12.3 7.59998H0.599976V81.9H61.3V7.59998H49.6Z"
    fill="currentColor" />
  <path
    d="M47.8999 41.6H29.2C28.4 41.6 27.7 42.3 27.7 43.1C27.7 43.9 28.4 44.6 29.2 44.6H47.8999C48.6999 44.6 49.3999 43.9 49.3999 43.1C49.3999 42.3 48.6999 41.6 47.8999 41.6Z"
    fill="currentColor" />
  <path
    d="M29.2 51.4H41.1C41.9 51.4 42.6 50.7 42.6 49.9C42.6 49.1 41.9 48.4 41.1 48.4H29.2C28.4 48.4 27.7 49.1 27.7 49.9C27.7 50.7 28.4 51.4 29.2 51.4Z"
    fill="currentColor" />
  <path
    d="M16 52.3L22.1 42.2C22.5 41.5 22.3 40.6 21.6 40.1C20.9 39.6 20 39.9 19.5 40.6L15.4 47.4L13.4 45.4C12.8 44.8 11.9 44.8 11.3 45.4C10.7 46 10.7 46.9 11.3 47.5L16 52.3Z"
    fill="currentColor" />
  <path
    d="M49.3999 60C49.3999 59.2 48.6999 58.5 47.8999 58.5H29.2C28.4 58.5 27.7 59.2 27.7 60C27.7 60.8 28.4 61.5 29.2 61.5H47.8999C48.6999 61.5 49.3999 60.9 49.3999 60Z"
    fill="currentColor" />
  <path
    d="M29.2 65.3C28.4 65.3 27.7 66 27.7 66.8C27.7 67.6 28.4 68.3 29.2 68.3H41.1C41.9 68.3 42.6 67.6 42.6 66.8C42.6 66 41.9 65.3 41.1 65.3H29.2Z"
    fill="currentColor" />
  <path
    d="M11.1999 64.5L15.9999 69.2L22.0999 59.1C22.4999 58.4 22.2999 57.5 21.5999 57C20.8999 56.6 19.9999 56.8 19.4999 57.5L15.3999 64.3L13.3999 62.3C12.7999 61.7 11.8999 61.7 11.2999 62.3C10.5999 63 10.5999 63.9 11.1999 64.5Z"
    fill="currentColor" />
  <path
    d="M47.8999 24.6H29.2C28.4 24.6 27.7 25.3 27.7 26.1C27.7 26.9 28.4 27.6 29.2 27.6H47.8999C48.6999 27.6 49.3999 26.9 49.3999 26.1C49.3999 25.3 48.6999 24.6 47.8999 24.6Z"
    fill="currentColor" />
  <path
    d="M29.2 34.4H41.1C41.9 34.4 42.6 33.7 42.6 32.9C42.6 32.1 41.9 31.4 41.1 31.4H29.2C28.4 31.4 27.7 32.1 27.7 32.9C27.7 33.7 28.4 34.4 29.2 34.4Z"
    fill="currentColor" />
  <path
    d="M11.2 30.1C10.6 30.7 10.6 31.6 11.2 32.2L16 37L22.1 26.9C22.5 26.2 22.3 25.3 21.6 24.8C20.9 24.4 20 24.6 19.5 25.3L15.4 32.1L13.4 30.1C12.7 29.6 11.8 29.6 11.2 30.1Z"
    fill="currentColor" />
  <path
    d="M46 10.8C46 8.09999 43.8 5.89999 41.1 5.89999H37.4C36.7 2.99999 34.1 0.799988 31 0.799988C27.9 0.799988 25.3 2.99999 24.6 5.89999H20.8C18.1 5.89999 15.9 8.09999 15.9 10.8V17.4H46V10.8ZM43 14.4H18.8V10.8C18.8 9.79999 19.7 8.89999 20.7 8.89999H27.3V7.39999C27.3 5.39999 28.9 3.79999 30.9 3.79999C32.9 3.79999 34.5 5.39999 34.5 7.39999H36V8.89999H41.1C42.1 8.89999 43 9.79999 43 10.8V14.4Z"
    fill="currentColor" />
</svg>
  