<svg width="82" height="61" viewBox="0 0 82 61" fill="none" xmlns="http://www.w3.org/2000/svg">
  <path
    d="M79.8 47.5H76.2V4.99997C76.2 2.29997 74 0.0999756 71.3 0.0999756H10.4C7.70002 0.0999756 5.5 2.29997 5.5 4.99997V47.5H1.90002C1.10002 47.5 0.400024 48.2 0.400024 49V52.4C0.400024 57 4.10001 60.7 8.70001 60.7H73C77.6 60.7 81.3 57 81.3 52.4V49C81.3 48.2 80.6 47.5 79.8 47.5ZM8.5 4.99997C8.5 3.99997 9.30002 3.09998 10.4 3.09998H71.3C72.3 3.09998 73.2 3.89997 73.2 4.99997V47.5H49.3C48.9 47.5 48.5 47.7 48.2 47.9L45.3 50.8H37.9L33.2 47.7C33 47.5 32.7 47.4 32.4 47.4H8.5V4.99997ZM78.3 52.4C78.3 55.3 75.9 57.7 73 57.7H8.70001C5.80001 57.7 3.40002 55.3 3.40002 52.4V50.5H31.9L36.6 53.6C36.8 53.8 37.1 53.9 37.4 53.9H45.9C46.3 53.9 46.7 53.7 47 53.5L49.9 50.6H78.3V52.4Z"
    fill="currentColor" />
  <path
    d="M29.6 8.99999L23.9 14.7L21.6 12.4C21 11.8 20.1 11.8 19.5 12.4C18.9 13 18.9 13.9 19.5 14.5L22.9 17.9C23.2 18.2 23.6 18.3 24 18.3C24.4 18.3 24.8 18.2 25.1 17.9L31.9 11.1C32.5 10.5 32.5 9.59999 31.9 8.99999C31.2 8.39999 30.2 8.39999 29.6 8.99999Z"
    fill="currentColor" />
  <path
    d="M29.6 20.9L23.9 26.6L21.6 24.3C21 23.7 20.1 23.7 19.5 24.3C18.9 24.9 18.9 25.8 19.5 26.4L22.9 29.8C23.2 30.1 23.6 30.2 24 30.2C24.4 30.2 24.8 30.1 25.1 29.8L31.9 23C32.5 22.4 32.5 21.5 31.9 20.9C31.2 20.3 30.2 20.3 29.6 20.9Z"
    fill="currentColor" />
  <path
    d="M29.6 32.7L23.9 38.4L21.6 36.1C21 35.5 20.1 35.5 19.5 36.1C18.9 36.7 18.9 37.6 19.5 38.2L22.9 41.6C23.2 41.9 23.6 42 24 42C24.4 42 24.8 41.9 25.1 41.6L31.9 34.8C32.5 34.2 32.5 33.3 31.9 32.7C31.2 32.1 30.2 32.1 29.6 32.7Z"
    fill="currentColor" />
  <path
    d="M35.8 15H59.5C60.3 15 61 14.3 61 13.5C61 12.7 60.3 12 59.5 12H35.8C35 12 34.3 12.7 34.3 13.5C34.3 14.3 34.9 15 35.8 15Z"
    fill="currentColor" />
  <path
    d="M35.8 26.8H59.5C60.3 26.8 61 26.1 61 25.3C61 24.5 60.3 23.8 59.5 23.8H35.8C35 23.8 34.3 24.5 34.3 25.3C34.3 26.1 34.9 26.8 35.8 26.8Z"
    fill="currentColor" />
  <path
    d="M35.8 38.7H59.5C60.3 38.7 61 38 61 37.2C61 36.4 60.3 35.7 59.5 35.7H35.8C35 35.7 34.3 36.4 34.3 37.2C34.3 38 34.9 38.7 35.8 38.7Z"
    fill="currentColor" />
</svg>
  