<svg width="95" height="61" viewBox="0 0 95 61" fill="none" xmlns="http://www.w3.org/2000/svg">
  <path
    d="M50.8 41.8C49.8 41.6 48.9 42.2 48.7 43.1C48.5 44.1 49.1 45 50 45.3C51 45.5 51.9 44.9 52.1 44C52.3 43 51.7 42.1 50.8 41.8Z"
    fill="currentColor" />
  <path
    d="M90.6 24.3H85V5.3C85 2.4 82.7 0 79.8 0H20.9C18 0 15.7 2.4 15.7 5.3V17.3H4.40002C2.20002 17.3 0.5 19.1 0.5 21.3V57C0.5 59.2 2.30002 61 4.40002 61H29.2C31.4 61 33.1 59.2 33.1 57V50.9H42.2L40.8 58.8H38.8C38.2 58.8 37.7 59.3 37.7 59.9C37.7 60.5 38.2 61 38.8 61H41.7H59C59 61 59 61 59.1 61H62C62.6 61 63.1 60.5 63.1 59.9C63.1 59.3 62.6 58.8 62 58.8H59.9L58.5 50.9H73.3V57C73.3 59.2 75.1 61 77.2 61H90.7C92.9 61 94.6 59.2 94.6 57V28.2C94.5 26.1 92.8 24.3 90.6 24.3ZM43 58.8L44.4 51H56.2L57.6 58.8H43ZM92.4 28.3V52.7H75.3V50.1C75.3 50 75.4 49.8 75.4 49.7C75.4 49.6 75.4 49.4 75.3 49.3V28.2C75.3 27.2 76.1 26.4 77.1 26.4H83.5C83.6 26.4 83.7 26.5 83.8 26.5C83.9 26.5 84.1 26.5 84.2 26.4H90.6C91.6 26.5 92.4 27.3 92.4 28.3ZM18 5.2C18 3.6 19.3 2.3 20.9 2.3H79.8C81.4 2.3 82.7 3.6 82.7 5.2V24.2H77.1C74.9 24.2 73.2 26 73.2 28.2V36.7H33.3V21.2C33.3 19 31.5 17.2 29.4 17.2H18V5.2ZM4.5 19.4H16.5C16.6 19.4 16.8 19.5 16.9 19.5C17 19.5 17.2 19.5 17.3 19.4H29.3C30.3 19.4 31.1 20.2 31.1 21.2V37.8C31.1 37.8 31.1 37.8 31.1 37.9C31.1 38 31.1 37.9 31.1 38V49.4C31 49.5 31 49.7 31 49.8C31 50 31 50.1 31.1 50.2V51.5H2.70001V21.2C2.70001 20.2 3.5 19.4 4.5 19.4ZM29.3 58.8H4.5C3.5 58.8 2.70001 58 2.70001 57V53.6H31.1V57C31.1 58 30.3 58.8 29.3 58.8ZM33.2 48.6V38.9H73.1V48.6H33.2ZM90.6 58.8H77.1C76.1 58.8 75.3 58 75.3 57V54.8H92.4V57C92.4 58 91.6 58.8 90.6 58.8Z"
    fill="currentColor" />
  <path
    d="M83.8 55.7C83.2 55.7 82.7 56.2 82.7 56.8C82.7 57.4 83.2 57.9 83.8 57.9C84.4 57.9 84.9 57.4 84.9 56.8C84.9 56.2 84.4 55.7 83.8 55.7Z"
    fill="currentColor" />
  <path
    d="M16.9 54.9C16.2 54.9 15.7 55.5 15.7 56.1C15.7 56.8 16.2 57.3 16.9 57.3C17.6 57.3 18.1 56.7 18.1 56.1C18.1 55.4 17.5 54.9 16.9 54.9Z"
    fill="currentColor" />
  <path
    d="M81.6 28.3C81 28.3 80.5 28.8 80.5 29.4C80.5 30 81 30.5 81.6 30.5H85.8C86.4 30.5 86.9 30 86.9 29.4C86.9 28.8 86.4 28.3 85.8 28.3H81.6Z"
    fill="currentColor" />
</svg>
  