<svg width="18" height="24" viewBox="0 0 18 24" fill="none" xmlns="http://www.w3.org/2000/svg">
  <path
    d="M17.2969 4.59375C17.7188 5.01562 18 5.625 18 6.1875V21.75C18 23.0156 16.9688 24 15.75 24H2.25C0.984375 24 0 23.0156 0 21.75V2.25C0 1.03125 0.984375 0 2.25 0H11.8125C12.375 0 12.9844 0.234375 13.4062 0.65625L17.2969 4.59375ZM15.5625 6L12 2.4375V6H15.5625ZM2.25 21.75H15.75V8.25H10.875C10.2188 8.25 9.75 7.78125 9.75 7.125V2.25H2.25V21.75ZM12.5625 12H13.2656C13.6406 12 13.9219 12.375 13.8281 12.7031C13.6406 13.5 13.1719 15.2344 12.2344 19.0781C12.1406 19.3594 11.9062 19.5 11.6719 19.5H10.5C10.2656 19.5 10.0312 19.3125 9.98438 19.0781C9.70312 18.0938 9.14062 15.75 9.14062 15.75L9 14.9062C8.95312 15.1875 8.90625 15.4688 8.85938 15.75L8.01562 19.0781C7.96875 19.3594 7.73438 19.5 7.45312 19.5H6.28125C6.04688 19.5 5.8125 19.3594 5.71875 19.0781C5.4375 17.8594 4.54688 14.25 4.17188 12.7031C4.07812 12.375 4.35938 12 4.73438 12H5.53125C5.8125 12 6 12.1875 6.09375 12.4688C6.32812 13.6875 6.9375 16.875 6.98438 17.1094C6.98438 17.2031 6.98438 17.25 6.98438 17.2969C7.03125 16.9688 7.03125 17.1094 8.15625 12.4688C8.20312 12.1875 8.4375 12 8.71875 12H9.32812C9.60938 12 9.79688 12.1875 9.89062 12.4688C11.0156 17.1094 10.9219 16.875 10.9688 17.1094C11.0156 17.2031 11.0156 17.25 11.0156 17.2969C11.0625 16.9219 11.0156 17.0625 12 12.4688C12.0469 12.1875 12.2812 12 12.5625 12Z"
    fill="currentColor" />
</svg>