<svg xmlns="http://www.w3.org/2000/svg" fill="none" viewBox="0 0 115 114">
  <path stroke="currentcolor" stroke-linecap="round" stroke-linejoin="round" stroke-width="5" d="M108.58 48.42h-9a42.15 42.15 0 0 0-6.21-14.84l6.36-6.3a3.36 3.36 0 0 0 0-4.8l-7.41-7.34a3.43 3.43 0 0 0-4.83 0l-6.37 6.3a42.9 42.9 0 0 0-14.98-6.15V6.4A3.4 3.4 0 0 0 62.73 3H52.25a3.4 3.4 0 0 0-3.42 3.38v8.91a42.87 42.87 0 0 0-14.97 6.17l-6.36-6.31a3.43 3.43 0 0 0-4.84 0l-7.4 7.34a3.36 3.36 0 0 0 0 4.8l6.36 6.3a42.08 42.08 0 0 0-6.22 14.84H6.42A3.4 3.4 0 0 0 3 51.82V62.2a3.4 3.4 0 0 0 3.42 3.38h8.98a42.06 42.06 0 0 0 6.23 14.84l-6.37 6.3a3.36 3.36 0 0 0 0 4.8l7.41 7.34a3.43 3.43 0 0 0 4.83 0l6.37-6.3a42.89 42.89 0 0 0 14.98 6.15v8.9a3.4 3.4 0 0 0 3.41 3.39h10.48a3.4 3.4 0 0 0 3.42-3.38V98.7a42.96 42.96 0 0 0 14.98-6.17l6.36 6.31a3.43 3.43 0 0 0 4.84 0l7.4-7.34a3.36 3.36 0 0 0 0-4.8l-6.36-6.3a42.08 42.08 0 0 0 6.22-14.84h8.98a3.4 3.4 0 0 0 3.42-3.39V51.8a3.4 3.4 0 0 0-3.42-3.38h0Z"/>
  <path stroke="currentcolor" stroke-linecap="round" stroke-linejoin="round" stroke-width="5" d="M35.7 47.73c1.73 10.55 12.73 18.4 12.73 18.4S61.6 76.68 56.76 89.8"/>
  <path stroke="currentcolor" stroke-linecap="round" stroke-linejoin="round" stroke-width="5" d="M45.73 63.9S31.67 64.98 29.4 56c-2.28-8.99 1.32-22.14.6-25.2 0 0 2.58 4.93 13.46 8.23 10.87 3.3 8.49 17.13 6.04 20.6m7.15 17.87a46.56 46.56 0 0 1 6.69-11.15s.53-.82 1.5-2c2.07-2.5 6.13-6.6 11.25-7.7"/>
  <path stroke="currentcolor" stroke-linecap="round" stroke-linejoin="round" stroke-width="5" d="M64.84 64.35s-1.32-9.88 5.05-11.84c6.38-1.95 15.97.09 18.14-.54 0 0-3.44 2.01-5.4 9.82-1.97 7.8-12 6.65-14.57 5.05"/>
</svg>