<svg width="101" height="80" viewBox="0 0 101 80" fill="none" xmlns="http://www.w3.org/2000/svg">
  <path
    d="M90.9 44.8L80.6 43.1L74.2 36C70.9 32.4 66.2 30.3 61.3 30.3H32.6C23.3 30.3 17.6 36.9 14 44.7C7.6 42 3.20001 35.8 3.20001 28.6C3.20001 18.9 11.3 11 21.2 11H44.3C45 15.4 48.9 18.9 53.6 19C53.7 19 53.8 19 53.8 19H65.2C66 19 66.7 18.3 66.7 17.5V15.8H73.4C74.2 15.8 74.9 15.1 74.9 14.3C74.9 13.5 74.2 12.8 73.4 12.8H66.7V6.19998H66.8H73.3C74.1 6.19998 74.8 5.49998 74.8 4.69998C74.8 3.89998 74.1 3.19998 73.3 3.19998H66.8H66.7V1.59998C66.7 0.799976 66 0.0999756 65.2 0.0999756H53.8C49 0.0999756 45 3.49998 44.3 7.99998H21.2C9.60001 7.99998 0.200012 17.2 0.200012 28.6C0.200012 37 5.40002 44.3 12.9 47.5C10.9 52.7 9.79998 58.1 9.09998 62.5C8.79998 64.7 9.40002 67 10.9 68.7C12.4 70.5 14.7 71.5 17 71.5H21.6C22.7 76.1 26.8 79.5 31.8 79.5C36.8 79.5 40.9 76.1 42 71.5H58.7C59.5 71.5 60.2 70.8 60.2 70C60.2 69.2 59.5 68.5 58.7 68.5H42.2C41.8 63.2 37.3 58.9 31.8 58.9C26.3 58.9 21.8 63.1 21.4 68.4H17C15.5 68.4 14.1 67.8 13.1 66.6C12.2 65.5 11.8 64.2 12 62.8C12.6 58.6 13.7 53.3 15.6 48.3C17.4 48.8 19.2 49.1 21.1 49.1H68.3C69.1 49.1 69.8 48.4 69.8 47.6C69.8 46.8 69.1 46.1 68.3 46.1H47V38C47 37.2 46.3 36.5 45.5 36.5C44.7 36.5 44 37.2 44 38V46.1H21.1C19.6 46.1 18.1 45.9 16.7 45.6C19.9 38.8 24.8 33.2 32.4 33.2H61.1C65.2 33.2 69.1 34.9 71.8 37.9L78.5 45.4C78.7 45.7 79 45.8 79.4 45.9L90.2 47.7C94.5 48.4 97.7 52 97.7 56.3V65.2C97.7 67 96.2 68.5 94.3 68.5H86.1C86 68.5 86 68.5 85.9 68.5C85.5 63.2 81 58.9 75.5 58.9C69.7 58.9 65 63.5 65 69.2C65 74.9 69.7 79.5 75.5 79.5C80.5 79.5 84.6 76.1 85.7 71.5C85.8 71.5 86 71.6 86.1 71.6H94.3C97.8 71.6 100.7 68.8 100.7 65.3V56.4C100.9 50.6 96.7 45.8 90.9 44.8ZM53.8 3.09998H63.7V16H54C53.9 16 53.9 16 53.8 16C50.1 16 47.1 13.1 47.1 9.49998C47.1 5.89998 50.1 3.09998 53.8 3.09998ZM31.8 62C35.9 62 39.3 65.3 39.3 69.3C39.3 73.3 36 76.6 31.8 76.6C27.7 76.6 24.3 73.3 24.3 69.3C24.3 65.2 27.7 62 31.8 62ZM75.8 76.5C71.7 76.5 68.3 73.2 68.3 69.2C68.3 65.2 71.6 61.9 75.8 61.9C79.9 61.9 83.3 65.2 83.3 69.2C83.2 73.2 79.9 76.5 75.8 76.5Z"
    fill="currentColor" />
</svg>
  