<svg width="79" height="55" viewBox="0 0 79 55" fill="none" xmlns="http://www.w3.org/2000/svg">
  <path
    d="M72.1 0.0999756H6.70001C3.10001 0.0999756 0.200012 2.99998 0.200012 6.59998V48.2C0.200012 51.8 3.10001 54.7 6.70001 54.7H72.1C75.7 54.7 78.7 51.8 78.7 48.2V6.59998C78.7 2.99998 75.7 0.0999756 72.1 0.0999756ZM5.5 3.29997C5.9 3.19997 6.20001 3.09998 6.70001 3.09998H72.1C72.6 3.09998 73.2 3.19997 73.6 3.49997C73.7 3.49997 73.8 3.59998 73.8 3.59998L45.6 32.6C43.9 34.3 41.7 35.3 39.3 35.3C36.9 35.3 34.7 34.3 33 32.6L5 3.59998C5.2 3.39998 5.4 3.29997 5.5 3.29997ZM3.09998 48.2V6.59998C3.09998 6.29998 3.10001 6.09996 3.20001 5.89996L24.4 27.8L3.20001 49C3.20001 48.7 3.09998 48.4 3.09998 48.2ZM72.1 51.7H6.70001C6.10001 51.7 5.59998 51.6 5.09998 51.3L26.5 29.9L31 34.5C33.2 36.8 36.3 38.1 39.5 38.1C42.7 38.1 45.7 36.8 47.9 34.5L52.5 29.8L73.9 51.2C73.3 51.5 72.7 51.7 72.1 51.7ZM75.6 48.2C75.6 48.4 75.6 48.6 75.5 48.7L54.5 27.7L75.5 6.09998C75.5 6.29998 75.5 6.39998 75.5 6.59998L75.6 48.2Z"
    fill="currentColor" />
</svg>
  