<svg width="79" height="80" viewBox="0 0 79 80" fill="none" xmlns="http://www.w3.org/2000/svg">
  <path d="M46.5 29.1H56.8V18.8H46.5V29.1ZM49.5 21.8H53.8V26.1H49.5V21.8Z" fill="currentColor" />
  <path
    d="M13.8 55.8C13.8 56.6 14.5 57.3 15.3 57.3H77C77.8 57.3 78.5 56.6 78.5 55.8C78.5 55 77.8 54.3 77 54.3H73.7V33.7C73.7 32.9 73 32.2 72.2 32.2C71.4 32.2 70.7 32.9 70.7 33.7V54.3H62.8V46C62.8 45.2 62.1 44.5 61.3 44.5C60.5 44.5 59.8 45.2 59.8 46V52.2L53.7 46L62.3 37.2C62.4 37.1 62.5 36.9 62.6 36.7C62.7 36.5 62.7 36.4 62.7 36.2C62.7 36 62.7 35.8 62.6 35.7C62.5 35.5 62.4 35.3 62.3 35.2C62.2 35.1 62 35 61.8 34.9C61.6 34.8 61.5 34.8 61.3 34.8H40.4V54.4H32.5V33.8C32.5 33 31.8 32.3 31 32.3C30.2 32.3 29.5 33 29.5 33.8V54.4H21.6V14.5H29.8C30.6 14.5 31.3 13.8 31.3 13C31.3 12.2 30.6 11.5 29.8 11.5H21.7C22.1 7 25.9 3.5 30.4 3.5C35.2 3.5 39.2 7.49999 39.2 12.4V14.7L31.2 19.3L24.9 29.4C24.5 30.1 24.7 31 25.4 31.5C26.1 31.9 27 31.7 27.5 31L33.3 21.5L51.6 11.1L69.9 21.5L75.7 31C76 31.5 76.5 31.7 77 31.7C77.3 31.7 77.5 31.6 77.8 31.5C78.5 31.1 78.7 30.1 78.3 29.4L72 19.3L51.6 7.60001L42.2 13V12.4C42.2 5.79999 36.9 0.5 30.4 0.5C23.9 0.5 18.6 5.79999 18.6 12.4V54.4H15.3C14.5 54.3 13.8 55 13.8 55.8ZM49.5 46L43.4 52.2V39.9L49.5 46ZM57.7 54.3H45.5L51.6 48.1L57.7 54.3ZM45.5 37.7H57.7L51.6 43.9L45.5 37.7Z"
    fill="currentColor" />
  <path
    d="M77 76.4H39.5C19.6 76.4 3.49998 60 3.49998 39.9C3.49998 30.2 7.19998 21.1 14 14.2C14.6 13.6 14.6 12.7 14 12.1C13.4 11.5 12.5 11.5 11.9 12.1C4.59998 19.6 0.599976 29.4 0.599976 39.9C0.599976 61.7 18.1 79.4 39.6 79.4H77C77.8 79.4 78.5 78.7 78.5 77.9C78.5 77.1 77.8 76.4 77 76.4Z"
    fill="currentColor" />
  <path
    d="M33.3 62.5L29.7 69.9C29.3 70.6 29.6 71.5 30.4 71.9C30.6 72 30.8 72.1 31.1 72.1C31.7 72.1 32.2 71.8 32.4 71.3L36 63.9C36.4 63.2 36.1 62.3 35.3 61.9C34.6 61.5 33.7 61.8 33.3 62.5Z"
    fill="currentColor" />
  <path
    d="M50.1 63.2V70.6C50.1 71.4 50.8 72.1 51.6 72.1C52.4 72.1 53.1 71.4 53.1 70.6V63.2C53.1 62.4 52.4 61.7 51.6 61.7C50.8 61.7 50.1 62.3 50.1 63.2Z"
    fill="currentColor" />
  <path
    d="M67.8999 61.8C67.1999 62.2 66.8999 63.1 67.1999 63.8L70.8 71.2C71.1 71.7 71.6 72 72.1 72C72.3 72 72.5 72 72.8 71.8C73.5 71.4 73.7999 70.5 73.4999 69.8L69.8999 62.4C69.4999 61.8 68.5999 61.5 67.8999 61.8Z"
    fill="currentColor" />
</svg>
  