<svg xmlns="http://www.w3.org/2000/svg" fill="none" viewBox="0 0 169 156">
  <path stroke="currentcolor" stroke-linecap="round" stroke-linejoin="round" stroke-width="5" d="M56.2 140.3a117 117 0 0 0 23.1 2.2c9.2 0 23.2-.5 31.2-1.8M33.6 133l3.6 20H53l3.2-12.7"/>
  <path stroke="currentcolor" stroke-linecap="round" stroke-linejoin="round" stroke-width="5" d="m110.5 140.7 3 12.3h15.8l3.7-20c9.5-14.2 14.7-25.5 14.7-40.5 0-32-21-52.4-65.7-52.4-3 0-15.8 0-21.1 2.6-5.3-7.9-23.3-11.9-31.6-10.5 0 12.9 2.6 18.2 4.4 26.3C29.3 61 24 70 21.4 83.3l-13.9 2A5.3 5.3 0 0 0 3 90.5v19.2c0 1.4.5 2.8 1.5 3.8 9.8 9.5 22.2 15.8 29 19.4M87.2 29.3a13.2 13.2 0 1 0 0-26.3 13.2 13.2 0 0 0 0 26.3Zm68.4 47.4c6.2-1.8 10.6 2.6 10.6 7.9 0 7.9-10.6 13.1-18.4 7.9"/>
  <path stroke="currentcolor" stroke-linecap="round" stroke-linejoin="round" stroke-width="5" d="M103 55.6c-7-1.5-14.8-2.3-23.7-2.3-1.2 0-4.3 0-7.9.2"/>
</svg>