<svg width="85" height="85" viewBox="0 0 85 85" fill="none" xmlns="http://www.w3.org/2000/svg">
  <path
    d="M41.2 48.6L48.3 41.5L44.2 36C44.8 34.9 45.2 33.8 45.6 32.7L52.4 31.7V21.6L45.6 20.6C45.2 19.4 44.8 18.3 44.2 17.3L48.3 11.8L41.2 4.69997L35.7 8.79998C34.6 8.19998 33.5 7.79998 32.4 7.39998L31.4 0.599976H21.3L20.3 7.39998C19.1 7.79998 18 8.19998 17 8.79998L11.5 4.69997L4.39999 11.8L8.5 17.3C7.9 18.4 7.50001 19.5 7.10001 20.6L0.299988 21.6V31.7L7.10001 32.7C7.50001 33.9 7.9 35 8.5 36L4.39999 41.5L11.5 48.6L17 44.5C18.1 45.1 19.2 45.5 20.3 45.9L21.3 52.7H31.4L32.4 45.9C33.6 45.5 34.7 45.1 35.7 44.5L41.2 48.6ZM30.6 43.2L29.6 43.4L28.7 49.6H23.8L22.9 43.4L21.9 43.2C20.3 42.8 18.9 42.2 17.5 41.4L16.6 40.9L11.6 44.6L8.10001 41.1L11.8 36.1L11.3 35.2C10.5 33.8 9.9 32.3 9.5 30.8L9.29999 29.8L3.10001 28.9V24L9.29999 23.1L9.5 22.1C9.9 20.5 10.5 19.1 11.3 17.7L11.8 16.8L8.10001 11.8L11.6 8.29998L16.6 12L17.5 11.5C18.9 10.7 20.4 10.1 21.9 9.69997L22.9 9.49998L23.8 3.29998H28.7L29.6 9.49998L30.6 9.69997C32.2 10.1 33.6 10.7 35 11.5L35.9 12L40.9 8.29998L44.4 11.8L40.7 16.8L41.2 17.7C42 19.1 42.6 20.6 43 22.1L43.2 23.1L49.4 24V28.9L43.2 29.8L43 30.8C42.6 32.4 42 33.8 41.2 35.2L40.7 36.1L44.4 41.1L40.9 44.6L35.9 40.9L35 41.4C33.7 42.2 32.2 42.8 30.6 43.2Z"
    fill="currentColor" />
  <path
    d="M26.3 18.1C21.6 18.1 17.8 21.9 17.8 26.6C17.8 31.3 21.6 35.1 26.3 35.1C31 35.1 34.8 31.3 34.8 26.6C34.8 21.9 31 18.1 26.3 18.1ZM26.3 32.1C23.3 32.1 20.8 29.6 20.8 26.6C20.8 23.6 23.3 21.1 26.3 21.1C29.3 21.1 31.8 23.6 31.8 26.6C31.8 29.6 29.4 32.1 26.3 32.1Z"
    fill="currentColor" />
  <path
    d="M66.4 51L61.5 52.5C60.8 52 60 51.5 59.2 51.1L58.1 46.1H47.3L46.2 51.1C45.4 51.5 44.6 51.9 43.9 52.5L39 51L33.6 60.4L37.3 63.9C37.3 64.4 37.2 64.8 37.2 65.3C37.2 65.7 37.2 66.2 37.3 66.7L33.6 70.2L39 79.6L43.9 78.1C44.6 78.6 45.4 79.1 46.2 79.5L47.3 84.5H58L59.1 79.5C59.9 79.1 60.7 78.7 61.4 78.1L66.3 79.6L71.7 70.2L68 66.7C68 66.2 68.1 65.8 68.1 65.3C68.1 64.9 68.1 64.4 68 63.9L71.7 60.4L66.4 51ZM65 63.5C65.1 64.1 65.1 64.7 65.1 65.2C65.1 65.7 65.1 66.3 65 66.9L64.9 67.7L68 70.6L65 75.8L60.9 74.6L60.3 75.1C59.4 75.8 58.4 76.4 57.3 76.8L56.6 77.1L55.6 81.2H49.6L48.6 77.1L47.9 76.8C46.8 76.4 45.8 75.8 44.9 75.1L44.3 74.6L40.2 75.8L37.2 70.6L40.3 67.7L40.2 66.9C40.1 66.3 40.1 65.7 40.1 65.2C40.1 64.7 40.1 64.1 40.2 63.5L40.3 62.7L37.2 59.8L40.2 54.6L44.3 55.8L44.9 55.3C45.8 54.6 46.8 54 47.9 53.6L48.6 53.3L49.6 49.2H55.6L56.6 53.3L57.3 53.6C58.4 54 59.4 54.6 60.3 55.3L60.9 55.8L65 54.6L68 59.8L64.9 62.7L65 63.5Z"
    fill="currentColor" />
  <path
    d="M52.6 58.4C48.9 58.4 45.8 61.4 45.8 65.2C45.8 68.9 48.8 72 52.6 72C56.4 72 59.4 69 59.4 65.2C59.4 61.4 56.3 58.4 52.6 58.4ZM52.6 68.9C50.5 68.9 48.8 67.2 48.8 65.1C48.8 63 50.5 61.3 52.6 61.3C54.7 61.3 56.4 63 56.4 65.1C56.4 67.2 54.7 68.9 52.6 68.9Z"
    fill="currentColor" />
  <path
    d="M80.4 35.3999C80.4 34.9999 80.4 34.5 80.3 34L84 30.5L78.6 21.1L73.7 22.6C73 22.1 72.2 21.6 71.4 21.2L70.3 16.2H59.5L58.4 21.2C57.3 21.7 56.3 22.3 55.4 23C54.7 23.5 54.6 24.4 55.1 25.1C55.6 25.8 56.5 25.8999 57.2 25.3999C58.1 24.6999 59.1 24.1 60.2 23.7L60.9 23.3999L61.9 19.3H67.9L68.9 23.3999L69.6 23.7C70.7 24.1 71.7 24.6999 72.6 25.3999L73.2 25.8999L77.3 24.7L80.3 29.8999L77.2 32.8L77.3 33.6C77.4 34.2 77.4 34.8 77.4 35.3C77.4 35.8 77.4 36.4 77.3 37L77.2 37.8L80.3 40.7L77.3 45.8999L73.2 44.7L72.6 45.2C71.7 45.9 70.7 46.4999 69.6 46.8999C68.8 47.1999 68.5 48.0999 68.8 48.8999C69 49.4999 69.6 49.8 70.2 49.8C70.4 49.8 70.6 49.8 70.8 49.7C71.9 49.3 72.9 48.7 73.9 48L78.8 49.5L84.2 40.1L80.5 36.6C80.4 36.3 80.4 35.7999 80.4 35.3999Z"
    fill="currentColor" />
  <path
    d="M64.9 42.1C68.6 42.1 71.7 39.1 71.7 35.3C71.7 31.6 68.7 28.5 64.9 28.5C61.2 28.5 58.1 31.5 58.1 35.3C58.1 39.1 61.2 42.1 64.9 42.1ZM64.9 31.6C67 31.6 68.7 33.3 68.7 35.4C68.7 37.5 67 39.2 64.9 39.2C62.8 39.2 61.1 37.5 61.1 35.4C61.1 33.3 62.8 31.6 64.9 31.6Z"
    fill="currentColor" />
</svg>
  