<svg width="76" height="75" viewBox="0 0 76 75" fill="none" xmlns="http://www.w3.org/2000/svg">
  <path
    d="M75.6 37.5C75.6 16.8 58.8 0 38.1 0C37.8 0 37.5 0 37.2 0C37.2 0 37.2 0 37.1 0C36.9 0 36.8 0 36.6 0C18.4 0.7 3.40002 14.4 0.900024 32.1C0.500024 32.6 0.400012 33.3 0.700012 33.8C0.600012 35 0.5 36.2 0.5 37.5C0.5 45.7 3.20001 53.3 7.70001 59.5C7.60001 60.2 7.89998 60.9 8.59998 61.2C8.79998 61.3 8.89998 61.3 9.09998 61.3C16 69.7 26.4 75 38.1 75C43.7 75 49 73.8 53.7 71.6C54 71.6 54.3 71.5 54.5 71.3C54.6 71.2 54.7 71.1 54.8 71C59.5 68.6 63.7 65.3 67.1 61.2C67.1 61.2 67.1 61.2 67.2 61.2C67.2 61.2 67.2 61.2 67.3 61.2C68.1 61.2 68.8 60.6 68.8 59.8C68.8 59.6 68.8 59.4 68.7 59.2C73 53 75.6 45.6 75.6 37.5ZM72.6 37.5C72.6 45.2 70 52.4 65.7 58.1C61.7 57.9 57.6 57.4 53.6 56.7C53.6 56.6 53.6 56.6 53.6 56.5C53.6 52.4 50.2 49 46.1 49C45.6 49 45.1 49.1 44.6 49.2C42.2 43 40.5 36.6 39.4 30.1C42.5 29.2 44.8 26.3 44.8 22.9C44.8 21.6 44.4 20.3 43.8 19.2C48.6 15.7 53.7 12.6 59 10C67.2 16.3 72.6 26.3 72.6 37.5ZM13.8 45.2C13.8 42.7 15.8 40.7 18.3 40.7C18.8 40.7 19.3 40.8 19.7 41C19.7 41 19.8 41.1 19.9 41.1C20.1 41.3 20.4 41.3 20.7 41.4C22 42.2 22.9 43.6 22.9 45.2C22.9 45.8 22.8 46.3 22.6 46.8C22.4 46.9 22.3 47.1 22.2 47.3C22.1 47.5 22 47.7 22 47.9C21.2 49 19.9 49.7 18.4 49.7C15.8 49.7 13.8 47.7 13.8 45.2ZM23.1 39.4C26 35.6 29.2 32.1 32.6 28.8C33.7 29.7 35 30.2 36.4 30.4C37.6 37.2 39.4 43.9 41.9 50.4C40.9 51.1 40.1 52.1 39.5 53.2C34.8 51.6 30.1 49.7 25.6 47.4C25.8 46.7 25.9 46 25.9 45.2C25.8 42.9 24.7 40.8 23.1 39.4ZM41.8 17C40.7 16.2 39.4 15.6 37.9 15.5C37.9 14.6 37.8 13.6 37.8 12.7C37.8 9.4 38 6.2 38.3 3C44.8 3 50.9 4.90001 56.1 8.10001C51.1 10.6 46.3 13.6 41.8 17ZM37.2 18.4C38.3 18.4 39.3 18.8 40.1 19.5C40.1 19.7 40.2 19.8 40.3 20C40.5 20.2 40.7 20.4 41 20.5C41.5 21.2 41.7 22.1 41.7 23C41.7 25.5 39.7 27.5 37.2 27.5C36.1 27.5 35.2 27.1 34.4 26.5C34.4 26.1 34.3 25.7 34 25.4C33.8 25.2 33.5 25 33.2 25C32.9 24.4 32.7 23.8 32.7 23.1C32.7 20.4 34.7 18.4 37.2 18.4ZM44.2 52.4C44.2 52.4 44.3 52.4 44.3 52.3C44.8 52.1 45.4 51.9 46 51.9C48.5 51.9 50.5 53.9 50.5 56.4C50.5 58.9 48.5 60.9 46 60.9C43.5 60.9 41.5 58.9 41.5 56.4C41.6 54.7 42.7 53.1 44.2 52.4ZM35.3 3.10001C35 6.20001 34.9 9.40001 34.9 12.6C34.9 13.6 34.9 14.7 35 15.7C32 16.7 29.8 19.5 29.8 22.8C29.8 24.1 30.1 25.3 30.7 26.4C27 30 23.6 33.8 20.5 37.9C19.8 37.7 19.2 37.6 18.5 37.6C16.4 37.6 14.5 38.4 13.2 39.8C10 37.5 6.89998 35.1 4.09998 32.6C6.09998 16.8 19.1 4.40001 35.3 3.10001ZM3.59998 36.4C6.09998 38.5 8.70002 40.5 11.4 42.4C11.1 43.3 10.9 44.2 10.9 45.2C10.9 47 11.5 48.6 12.6 49.9C11.4 52 10.3 54.1 9.20001 56.3C5.70001 50.9 3.59998 44.4 3.59998 37.5C3.49998 37.1 3.49998 36.8 3.59998 36.4ZM11.1 59.1C12.2 56.6 13.5 54.2 14.8 51.9C15.8 52.4 17 52.8 18.3 52.8C20.6 52.8 22.7 51.7 24.1 50.1C28.8 52.5 33.7 54.5 38.6 56.1C38.6 56.3 38.6 56.4 38.6 56.6C38.6 60.7 42 64.1 46.1 64.1C46.8 64.1 47.4 64 48.1 63.8C49.2 65.8 50.3 67.6 51.4 69.4C47.3 71.1 42.8 72.1 38.1 72.1C27.2 72 17.5 66.9 11.1 59.1ZM54.1 68C53 66.2 51.8 64.4 50.7 62.4C51.6 61.7 52.4 60.7 52.9 59.6C56.3 60.2 59.8 60.7 63.3 60.9C60.7 63.8 57.6 66.2 54.1 68Z"
    fill="currentColor" />
</svg>
  