<svg width="76" height="75" viewBox="0 0 76 75" fill="none" xmlns="http://www.w3.org/2000/svg">
  <path
    d="M75.4 37.5C75.4 34.5 75.1 31.6 74.4 28.7C70.3 11.5 54.9 0 37.9 0C35 0 32.1 0.3 29.2 1C12.1 5.1 0.5 20.5 0.5 37.4V37.5V37.6C0.5 40.5 0.8 43.3 1.5 46.2C5.6 63.3 20.9 74.9 37.8 74.9C37.9 74.9 37.9 74.9 38 74.9C38.1 74.9 38.1 74.9 38.2 74.9C41 74.9 43.9 74.6 46.8 73.9C56.5 71.6 64.8 65.6 70 57C73.6 51.1 75.5 44.3 75.4 37.5ZM72.4 36H56.5C56.4 30.2 55.7 24.8 54.4 20C58.3 19.1 61.9 17.8 65 16.2C68 20 70.2 24.5 71.4 29.5C72 31.6 72.3 33.8 72.4 36ZM3.39999 36C3.69999 28.7 6.4 21.8 10.8 16.2C13.9 17.8 17.4 19 21.4 20C20.2 24.8 19.4 30.2 19.3 36H3.39999ZM24.3 20.6C28.1 21.3 32.2 21.7 36.4 21.8V36H22.3C22.4 30.4 23.1 25.2 24.3 20.6ZM39.4 3.10001C44 4.10001 48.1 9.7 50.6 17.7C47 18.4 43.3 18.7 39.4 18.8V3.10001ZM36.4 3.10001V18.8C32.5 18.7 28.7 18.3 25.2 17.7C27.8 9.7 31.8 4.10001 36.4 3.10001ZM36.4 39V53.2C32.2 53.3 28.1 53.7 24.3 54.4C23.1 49.8 22.3 44.5 22.2 39H36.4ZM36.4 56.1V71.8C31.8 70.8 27.8 65.2 25.2 57.2C28.7 56.6 32.5 56.2 36.4 56.1ZM39.4 71.8V56.1C43.3 56.2 47.1 56.6 50.6 57.2C48.1 65.2 44 70.8 39.4 71.8ZM39.4 53.1V39H53.5C53.4 44.5 52.6 49.8 51.4 54.4C47.7 53.6 43.6 53.2 39.4 53.1ZM39.4 36V21.8C43.6 21.7 47.7 21.3 51.5 20.6C52.7 25.2 53.4 30.5 53.6 36H39.4ZM63 13.8C60.3 15.1 57.1 16.2 53.6 17.1C51.8 11.6 49.4 7.10001 46.4 4.10001C52.8 5.70001 58.6 9.1 63 13.8ZM29.3 4C26.4 7 23.9 11.5 22.2 17C18.7 16.2 15.6 15.1 12.8 13.7C17.1 9.2 22.8 5.7 29.3 4ZM3.39999 39H19.2C19.3 44.8 20 50.3 21.3 55.1C17.4 56 13.8 57.3 10.7 58.9C7.7 55.1 5.5 50.6 4.3 45.6C3.8 43.3 3.49999 41.1 3.39999 39ZM12.8 61.1C15.5 59.8 18.7 58.7 22.2 57.8C24 63.3 26.4 67.8 29.3 70.8C23 69.3 17.3 65.9 12.8 61.1ZM46.5 70.9C49.4 67.9 51.9 63.4 53.6 57.9C57.1 58.7 60.3 59.8 63 61.2C58.6 65.9 52.9 69.2 46.5 70.9ZM67.4 55.5C66.7 56.7 65.9 57.8 65.1 58.8C62 57.2 58.4 55.9 54.5 55C55.7 50.2 56.5 44.8 56.6 39H72.5C72.2 44.8 70.5 50.4 67.4 55.5Z"
    fill="currentColor" />
</svg>
  