<svg xmlns="http://www.w3.org/2000/svg" fill="none" viewBox="0 0 120 114">
  <path stroke="currentcolor" stroke-linecap="round" stroke-linejoin="round" stroke-width="5" d="M49.4 27c5.3 0 9.6-4.2 9.6-9.4 0-5.3-4.3-9.5-9.6-9.5a9.6 9.6 0 0 0-9.7 9.5c0 5.2 4.3 9.5 9.7 9.5ZM27.3 56.3v.2M50 44.4l11.2 9.4h18.1M50 44.4l-4.6-4"/>
  <path stroke="currentcolor" stroke-linecap="round" stroke-linejoin="round" stroke-width="5" d="M79.3 53.8c2.5 0 4.6-2 4.6-4.4 0-2.5-2-4.5-4.6-4.5M78.3 3v42m0 9.4 1 27.3m-43.1-51-.4.6m0 0c-.5.7-.9 1.5-1.1 2.4l-7.4 22.6M35.9 31v.3"/>
  <path stroke="currentcolor" stroke-linecap="round" stroke-linejoin="round" stroke-width="5" d="M79.3 45H65.7s-13.5-15.6-20-17.6c0 0 0 0 0 0-3.7-.9-7.4.5-9.5 3.3M50 44.4l-4.3 12.7 13.7 6.7c2.1 1 3.4 3.2 3.2 5.5l-1.4 19.8m-34-32.6c-2.5 6.9 0 11.6 5 12.8 7.5 2 19.1 3.8 19.1 3.8l.4 19.5"/>
  <path stroke="currentcolor" stroke-linecap="round" stroke-linejoin="round" stroke-width="5" d="m26.3 61.5 1 19-9.9 25m0 0-.3 1m21.5-35.3V81c0 1.2-.4 2.4-1 3.4l-8.3 16.8m-11.9 4.3L3 111m75.4-28.4L61.2 89m-9.5 3.6-22.4 8.5M117 111 80.3 82.6m-2.1-70.1c11-12.6 22.1 10.5 33.2-2l-.3 18.9c-10.9 12.3-21.8-10.3-32.6 2M53.2 111l7.8-9.5 9.6 2 7.8-17.1"/>
</svg>