<svg xmlns="http://www.w3.org/2000/svg" fill="none" viewBox="0 0 82 108">
  <path stroke="currentcolor" stroke-linecap="round" stroke-linejoin="round" stroke-width="5" d="M41 67.5c15.15 0 27.44-12.08 27.44-27 0-14.91-12.29-27-27.44-27-15.15 0-27.43 12.09-27.43 27 0 14.92 12.28 27 27.43 27Z"/>
  <path stroke="currentcolor" stroke-linecap="round" stroke-linejoin="round" stroke-width="5" d="m30.72 40.5 6.85 6.75 13.72-13.5"/>
  <path fill="currentcolor" stroke="currentcolor" d="M42.97 78.78c.53.38 1.2.87 2 1.3l-12.04 25.4a2.64 2.64 0 0 1-2.39 1.5h-.13a2.6 2.6 0 0 1-2.36-1.7l-4.68-12.66-.17-.47-.47.17-12.86 4.61c-1 .36-2.12.1-2.84-.68a2.54 2.54 0 0 1-.44-2.83l9.8-20.69a13.5 13.5 0 0 0 2.94-.02l-9.8 20.67-.51 1.1 1.14-.42 12.33-4.42a2.4 2.4 0 0 1 1.88.08 2.4 2.4 0 0 1 1.26 1.35l4.5 12.14.4 1.12.51-1.08 11.68-24.64.15.1.09.07Z"/>
  <mask id="a" fill="#fff">
    <path d="M32.53 80.71a11 11 0 0 1-2.27-.25l-.34-.1a9.18 9.18 0 0 1-6.14-5.73l-.1-.23c-.56-1.25-.75-1.63-1.47-2.04l-.12-.07c-.31-.2-.56-.26-.98-.26-.36 0-.8.05-1.27.1-.64.08-1.35.16-2.14.16a9.09 9.09 0 0 1-6.39-2.56l-.16-.16c-3.08-3.22-2.68-6.45-2.44-8.38.18-1.41.16-1.71-.15-2.17l-.06-.08-.15-.28c-.25-.49-.5-.65-1.83-1.2-1.82-.77-4.87-2.04-6.16-6.28l-.06-.21c-1.02-4.32.96-6.92 2.14-8.48.87-1.14 1.02-1.44 1-2v-.14c0-.82-.24-1.17-1.06-2.27l-.16-.2C.86 36.14-.6 33.65.26 29.77l.1-.34c1.22-3.78 3.74-5.22 5.8-6.04l.25-.1c1.27-.55 1.65-.73 2.07-1.45l.07-.11c.3-.48.33-.82.16-2.23-.24-1.93-.63-5.16 2.44-8.4l.16-.15a9 9 0 0 1 6.36-2.56c.8 0 1.52.08 2.15.16.48.06.92.1 1.28.1.45 0 .68-.08.93-.25l.1-.06.27-.15c.5-.24.67-.5 1.23-1.8C24.4 4.6 25.7 1.61 30 .34l.22-.06A11 11 0 0 1 32.59 0c3 0 4.94 1.44 6.23 2.4 1.14.83 1.43.98 1.95.98h.22c.83 0 1.2-.23 2.3-1.04l.22-.15A9.43 9.43 0 0 1 51.74.25l.34.09a9.2 9.2 0 0 1 6.14 5.72l.1.24c.56 1.25.75 1.63 1.47 2.04l.12.07c.31.2.56.26.98.26.36 0 .8-.05 1.28-.1.63-.08 1.34-.17 2.14-.17a9.1 9.1 0 0 1 6.39 2.57l.16.16c3.08 3.22 2.68 6.45 2.43 8.38-.17 1.41-.15 1.72.15 2.17l.06.09.15.27c.25.49.5.66 1.84 1.22 1.82.76 4.86 2.04 6.15 6.27l.06.22c1.02 4.3-.96 6.91-2.14 8.47-.87 1.15-1.02 1.44-1 2v.13c0 .82.24 1.18 1.06 2.27l.16.2c1.36 1.74 2.82 4.22 1.96 8.1l-.08.34c-1.23 3.78-3.76 5.21-5.82 6.04l-.24.1c-1.27.55-1.65.74-2.07 1.45l-.07.11c-.31.48-.33.81-.16 2.23.24 1.93.63 5.16-2.44 8.4l-.16.15a9.02 9.02 0 0 1-6.37 2.57c-.8 0-1.52-.09-2.15-.17-.47-.06-.91-.1-1.27-.1-.4 0-.63.06-.94.25l-.08.06-.28.15c-.5.25-.67.5-1.23 1.8-.78 1.8-2.07 4.79-6.37 6.06l-.22.05c-.82.2-1.61.29-2.37.29-3 0-4.95-1.44-6.24-2.4-1.13-.84-1.42-.99-1.94-.99H41c-.83 0-1.2.24-2.3 1.05l-.22.15a9.43 9.43 0 0 1-5.96 2.19v.01Zm-1.45-3.76a5.83 5.83 0 0 0 5.17-1.28l.28-.2c1.24-.9 2.4-1.74 4.46-1.74h.04c1.96-.08 3.17.82 4.35 1.7 1.11.82 2.27 1.67 4.04 1.67.47 0 .98-.06 1.51-.18l.05-.02c2.64-.8 3.35-2.43 4.03-4.01.58-1.33 1.17-2.7 2.9-3.59l.11-.05c.88-.56 1.8-.82 2.9-.82.57 0 1.15.07 1.72.13.58.08 1.13.14 1.7.14 1.48 0 2.66-.48 3.83-1.56l.04-.04c1.89-2 1.68-3.76 1.46-5.48-.17-1.44-.35-2.92.68-4.56l.03-.03c1.03-1.74 2.35-2.31 3.76-2.92l.31-.14c1.7-.67 3-1.57 3.72-3.77l.02-.08c.48-2.25-.17-3.67-1.3-5.1l-.2-.27c-.92-1.2-1.77-2.35-1.78-4.38v-.04c-.06-1.93.84-3.13 1.73-4.28 1.05-1.38 2.13-2.8 1.51-5.47l-.01-.05c-.8-2.6-2.47-3.3-4.08-3.97-1.35-.57-2.75-1.15-3.64-2.86l-.06-.1c-1.05-1.61-.87-3.1-.7-4.53.22-1.71.44-3.47-1.44-5.46l-.04-.04A5.39 5.39 0 0 0 64.32 12c-.57 0-1.12.06-1.7.13-.56.07-1.15.14-1.73.14-1.1 0-2.02-.26-2.9-.8l-.04-.03c-1.77-1.01-2.35-2.32-2.97-3.7l-.14-.3a5.6 5.6 0 0 0-3.82-3.67l-.08-.02a5.83 5.83 0 0 0-5.17 1.28l-.28.2c-1.23.9-2.4 1.74-4.46 1.75H41c-1.96.07-3.13-.8-4.36-1.7-1.1-.82-2.26-1.67-4.03-1.67-.48 0-.98.06-1.52.18l-.05.01c-2.64.8-3.35 2.43-4.03 4.01-.58 1.33-1.17 2.71-2.9 3.59l-.1.06c-.9.56-1.81.82-2.9.82-.58 0-1.16-.08-1.72-.14-.58-.07-1.13-.14-1.7-.14a5.3 5.3 0 0 0-3.83 1.57l-.04.04c-1.89 2-1.68 3.76-1.46 5.48.17 1.44.35 2.92-.68 4.56l-.03.03c-1.03 1.74-2.35 2.31-3.76 2.92l-.31.14c-1.7.67-3 1.57-3.72 3.77l-.02.08c-.48 2.25.17 3.66 1.3 5.09l.2.27c.91 1.21 1.77 2.36 1.78 4.38v.04c.07 1.93-.84 3.12-1.73 4.28-1.05 1.38-2.13 2.8-1.51 5.47l.01.05c.8 2.6 2.47 3.29 4.08 3.96 1.35.57 2.75 1.16 3.64 2.86l.06.1c1.05 1.62.87 3.1.7 4.54-.22 1.7-.44 3.47 1.45 5.46l.04.03a5.38 5.38 0 0 0 3.86 1.57c.57 0 1.12-.06 1.7-.13.57-.07 1.14-.14 1.72-.14 1.1 0 2.03.26 2.92.8l.03.03c1.77 1.01 2.36 2.32 2.96 3.7l.14.3a5.62 5.62 0 0 0 3.84 3.66l.08.02-.03.02Z"/>
  </mask>
  <path fill="currentcolor" stroke="currentcolor" stroke-width="2" d="M32.53 80.71a11 11 0 0 1-2.27-.25l-.34-.1a9.18 9.18 0 0 1-6.14-5.73l-.1-.23c-.56-1.25-.75-1.63-1.47-2.04l-.12-.07c-.31-.2-.56-.26-.98-.26-.36 0-.8.05-1.27.1-.64.08-1.35.16-2.14.16a9.09 9.09 0 0 1-6.39-2.56l-.16-.16c-3.08-3.22-2.68-6.45-2.44-8.38.18-1.41.16-1.71-.15-2.17l-.06-.08-.15-.28c-.25-.49-.5-.65-1.83-1.2-1.82-.77-4.87-2.04-6.16-6.28l-.06-.21c-1.02-4.32.96-6.92 2.14-8.48.87-1.14 1.02-1.44 1-2v-.14c0-.82-.24-1.17-1.06-2.27l-.16-.2C.86 36.14-.6 33.65.26 29.77l.1-.34c1.22-3.78 3.74-5.22 5.8-6.04l.25-.1c1.27-.55 1.65-.73 2.07-1.45l.07-.11c.3-.48.33-.82.16-2.23-.24-1.93-.63-5.16 2.44-8.4l.16-.15a9 9 0 0 1 6.36-2.56c.8 0 1.52.08 2.15.16.48.06.92.1 1.28.1.45 0 .68-.08.93-.25l.1-.06.27-.15c.5-.24.67-.5 1.23-1.8C24.4 4.6 25.7 1.61 30 .34l.22-.06A11 11 0 0 1 32.59 0c3 0 4.94 1.44 6.23 2.4 1.14.83 1.43.98 1.95.98h.22c.83 0 1.2-.23 2.3-1.04l.22-.15A9.43 9.43 0 0 1 51.74.25l.34.09a9.2 9.2 0 0 1 6.14 5.72l.1.24c.56 1.25.75 1.63 1.47 2.04l.12.07c.31.2.56.26.98.26.36 0 .8-.05 1.28-.1.63-.08 1.34-.17 2.14-.17a9.1 9.1 0 0 1 6.39 2.57l.16.16c3.08 3.22 2.68 6.45 2.43 8.38-.17 1.41-.15 1.72.15 2.17l.06.09.15.27c.25.49.5.66 1.84 1.22 1.82.76 4.86 2.04 6.15 6.27l.06.22c1.02 4.3-.96 6.91-2.14 8.47-.87 1.15-1.02 1.44-1 2v.13c0 .82.24 1.18 1.06 2.27l.16.2c1.36 1.74 2.82 4.22 1.96 8.1l-.08.34c-1.23 3.78-3.76 5.21-5.82 6.04l-.24.1c-1.27.55-1.65.74-2.07 1.45l-.07.11c-.31.48-.33.81-.16 2.23.24 1.93.63 5.16-2.44 8.4l-.16.15a9.02 9.02 0 0 1-6.37 2.57c-.8 0-1.52-.09-2.15-.17-.47-.06-.91-.1-1.27-.1-.4 0-.63.06-.94.25l-.08.06-.28.15c-.5.25-.67.5-1.23 1.8-.78 1.8-2.07 4.79-6.37 6.06l-.22.05c-.82.2-1.61.29-2.37.29-3 0-4.95-1.44-6.24-2.4-1.13-.84-1.42-.99-1.94-.99H41c-.83 0-1.2.24-2.3 1.05l-.22.15a9.43 9.43 0 0 1-5.96 2.19v.01Zm-1.45-3.76a5.83 5.83 0 0 0 5.17-1.28l.28-.2c1.24-.9 2.4-1.74 4.46-1.74h.04c1.96-.08 3.17.82 4.35 1.7 1.11.82 2.27 1.67 4.04 1.67.47 0 .98-.06 1.51-.18l.05-.02c2.64-.8 3.35-2.43 4.03-4.01.58-1.33 1.17-2.7 2.9-3.59l.11-.05c.88-.56 1.8-.82 2.9-.82.57 0 1.15.07 1.72.13.58.08 1.13.14 1.7.14 1.48 0 2.66-.48 3.83-1.56l.04-.04c1.89-2 1.68-3.76 1.46-5.48-.17-1.44-.35-2.92.68-4.56l.03-.03c1.03-1.74 2.35-2.31 3.76-2.92l.31-.14c1.7-.67 3-1.57 3.72-3.77l.02-.08c.48-2.25-.17-3.67-1.3-5.1l-.2-.27c-.92-1.2-1.77-2.35-1.78-4.38v-.04c-.06-1.93.84-3.13 1.73-4.28 1.05-1.38 2.13-2.8 1.51-5.47l-.01-.05c-.8-2.6-2.47-3.3-4.08-3.97-1.35-.57-2.75-1.15-3.64-2.86l-.06-.1c-1.05-1.61-.87-3.1-.7-4.53.22-1.71.44-3.47-1.44-5.46l-.04-.04A5.39 5.39 0 0 0 64.32 12c-.57 0-1.12.06-1.7.13-.56.07-1.15.14-1.73.14-1.1 0-2.02-.26-2.9-.8l-.04-.03c-1.77-1.01-2.35-2.32-2.97-3.7l-.14-.3a5.6 5.6 0 0 0-3.82-3.67l-.08-.02a5.83 5.83 0 0 0-5.17 1.28l-.28.2c-1.23.9-2.4 1.74-4.46 1.75H41c-1.96.07-3.13-.8-4.36-1.7-1.1-.82-2.26-1.67-4.03-1.67-.48 0-.98.06-1.52.18l-.05.01c-2.64.8-3.35 2.43-4.03 4.01-.58 1.33-1.17 2.71-2.9 3.59l-.1.06c-.9.56-1.81.82-2.9.82-.58 0-1.16-.08-1.72-.14-.58-.07-1.13-.14-1.7-.14a5.3 5.3 0 0 0-3.83 1.57l-.04.04c-1.89 2-1.68 3.76-1.46 5.48.17 1.44.35 2.92-.68 4.56l-.03.03c-1.03 1.74-2.35 2.31-3.76 2.92l-.31.14c-1.7.67-3 1.57-3.72 3.77l-.02.08c-.48 2.25.17 3.66 1.3 5.09l.2.27c.91 1.21 1.77 2.36 1.78 4.38v.04c.07 1.93-.84 3.12-1.73 4.28-1.05 1.38-2.13 2.8-1.51 5.47l.01.05c.8 2.6 2.47 3.29 4.08 3.96 1.35.57 2.75 1.16 3.64 2.86l.06.1c1.05 1.62.87 3.1.7 4.54-.22 1.7-.44 3.47 1.45 5.46l.04.03a5.38 5.38 0 0 0 3.86 1.57c.57 0 1.12-.06 1.7-.13.57-.07 1.14-.14 1.72-.14 1.1 0 2.03.26 2.92.8l.03.03c1.77 1.01 2.36 2.32 2.96 3.7l.14.3a5.62 5.62 0 0 0 3.84 3.66l.08.02-.03.02Z" mask="url(#a)"/>
  <path fill="currentcolor" stroke="currentcolor" d="m44.93 91.04 6.03 12.74.51 1.07.41-1.11 4.5-12.14a2.45 2.45 0 0 1 3.13-1.43l12.34 4.42 1.13.4-.51-1.09L62.4 72.67c.44.05.93.1 1.45.12.17.02.33.02.46.02h.01c.36 0 .71-.02 1.05-.06l10.04 21.2c.45.94.28 2.05-.44 2.82a2.66 2.66 0 0 1-2.85.69l-12.86-4.61-.46-.17-.18.46-4.68 12.66a2.63 2.63 0 0 1-2.35 1.7h-.12a2.63 2.63 0 0 1-2.4-1.5l-5.62-11.86 1.47-3.1Z"/>
</svg>