<svg width="84" height="87" viewBox="0 0 84 87" fill="none" xmlns="http://www.w3.org/2000/svg">
  <path
    d="M83.2 56.7C81.8 53.3 77.9 51.7 74.5 53.1L57.5 59.6C57.6 59.1 57.7 58.5 57.7 58C57.7 54.3 54.7 51.3 51 51.3H30.4C28.3 51.3 26.2 51.9 24.4 52.9L11.2 60.6C11.2 60.6 11.2 60.6 11.1 60.6L9.90002 58.6L0.900016 63.1C0.200016 63.5 -0.0999962 64.4 0.200004 65.1C0.600004 65.8 1.5 66.1 2.2 65.8L8.79998 62.5L20.2 80.8L13.9 84C13.2 84.4 12.9 85.3 13.2 86C13.5 86.5 14 86.8 14.5 86.8C14.7 86.8 15 86.7 15.2 86.6L24.5 82L23.1 79.8L27.2 77.3C28.2 76.7 29.3 76.4 30.4 76.4H50.8C52.7 76.4 54.6 76 56.5 75.2L79.5 65.5C82.9 64.1 84.6 60.1 83.2 56.7ZM78.4 62.7L55.4 72.4C54 73 52.4 73.3 50.9 73.3H30.5C28.8 73.3 27.2 73.8 25.7 74.6L21.5 77.1L12.7 63L25.9 55.3C27.3 54.5 28.8 54.1 30.4 54.1H51C53 54.1 54.7 55.8 54.7 57.8C54.7 59.8 53 61.5 51 61.5H35.4C34.6 61.5 33.9 62.2 33.9 63C33.9 63.8 34.6 64.5 35.4 64.5H51C51.3 64.5 51.6 64.5 51.9 64.4C52.2 64.5 52.5 64.5 52.8 64.4L75.6 55.7C77.5 54.9 79.7 55.8 80.4 57.7C81.2 59.8 80.3 61.9 78.4 62.7Z"
    fill="currentColor" />
  <path
    d="M38.6 32.6C39.5 32.6 40.5 32.6 41.5 32.5C42.3 32.4 42.9 31.7 42.9 30.9C42.8 30.1 42.1 29.5 41.3 29.5C35.4 30 30.9 28.8 28 25.8C25.5 23.2 22.8 18 23.7 7.59999C25.7 8.79999 28.4 9.49999 31.1 10.2C38.5 12.2 46.2 14.2 46.9 24.7C43 21 39 19.1 38.6 18.9C37.8 18.6 37 18.9 36.6 19.6C36.3 20.4 36.6 21.2 37.3 21.6C37.4 21.7 49.9 27.5 50.7 38.6C47.7 39.3 44.9 41 43 43.5C40 43.2 37 44 34.5 45.7C33.8 46.2 33.6 47.1 34.1 47.8C34.6 48.5 35.5 48.7 36.2 48.2C37.9 47.1 39.8 46.5 41.9 46.5C42.4 46.5 43 46.5 43.5 46.6L44.5 46.8L45 46C46.9 43.1 50.2 41.3 53.6 41.3C57 41.3 60.2 43 62.1 45.9L62.6 46.6L63.5 46.5C66.5 46.3 69.6 47.6 71.6 49.9C71.9 50.2 72.3 50.4 72.7 50.4C73.1 50.4 73.4 50.3 73.7 50C74.3 49.4 74.4 48.5 73.8 47.9C71.3 45.1 67.8 43.5 64.1 43.5C61.6 40.3 57.8 38.3 53.7 38.3C53.4 34.3 51.8 30.9 49.9 28.2C50.7 12.3 39.8 9.39999 31.8 7.29999C28.3 6.39999 24.9 5.49999 23.6 3.79999L21.2 0.799988L21 4.69999C21 4.79999 21 4.99999 20.9 5.29999C19.7 15.7 21.3 23.3 25.9 28C28.9 31 33.2 32.6 38.6 32.6Z"
    fill="currentColor" />
  <path
    d="M56.2 31.9L57.1 32.1C58.7 32.4 60.2 32.6 61.6 32.6C65 32.6 68 31.6 70.4 29.7C77.1 24.4 77.2 13.7 77.2 13.3V11.8H75.7C75.2 11.8 63.4 12.1 58 19.1C55.5 22.3 54.8 26.3 55.9 31L56.2 31.9ZM60.5 20.9C63.9 16.5 71.1 15.2 74.3 14.9C74 17.8 72.8 24.1 68.7 27.4C66.2 29.4 62.9 30.1 58.8 29.4C58.1 26 58.7 23.1 60.5 20.9Z"
    fill="currentColor" />
</svg>
  