<svg width="97" height="72" viewBox="0 0 97 72" fill="none" xmlns="http://www.w3.org/2000/svg">
  <path
    d="M64.5 32.4C65.9 32.1 67.8 31.5 69 30.5C69.6 30 69.7 29.1 69.2 28.5C68.7 27.9 67.8 27.8 67.2 28.4C66.6 28.9 65.4 29.4 63.9 29.7C63.2 29.8 62.7 30.5 62.8 31.2C62.9 32 63.7 32.6 64.5 32.4Z"
    fill="currentColor" />
  <path
    d="M96.7 29.3L76.4 1C76 0.400004 75.1 0.200016 74.5 0.700016L64.3 7.60001C63.8 8.00001 63.6 8.60002 63.8 9.20002C60.9 9.10002 54.3 9.20002 48.9 10.7L48.5 10.8C42.6 12.5 39.3 13.7 38 15.5C37.9 15.7 34.7 26.9 34.4 27.9C34 29.3 34.2 30.6 34.8 31.7C35.8 33.3 37.6 34 39.4 34C41 34 42.6 33.4 43.9 32.4C46.3 30.5 47.7 27.4 48.2 24.7C51 24.8 52.9 24.9 54.2 24.8C55.5 24.7 56 24.3 55.9 23.3C55.8 22.6 55.2 22 54.5 22L47.1 21.8C46.4 21.8 45.8 22.4 45.7 23.1C45.5 25.8 44.1 28.7 42.3 30.2C40.2 31.9 37.8 31.3 37.2 30.3C36.9 29.8 37 29.2 37.1 28.7L40.5 16.9C41.8 15.7 47.1 14.1 49.2 13.6L49.6 13.5C56 11.7 64.9 12.2 64.9 12.2C65 12.2 65 12.2 65.1 12.2C65.2 12.3 65.3 12.5 65.3 12.6C69.5 20.5 75 28.4 81.6 35.9C81.8 36.2 82.1 36.5 82.3 36.7L80.8 37.9C80.5 38.1 80.4 38.4 80.3 38.7C79.8 41.7 77.7 43.7 76.1 44.9C76 45 75.1 45.8 75.1 45.8L60.2 30.6L55.4 25.7C54.9 25.2 54.1 25.1 53.5 25.6C52.8 26.1 52.8 27.1 53.4 27.7C77.8 52.5 76.1 50.7 76.3 51.1C76.9 52.3 76.6 53.6 75.8 54.4C74.8 55.5 72.6 55.6 71.4 54.5L64.3 47.4C63.8 46.9 62.9 46.8 62.4 47.3C61.8 47.8 61.7 48.8 62.3 49.4L68.4 55.4C69.2 56.5 69.1 58.1 68.1 59.1C67 60.2 65.2 60.2 64 59.1L58.2 53.5C57.6 52.9 56.6 53 56.1 53.6C55.6 54.2 55.7 55 56.3 55.5L60.6 59.7C61.4 60.8 61.3 62.3 60.4 63.4C59.3 64.6 57.5 64.6 56.8 64L54.2 61.5C52.9 60.2 50.9 62.2 52.3 63.5C53.3 64.4 53.5 65.9 52.9 67C52 68.7 49.8 69 48.5 67.8C48 67.3 47.2 67.3 46.6 67.7C45.9 68.3 45.9 69.3 46.5 69.8C49.7 72.8 55.1 71.1 55.9 66.7C57.8 67.6 60.7 67.2 62.5 65.3C63.3 64.4 63.8 63.4 64 62.3C66.2 63.2 68.7 62.7 70.3 60.9C71.1 60 71.6 58.9 71.8 57.7C74.1 58.5 76.6 57.8 78 56.2C79 55.1 79.6 53.6 79.5 52.1C79.4 50.6 78.8 49.2 77.7 48.1L77.2 47.6L78.1 46.9C79.7 45.7 82.3 43.2 83.2 39.5L84.4 38.5C84.6 38.8 84.9 39.1 85.2 39.3C85.5 39.6 85.8 39.7 86.2 39.7C86.5 39.7 86.9 39.6 87.1 39.3L96.6 30.9C97 30.7 97.1 29.9 96.7 29.3ZM86.2 36.6C85.4 35.7 84.6 34.8 83.8 33.9C77.4 26.5 72 18.9 67.9 11.2C67.5 10.5 67.2 9.89999 66.9 9.29999L75 3.79999L93.8 30L86.2 36.6Z"
    fill="currentColor" />
  <path
    d="M50 63.5C53.1 60.2 51.1 54.6 46.5 54.2C47.5 50 43.9 46.1 39.7 46.9C39.8 45.1 39 43.5 37.9 42.4C35.5 40.1 31.8 40.2 29.5 42.6L27.4 44.9L27.3 44.8C28 43.5 28.1 42.1 27.7 40.6C27.6 40.2 27.4 39.7 27.1 39.3C25.1 36.1 20.9 35.8 18.5 38.4L18.1 38.8C16.2 36.5 16.3 36.8 15.4 35.6C21.9 28.2 27.3 20.5 31.4 12.7L33.1 14.2C33.3 14.4 33.7 14.5 34 14.5H37.5C39.3 14.5 39.4 11.7 37.5 11.7H34.5L32.7 10.1C32.8 9.90002 32.9 9.6 33.1 9.3C33.5 8.6 33.2 7.80001 32.6 7.50001L22.5 0.60002C21.9 0.20002 21 0.300008 20.6 0.900008L0.299981 29.2C-0.100019 29.8 -2.23517e-05 30.6 0.499978 31.1L9.99998 39.5C10.3 39.7 10.6 39.9 10.9 39.9C11.3 39.9 11.6 39.8 11.9 39.5C12.4 38.9 13 38.4 13.5 37.8C14 38.4 14.4 38.9 15 39.5L16.5 41.3C16.3 41.7 16.3 42.2 16.2 42.7C15.7 47.7 21.6 50.7 25.3 47.3L25.4 47.4C22.8 51.9 26.7 57.2 31.6 56.3C31.5 59.9 34.5 62.7 38 62.5C37.9 64.1 38.5 65.7 39.7 66.8C41.9 68.9 45.4 68.7 47.4 66.6L50 63.5ZM13.2 33.9C12.4 34.8 11.6 35.7 10.8 36.6L3.29998 29.9L22.1 3.70003L30.2 9.20003C26.6 16.3 20.8 25.2 13.2 33.9ZM24.4 44C23.7 44.8 23.4 45.3 22.5 45.6C20.6 46.3 18.7 44.8 18.9 42.8C19 41.7 19.5 41.3 20.5 40.2C22.1 38.5 25 39.6 25.1 42C25.1 42.8 24.9 43.5 24.4 44ZM31.5 53.3C30.4 53.7 29.1 53.5 28.2 52.6C26.9 51.4 26.9 49.4 28.1 48.1L31.4 44.5C32.6 43.2 34.6 43.2 35.8 44.4C37 45.5 37.1 47.6 35.9 48.9C32.4 52.8 32.4 52.9 31.5 53.3ZM39.4 58.9C37 60.8 33.6 58.5 34.5 55.5C34.6 55 34.9 54.6 35.2 54.2C38.7 50.3 38.6 50.4 39.2 50.1C40.4 49.4 41.9 49.6 42.9 50.5C44.2 51.7 44.2 53.7 43 55L39.4 58.9ZM41.5 64.6C40.7 63.9 40.5 62.8 40.8 61.8C41 61 41.4 60.8 41.7 60.5L44.4 57.6C44.8 57.3 45.2 57.2 45.6 57.1C48.1 56.7 49.7 59.7 47.9 61.6L45.2 64.5C44.3 65.5 42.6 65.7 41.5 64.6Z"
    fill="currentColor" />
</svg>
  