<svg xmlns="http://www.w3.org/2000/svg" fill="none" viewBox="0 0 96 115">
  <path stroke="currentcolor" stroke-linecap="round" stroke-linejoin="round" stroke-width="5" d="M47.986 3.015c-12.413 15.034-32.544 15.034-44.964 0H3V44.92C3 74.468 20.82 101.035 48 112c27.18-10.973 45-37.54 45-67.079V3h-.022c-12.412 15.05-32.544 15.05-44.964.007h-.036l.008.008Z"/>
  <path stroke="currentcolor" stroke-linecap="round" stroke-linejoin="round" stroke-width="5" d="M24.866 53.678v6.75c0 2.151-1.728 3.895-3.859 3.895v5.589c9.115 1.75 8.676 7.782 27 7.782 18.324 0 17.885-6.031 27-7.782v-5.589c-2.131 0-3.859-1.744-3.859-3.894v-6.751"/>
  <path stroke="currentcolor" stroke-linecap="round" stroke-linejoin="round" stroke-width="5" d="M71.148 53.692c0-11.343-8.02-20.775-18.64-22.89m-8.994 0c-10.627 2.115-18.648 11.547-18.648 22.89m50.141 10.631h-54"/>
  <path stroke="currentcolor" stroke-linecap="round" stroke-linejoin="round" stroke-width="5" d="M43.507 52.98V30.272c0-.858.483-1.65 1.246-2.035a7.245 7.245 0 0 1 6.516 0 2.274 2.274 0 0 1 1.245 2.035m-.007 22.708V30.272"/>
</svg>