<svg xmlns="http://www.w3.org/2000/svg" fill="none" viewBox="0 0 119 115">
  <path stroke="currentcolor" stroke-linecap="round" stroke-linejoin="round" stroke-width="5" d="M33.32 102.28h27.54c2.04 0 4-.78 5.46-2.19L83.6 85.64a3.64 3.64 0 0 0-1.2-6.02c-2.13-.82-4.35-.2-7.32 1.83l-14.2 9.33m-22.61 1.09 14.39.08a4.04 4.04 0 0 0-.45-8c-7.7 0-13.13-2.92-18.97-4.4-10.44-1.63-15.44 4.15-16.67 5.91M3.88 93.8l5.09-5.07a2.67 2.67 0 0 1 3.77 0l13.61 13.57a2.65 2.65 0 0 1 0 3.76l-5.08 5.06a2.67 2.67 0 0 1-3.77 0L3.88 97.56a2.65 2.65 0 0 1 0-3.76Zm81.81-81.09H58.15c-2.04 0-4 .78-5.47 2.2L35.41 29.34a3.64 3.64 0 0 0 1.2 6.02c2.13.82 4.34.2 7.31-1.83l14.21-9.32m22.61-1.08-14.4-.09a4.04 4.04 0 0 0 .46 8c7.7 0 13.12 2.93 18.96 4.4 10.45 1.63 15.44-4.14 16.68-5.9M92.65 8.95l5.08-5.07a2.67 2.67 0 0 1 3.77 0l13.62 13.56a2.65 2.65 0 0 1 0 3.76l-5.09 5.07a2.67 2.67 0 0 1-3.77 0L92.65 12.7a2.65 2.65 0 0 1 0-3.75Zm-12.1 43.23c0-6.1-4.35-11.03-10.75-11.03S60.14 46 59.02 49.7c-1.12-3.7-4.42-8.54-10.78-8.54-6.35 0-10.74 4.94-10.74 11.03h-.04c0 16.34 21.57 27.35 21.57 27.35s21.57-11 21.57-27.34h-.04l-.01-.01Zm8.05 24.9a36.12 36.12 0 0 0 7.14-21.6c0-4.74-.9-9.26-2.56-13.4m-64.84-6a36.13 36.13 0 0 0-5.62 19.4c0 6.29 1.6 12.2 4.42 17.37"/>
</svg>
