<svg xmlns="http://www.w3.org/2000/svg" fill="none" viewBox="0 0 90 109">
  <mask id="a" fill="#fff">
    <path d="M67.279 99.249c-6.171-4.302-10.21-11.38-10.786-18.921a2.863 2.863 0 0 0-2.374-2.602 2.865 2.865 0 0 0-3.104 1.65C46.686 89.01 39.77 97.38 31.02 103.579a2.142 2.142 0 0 0-.503 2.987 2.17 2.17 0 0 0 1.752.901 2.12 2.12 0 0 0 1.242-.4c7.55-5.355 13.963-12.374 18.534-20.294l.855-1.483.496 1.635c1.95 6.438 6.01 12.055 11.422 15.833a2.147 2.147 0 0 0 2.987-.53 2.135 2.135 0 0 0-.526-2.98Z"/>
  </mask>
  <path fill="currentcolor" stroke="currentcolor" stroke-width="2" d="M67.279 99.249c-6.171-4.302-10.21-11.38-10.786-18.921a2.863 2.863 0 0 0-2.374-2.602 2.865 2.865 0 0 0-3.104 1.65C46.686 89.01 39.77 97.38 31.02 103.579a2.142 2.142 0 0 0-.503 2.987 2.17 2.17 0 0 0 1.752.901 2.12 2.12 0 0 0 1.242-.4c7.55-5.355 13.963-12.374 18.534-20.294l.855-1.483.496 1.635c1.95 6.438 6.01 12.055 11.422 15.833a2.147 2.147 0 0 0 2.987-.53 2.135 2.135 0 0 0-.526-2.98Z" mask="url(#a)"/>
  <mask id="b" fill="#fff">
    <path d="M37.009 50.914c1.438-2.87 4.455-4.723 7.682-4.723 1.293 0 2.542.283 3.703.85 4.199 2.035 6.003 7.121 4.01 11.336a105.134 105.134 0 0 1-8.742 15.091 2.138 2.138 0 0 0 .54 2.98 2.14 2.14 0 0 0 2.987-.538 109.115 109.115 0 0 0 9.1-15.71c2.986-6.321.284-13.95-6.018-17.003a12.732 12.732 0 0 0-5.602-1.293c-4.907 0-9.31 2.725-11.509 7.106A78.402 78.402 0 0 1 5.9 79.536a2.137 2.137 0 0 0-.62 2.964 2.158 2.158 0 0 0 2.971.618A82.611 82.611 0 0 0 37.01 50.914Z"/>
  </mask>
  <path fill="currentcolor" stroke="currentcolor" stroke-width="2" d="M37.009 50.914c1.438-2.87 4.455-4.723 7.682-4.723 1.293 0 2.542.283 3.703.85 4.199 2.035 6.003 7.121 4.01 11.336a105.134 105.134 0 0 1-8.742 15.091 2.138 2.138 0 0 0 .54 2.98 2.14 2.14 0 0 0 2.987-.538 109.115 109.115 0 0 0 9.1-15.71c2.986-6.321.284-13.95-6.018-17.003a12.732 12.732 0 0 0-5.602-1.293c-4.907 0-9.31 2.725-11.509 7.106A78.402 78.402 0 0 1 5.9 79.536a2.137 2.137 0 0 0-.62 2.964 2.158 2.158 0 0 0 2.971.618A82.611 82.611 0 0 0 37.01 50.914Z" mask="url(#b)"/>
  <mask id="c" fill="#fff">
    <path d="M76.334 92.855c-9.69-6.78-13.795-19.241-9.983-30.293.68-1.97 1.403-4.36 1.403-7.833 0-12.68-10.356-22.998-23.092-22.998a23.088 23.088 0 0 0-15.43 5.893 2.131 2.131 0 0 0-.161 3.023c.409.45.986.712 1.599.712.533 0 1.037-.196 1.431-.552a18.791 18.791 0 0 1 12.561-4.796c10.363 0 18.79 8.4 18.79 18.718 0 2.82-.555 4.657-1.168 6.445-2.184 6.336-2.235 13.065-.132 19.459 2.104 6.401 6.15 11.836 11.707 15.724.365.254.788.392 1.234.392a2.135 2.135 0 0 0 1.234-3.887l.007-.007Z"/>
  </mask>
  <path fill="currentcolor" stroke="currentcolor" stroke-width="2" d="M76.334 92.855c-9.69-6.78-13.795-19.241-9.983-30.293.68-1.97 1.403-4.36 1.403-7.833 0-12.68-10.356-22.998-23.092-22.998a23.088 23.088 0 0 0-15.43 5.893 2.131 2.131 0 0 0-.161 3.023c.409.45.986.712 1.599.712.533 0 1.037-.196 1.431-.552a18.791 18.791 0 0 1 12.561-4.796c10.363 0 18.79 8.4 18.79 18.718 0 2.82-.555 4.657-1.168 6.445-2.184 6.336-2.235 13.065-.132 19.459 2.104 6.401 6.15 11.836 11.707 15.724.365.254.788.392 1.234.392a2.135 2.135 0 0 0 1.234-3.887l.007-.007Z" mask="url(#c)"/>
  <mask id="d" fill="#fff">
    <path d="M89.772 72.59a21.658 21.658 0 0 1-2.469-10.108c0-1.068.095-1.97.19-2.921.124-1.235.27-2.638.27-4.832a43.63 43.63 0 0 0-.584-7.114 2.138 2.138 0 0 0-2.118-1.787 2.145 2.145 0 0 0-2.125 2.492c.35 2.107.526 4.258.526 6.409 0 1.947-.139 3.284-.256 4.469-.102 1.039-.204 2.02-.204 3.284 0 4.2 1.022 8.378 2.95 12.076a2.146 2.146 0 0 0 2.892.916 2.135 2.135 0 0 0 .913-2.885h.014Z"/>
  </mask>
  <path fill="currentcolor" stroke="currentcolor" stroke-width="2" d="M89.772 72.59a21.658 21.658 0 0 1-2.469-10.108c0-1.068.095-1.97.19-2.921.124-1.235.27-2.638.27-4.832a43.63 43.63 0 0 0-.584-7.114 2.138 2.138 0 0 0-2.118-1.787 2.145 2.145 0 0 0-2.125 2.492c.35 2.107.526 4.258.526 6.409 0 1.947-.139 3.284-.256 4.469-.102 1.039-.204 2.02-.204 3.284 0 4.2 1.022 8.378 2.95 12.076a2.146 2.146 0 0 0 2.892.916 2.135 2.135 0 0 0 .913-2.885h.014Z" mask="url(#d)"/>
  <mask id="e" fill="#fff">
    <path d="M3.314 69.886c.328 0 .642-.073.942-.218 9.683-4.73 17.585-12.178 22.865-21.544a2.137 2.137 0 0 0-.825-2.914 2.143 2.143 0 0 0-1.052-.276 2.17 2.17 0 0 0-1.877 1.09c-4.849 8.603-12.115 15.448-21.01 19.793a2.14 2.14 0 0 0 .942 4.062l.015.007Z"/>
  </mask>
  <path fill="currentcolor" stroke="currentcolor" stroke-width="2" d="M3.314 69.886c.328 0 .642-.073.942-.218 9.683-4.73 17.585-12.178 22.865-21.544a2.137 2.137 0 0 0-.825-2.914 2.143 2.143 0 0 0-1.052-.276 2.17 2.17 0 0 0-1.877 1.09c-4.849 8.603-12.115 15.448-21.01 19.793a2.14 2.14 0 0 0 .942 4.062l.015.007Z" mask="url(#e)"/>
  <mask id="f" fill="#fff">
    <path d="M83.316 84.31c-4.52-4.186-7.113-10.137-7.113-16.32 0-2.413.365-4.07.752-5.828.445-2.027.906-4.12.906-7.746 0-18.441-14.89-33.439-33.192-33.439-12.838 0-24.325 7.31-29.977 19.074-2.637 5.486-7.442 9.671-13.19 11.488a2.142 2.142 0 1 0 1.293 4.084c6.872-2.173 12.62-7.172 15.767-13.719 4.93-10.267 14.934-16.64 26.1-16.64 15.935 0 28.89 13.08 28.89 29.16 0 3.219-.43 5.173-.855 7.062-.408 1.853-.796 3.597-.796 6.504 0 7.375 3.09 14.467 8.486 19.459.402.37.92.573 1.46.573.607 0 1.162-.24 1.578-.683a2.13 2.13 0 0 0-.11-3.022v-.007Z"/>
  </mask>
  <path fill="currentcolor" stroke="currentcolor" stroke-width="2" d="M83.316 84.31c-4.52-4.186-7.113-10.137-7.113-16.32 0-2.413.365-4.07.752-5.828.445-2.027.906-4.12.906-7.746 0-18.441-14.89-33.439-33.192-33.439-12.838 0-24.325 7.31-29.977 19.074-2.637 5.486-7.442 9.671-13.19 11.488a2.142 2.142 0 1 0 1.293 4.084c6.872-2.173 12.62-7.172 15.767-13.719 4.93-10.267 14.934-16.64 26.1-16.64 15.935 0 28.89 13.08 28.89 29.16 0 3.219-.43 5.173-.855 7.062-.408 1.853-.796 3.597-.796 6.504 0 7.375 3.09 14.467 8.486 19.459.402.37.92.573 1.46.573.607 0 1.162-.24 1.578-.683a2.13 2.13 0 0 0-.11-3.022v-.007Z" mask="url(#f)"/>
  <mask id="g" fill="#fff">
    <path d="M2.642 38.235a2.134 2.134 0 0 0 1.818.995 2.13 2.13 0 0 0 1.147-.334c3.023-1.911 5.623-4.425 7.726-7.47 7.296-10.543 19.01-16.835 31.336-16.835 15.607 0 29.635 9.823 35.733 25.024a2.13 2.13 0 0 0 1.994 1.344 2.14 2.14 0 0 0 1.994-2.936c-6.756-16.835-22.347-27.712-39.72-27.712-13.744 0-26.78 6.983-34.871 18.688-1.775 2.565-3.959 4.68-6.493 6.286-1 .632-1.3 1.961-.657 2.957l-.007-.007Z"/>
  </mask>
  <path fill="currentcolor" stroke="currentcolor" stroke-width="2" d="M2.642 38.235a2.134 2.134 0 0 0 1.818.995 2.13 2.13 0 0 0 1.147-.334c3.023-1.911 5.623-4.425 7.726-7.47 7.296-10.543 19.01-16.835 31.336-16.835 15.607 0 29.635 9.823 35.733 25.024a2.13 2.13 0 0 0 1.994 1.344 2.14 2.14 0 0 0 1.994-2.936c-6.756-16.835-22.347-27.712-39.72-27.712-13.744 0-26.78 6.983-34.871 18.688-1.775 2.565-3.959 4.68-6.493 6.286-1 .632-1.3 1.961-.657 2.957l-.007-.007Z" mask="url(#g)"/>
  <mask id="h" fill="#fff">
    <path d="m51.76 103.776.556.675a58.129 58.129 0 0 0 2.928 3.285c.409.428.957.661 1.548.661a2.144 2.144 0 0 0 1.548-3.626 53.647 53.647 0 0 1-4.535-5.37 2.508 2.508 0 0 0-1.986-1.01c-.782 0-1.534.364-2.008.967a57.618 57.618 0 0 1-5.368 5.958 2.144 2.144 0 0 0-.058 3.03c.409.421.956.654 1.548.654.591 0 1.088-.211 1.49-.596a61.329 61.329 0 0 0 3.76-3.96l.578-.661v-.007Z"/>
  </mask>
  <path fill="currentcolor" d="m51.76 103.776.556.675a58.129 58.129 0 0 0 2.928 3.285c.409.428.957.661 1.548.661a2.144 2.144 0 0 0 1.548-3.626 53.647 53.647 0 0 1-4.535-5.37 2.508 2.508 0 0 0-1.986-1.01c-.782 0-1.534.364-2.008.967a57.618 57.618 0 0 1-5.368 5.958 2.144 2.144 0 0 0-.058 3.03c.409.421.956.654 1.548.654.591 0 1.088-.211 1.49-.596a61.329 61.329 0 0 0 3.76-3.96l.578-.661v-.007Z"/>
  <path fill="currentcolor" d="M52.319 98.391v-.37h-1v.37h1Zm-.559 5.385.773-.635-1.773-2.159v2.794h1Zm.556.675-.773.635v.001l.773-.636Zm2.928 3.285.724-.691-.002-.001-.722.692Zm3.03.065-.69-.724-.002.002.693.722Zm.066-3.03.724-.69-.003-.003-.72.693Zm-4.535-5.37-.805.593.003.005.802-.598Zm-1.986-1.01.01-1h-.01v1Zm-2.008.967-.786-.619-.002.002.788.617Zm-5.368 5.958-.692-.721.692.721Zm-.058 3.03-.721.693.003.003.718-.696Zm3.038.058.692.722v-.001l-.692-.721Zm3.76-3.96-.753-.657-.001.001.755.656Zm.578-.661.753.657.246-.282v-.375h-1Zm-.773.627.555.676 1.545-1.269-.555-.676-1.545 1.269Zm.556.677a59.214 59.214 0 0 0 2.978 3.34l1.444-1.383a57.44 57.44 0 0 1-2.879-3.228l-1.544 1.271Zm2.976 3.339c.6.628 1.41.971 2.272.971v-2c-.32 0-.606-.122-.825-.352l-1.447 1.381Zm2.272.971a3.13 3.13 0 0 0 2.175-.874l-1.384-1.444a1.128 1.128 0 0 1-.79.318v2Zm2.172-.872a3.143 3.143 0 0 0 .1-4.444l-1.447 1.38c.44.461.419 1.186-.032 1.616l1.38 1.448Zm.097-4.447a52.649 52.649 0 0 1-4.454-5.274L53.003 100a54.663 54.663 0 0 0 4.617 5.466l1.44-1.387Zm-4.45-5.27a3.508 3.508 0 0 0-2.783-1.417l-.018 2c.47.005.919.235 1.19.603l1.61-1.186Zm-2.792-1.417c-1.084 0-2.127.5-2.794 1.348l1.571 1.237a1.575 1.575 0 0 1 1.223-.585v-2Zm-2.796 1.35a56.717 56.717 0 0 1-5.273 5.854l1.386 1.442a58.614 58.614 0 0 0 5.462-6.063l-1.575-1.233Zm-5.273 5.854a3.144 3.144 0 0 0-.086 4.444l1.441-1.386a1.144 1.144 0 0 1 .031-1.616l-1.386-1.442Zm-.083 4.447a3.135 3.135 0 0 0 2.266.958v-2c-.321 0-.61-.123-.83-.35l-1.436 1.392Zm2.266.958c.854 0 1.598-.314 2.182-.874l-1.385-1.444c-.219.21-.469.318-.797.318v2Zm2.182-.875a62.068 62.068 0 0 0 3.823-4.025l-1.509-1.312a60.042 60.042 0 0 1-3.7 3.895l1.386 1.442Zm3.822-4.023.577-.662-1.507-1.315-.577.662 1.507 1.315Zm.824-1.319v-.007h-2v.007h2Z" mask="url(#h)"/>
  <mask id="i" fill="#fff">
    <path d="M12.997 93.588a2.18 2.18 0 0 0 1.176-.348 89.649 89.649 0 0 0 32.454-37.617 2.138 2.138 0 0 0-1.06-2.841 2.153 2.153 0 0 0-2.848 1.054 85.429 85.429 0 0 1-30.898 35.821 2.137 2.137 0 0 0-.62 2.965 2.158 2.158 0 0 0 1.796.966Z"/>
  </mask>
  <path fill="currentcolor" stroke="currentcolor" stroke-width="2" d="M12.997 93.588a2.18 2.18 0 0 0 1.176-.348 89.649 89.649 0 0 0 32.454-37.617 2.138 2.138 0 0 0-1.06-2.841 2.153 2.153 0 0 0-2.848 1.054 85.429 85.429 0 0 1-30.898 35.821 2.137 2.137 0 0 0-.62 2.965 2.158 2.158 0 0 0 1.796.966Z" mask="url(#i)"/>
  <mask id="j" fill="#fff">
    <path d="M21.038 101.879c.46 0 .905-.145 1.278-.421a109.693 109.693 0 0 0 19.096-17.97c.76-.908.636-2.26-.277-3.015a2.149 2.149 0 0 0-1.373-.494c-.643 0-1.242.283-1.65.77A105.15 105.15 0 0 1 19.76 98.013a2.144 2.144 0 0 0-.453 2.994 2.126 2.126 0 0 0 1.73.865v.007Z"/>
  </mask>
  <path fill="currentcolor" stroke="currentcolor" stroke-width="2" d="M21.038 101.879c.46 0 .905-.145 1.278-.421a109.693 109.693 0 0 0 19.096-17.97c.76-.908.636-2.26-.277-3.015a2.149 2.149 0 0 0-1.373-.494c-.643 0-1.242.283-1.65.77A105.15 105.15 0 0 1 19.76 98.013a2.144 2.144 0 0 0-.453 2.994 2.126 2.126 0 0 0 1.73.865v.007Z" mask="url(#j)"/>
  <mask id="k" fill="#fff">
    <path d="M8.112 19.99c.394.355.905.552 1.438.552a2.19 2.19 0 0 0 1.6-.705c9.062-10.028 20.966-15.55 33.52-15.55 12.553 0 24.456 5.522 33.52 15.55.408.45.985.704 1.599.704.533 0 1.044-.196 1.438-.552.884-.792.95-2.143.16-3.023C71.5 6.024 58.458 0 44.678 0 30.897 0 17.854 6.024 7.966 16.966a2.132 2.132 0 0 0 .16 3.023h-.014Z"/>
  </mask>
  <path fill="currentcolor" stroke="currentcolor" stroke-width="2" d="M8.112 19.99c.394.355.905.552 1.438.552a2.19 2.19 0 0 0 1.6-.705c9.062-10.028 20.966-15.55 33.52-15.55 12.553 0 24.456 5.522 33.52 15.55.408.45.985.704 1.599.704.533 0 1.044-.196 1.438-.552.884-.792.95-2.143.16-3.023C71.5 6.024 58.458 0 44.678 0 30.897 0 17.854 6.024 7.966 16.966a2.132 2.132 0 0 0 .16 3.023h-.014Z" mask="url(#k)"/>
</svg>