<svg width="83" height="75" viewBox="0 0 83 75" fill="none" xmlns="http://www.w3.org/2000/svg">
  <path
    d="M80.4 3.50001C65.5 0.100014 50 1.43051e-05 36.7 3.20001C23.8 6.30001 13.7 13 8.20001 22C2.10001 32 2.69998 44.2 9.79998 53.2L9.90002 53.3C9.90002 53.4 10 53.4 10 53.5C6 59.5 2.7 65.9 0.100002 72.7C-0.199998 73.5 0.199996 74.3 0.999996 74.6C1.2 74.7 1.4 74.7 1.5 74.7C2.1 74.7 2.69999 74.3 2.89999 73.7C5.29999 67.4 8.39997 61.4 12.1 55.8C16.6 60.3 22.2 62.8 28.5 63.2C29.1 63.2 29.7 63.3 30.3 63.3C39.2 63.3 48.7 59.2 55.9 52C63.3 44.7 67.8 35.5 71.1 27.5C71.8 25.7 72.6 23.9 73.3 22.1C75.5 16.5 77.8 10.7 81.3 5.90001L82.6 4.10001L80.4 3.50001ZM70.5 20.9C69.8 22.7 69.1 24.5 68.4 26.2C65.1 34 60.8 42.8 53.8 49.8C46.8 56.7 37.2 60.7 28.7 60.2C22.9 59.8 17.8 57.4 13.8 53.2C14.9 51.7 15.9 50.2 17.1 48.7C19.4 49.8 25.1 52 32.5 52C33.6 52 34.8 51.9 36 51.8C36.8 51.7 37.4 51 37.3 50.2C37.2 49.4 36.5 48.8 35.7 48.9C28 49.6 21.8 47.5 19 46.3C22.5 42.1 26.4 38.2 30.6 34.5C32.5 35.3 37.2 37 44.1 37C47.5 37 51.4 36.6 55.8 35.5C56.6 35.3 57.1 34.5 56.9 33.7C56.7 32.9 55.9 32.4 55.1 32.6C44.5 35.3 36.7 33.5 33.2 32.3C38.4 28 44.1 24.1 50.3 20.5C51.4 20.8 54 21.4 57.3 21.4C57.9 21.4 58.5 21.4 59.1 21.3C59.9 21.2 60.5 20.5 60.5 19.7C60.4 18.9 59.7 18.2 58.9 18.3C57.3 18.4 55.7 18.3 54.4 18.2C58.4 16.1 62.6 14 67 12.2C67.8 11.9 68.1 11 67.8 10.2C67.5 9.40002 66.6 9.10001 65.8 9.40001C57.6 13 50 17 43.1 21.5C44 18.2 45.5 13.8 48.1 10.6C48.6 10 48.5 9.00001 47.9 8.50001C47.3 8.00001 46.3 8.10001 45.8 8.70001C41.9 13.5 40.2 20.5 39.5 23.9C33.6 28 28.3 32.4 23.5 37.1C23.4 32 24.3 24.6 29.5 17.6C30 16.9 29.8 16 29.2 15.5C28.5 15 27.6 15.2 27.1 15.8C20.4 25 20.2 34.7 20.8 40C19 41.9 17.3 43.9 15.7 45.9L15.6 46C14.3 47.6 13.1 49.2 11.9 50.9C6.00002 43 5.60002 32.4 10.9 23.6C16 15.3 25.4 9.00002 37.5 6.10002C49.7 3.20002 63.8 3.10001 77.6 6.00001C74.6 10.6 72.5 15.9 70.5 20.9Z"
    fill="currentColor" />
</svg>
  