<svg width="58" height="77" viewBox="0 0 58 77" fill="none" xmlns="http://www.w3.org/2000/svg">
  <path
    d="M47.9 7.70003C41.8 2.20003 33.9001 -0.299975 25.7001 0.600025C12.6001 2.10003 2.00004 12.8 0.50004 26C-0.59996 36 3.40005 45.7 11.2001 51.9C14.7001 54.7 16.8 59 16.8 63.7V65.2H39.5H41V63.7C41 59.1 43.1001 54.7 46.7001 51.8C53.5001 46.3 57.5 38.1 57.5 29.3C57.5 21 54 13.2 47.9 7.70003ZM44.9 49.5C40.9 52.7 38.5 57.3 38.1 62.3H19.8C19.4 57.3 17.0001 52.7 13.2001 49.7C6.20005 44.1 2.60005 35.5 3.60005 26.5C4.90005 14.6 14.4 5.10003 26.1 3.80003C33.4 3.00003 40.5 5.20003 46 10.1C51.5 15 54.6 22 54.6 29.4C54.5 37.2 51 44.5 44.9 49.5Z"
    fill="currentColor" />
  <path
    d="M38.4 68.1H19.6C18.8 68.1 18.1 68.8 18.1 69.6C18.1 70.4 18.8 71.1 19.6 71.1H38.4C39.2 71.1 39.9 70.4 39.9 69.6C39.9 68.8 39.2 68.1 38.4 68.1Z"
    fill="currentColor" />
  <path
    d="M33.8 73.3L33.1 74H24.9L24.2 73.3C23.6 72.7 22.7 72.7 22.1 73.3C21.5 73.9 21.5 74.8 22.1 75.4L23.7 77H34.4L36 75.4C36.6 74.8 36.6 73.9 36 73.3C35.3 72.7 34.4 72.8 33.8 73.3Z"
    fill="currentColor" />
  <path
    d="M45.6001 22.9L44.2001 23C44.0001 23 38.6001 23.4 34.0001 26.9C33.3001 27.4 33.2001 28.3 33.7001 29C34.2001 29.7 35.1001 29.8 35.8001 29.3C38.3001 27.4 41.2001 26.6 42.9001 26.3C42.9001 28.9 42.6001 34.4 39.4001 37.8C37.6001 39.8 35.0001 40.8 31.7001 40.9C31.6001 40.8 31.6001 40.6 31.5001 40.5V40.4C34.7001 26.5 26.7001 23.6 20.9001 21.5C18.3001 20.5 15.8001 19.6 14.9001 18L12.8001 14.2L12.1001 18.5C12.1001 18.6 12.0001 18.8 12.0001 19C9.40007 27.8 9.70006 34.4 12.8001 38.7C15.1001 42 18.9001 43.7 24.1001 44C24.1001 44 24.1001 44 24.2001 44C25.0001 44 25.7001 43.4 25.7001 42.6C25.7001 41.8 25.1001 41.1 24.3001 41C20.1001 40.8 17.0001 39.5 15.3001 37C13.0001 33.7 12.7001 28.6 14.4001 21.7C15.9001 22.8 17.9001 23.5 19.9001 24.3C25.2001 26.2 30.1001 28.1 29.2001 36.6C29.0001 36.4 28.8001 36.1 28.6001 35.9C25.8001 32.5 22.7001 30.6 22.6001 30.5C21.9001 30.1 21.0001 30.3 20.5001 31C20.1001 31.7 20.3001 32.6 21.0001 33.1C21.0001 33.1 23.8001 34.8 26.3001 37.9C29.5001 41.9 30.6001 46.1 29.8001 50.5C29.6001 51.3 30.2001 52.1 31.0001 52.3C31.1001 52.3 31.2001 52.3 31.3001 52.3C32.0001 52.3 32.6001 51.8 32.8001 51.1C33.3001 48.7 33.2001 46.3 32.7001 43.9C36.4001 43.7 39.4001 42.3 41.6001 39.9C46.7001 34.3 45.8001 24.9 45.7001 24.5L45.6001 22.9Z"
    fill="currentColor" />
</svg>
  