<svg xmlns="http://www.w3.org/2000/svg" width="85" height="73" viewBox="0 0 85 73" fill="none">
  <path
    d="M33.9 49.6L32.5 48.2C31.9 47.6 31 47.6 30.4 48.2C29.8 48.8 29.8 49.7 30.4 50.3L31.4 51.3V52.8C31.4 54.5 32 56.1 33 57.3L38.1 63.4C38.7 64.2 39.7 64.6 40.7 64.6C42.6 64.6 44.1 63.1 44.1 61.2V51.2C44.1 47.7 41.6 44.8 38.2 44.2L34.5 43.6C33.7 43.5 32.8999 44 32.7999 44.8C32.6999 45.6 33.2 46.4 34 46.5L37.7 47.1C39.7 47.4 41.1 49.1 41.1 51.1V61.2C41.1 61.4 40.9 61.6 40.7 61.6C40.6 61.6 40.5 61.6 40.4 61.5L35.2999 55.4C34.6999 54.7 34.4 53.8 34.4 52.8V50.6C34.3 50.3 34.1 49.9 33.9 49.6Z"
    fill="currentColor" />
  <path
    d="M84.2 36.8C84.2 28.7 81.5 21.2 77 15.2C76.9 15.1 76.9 15 76.8 14.9C70.2 6.19998 59.8 0.599976 48 0.599976C43 0.599976 38.1 1.59998 33.5 3.59998C32.7 3.89998 32.4 4.79998 32.7 5.59998C33 6.39998 33.9 6.69998 34.7 6.39998C38.9 4.49998 43.4 3.59998 48 3.59998C51.6 3.59998 55.1 4.19998 58.4 5.29998L49.3 6.19998C49.2 6.19998 49 6.19998 48.9 6.29998L42 8.99998C41.7 9.09998 41.4 9.39998 41.2 9.69998L38.6 15C37.9 16.4 36.5 17.2 35 17.2H34.3C33.5 17.2 32.8 17.9 32.8 18.7C32.8 19.5 33.5 20.2 34.3 20.2H35C37.7 20.2 40.1 18.7 41.3 16.3L43.7 11.6L49.9 9.09998L63.6 7.69998C63.8 7.69998 63.9 7.59998 64.1 7.59998C67.4 9.39998 70.3 11.7 72.8 14.4H56.6C56.4 14.4 56.1 14.5 55.9 14.6L52.6 16.3C50.6 17.3 49.7 19.6 50.5 21.6L52.9 27.9L50.6 27.5C47.8 27 45.2 28.6 44.3 31.3L43.9 32.6C43 35.4 43.9 38.5 46.2 40.3L49.6 43L50.6 52.4C50.9 54.9 54.4 56.2 56.2 56.2H59.2C63.1 56.2 64.1 52.9 64.6 51.1L66.2 45.4V45.3L67.6 38.4C67.7 37.9 67.5 37.4 67.2 37L63.8 33.6L64 33.1L70.9 36.5L76.3 40.6C77 41.1 77.9 41 78.4 40.3C78.9 39.6 78.8 38.7 78.1 38.2L72.6 34C72.5 33.9 72.5 33.9 72.4 33.9L64.1 29.7C63.4 29.3 62.5 29.6 62.1 30.4L60.7 33.2C60.4 33.8 60.5 34.5 61 34.9L64.6 38.5L63.4 44.6L61.8 50.2C61.1 52.7 60.5 53.1 59.3 53.1H56.3C55.3 53.1 53.8 52.3 53.6 52L52.5 42C52.5 41.6 52.3 41.2 51.9 41L48 37.9C46.7 36.8 46.1 35 46.7 33.4L47.1 32.1C47.5 30.8 48.8 30.1 50.1 30.3L54.9 31.1C55.4 31.2 56 31 56.3 30.6C56.6 30.2 56.7 29.6 56.5 29.1L53.2 20.3C53 19.7 53.2 19 53.8 18.7L56.8 17.2H75C78.9 22.7 81.2 29.3 81.2 36.5C81.2 39.7 80.8 42.8 79.9 45.8C75.8 60.2 62.7 70 48.1 70C29.8 70 14.9 55.1 14.9 36.8C14.9 31.7 16.1 26.7 18.3 22.1C18.7 21.4 18.4 20.5 17.6 20.1C16.9 19.7 16 20 15.6 20.8C13.1 25.8 11.9 31.2 11.9 36.8C11.9 42.2 13.1 47.3 15.2 51.9C13.2 51.7 10.4 51 8 48.8C5.2 46.2 3.79999 42.2 3.79999 36.8C3.79999 23.4 12.8 17.8 20.1 13.2C21.9 12.1 23.6 11 25 9.89997C25.2 10.5 25.3 11.1 25.5 11.8C28.1 21.5 33 39.6 20.8 49.5C20.2 50 20.1 51 20.6 51.6C20.9 52 21.3 52.1 21.8 52.1C22.1 52.1 22.5 52 22.7 51.8C36.3 40.6 31.1 21.3 28.3 11C27.9 9.39998 27.5 8.09998 27.3 7.09998C27.3 6.49998 27 5.99998 26.5 5.69998C25.9 5.39998 25.2 5.59998 24.7 5.99998C23.4 7.49998 21.1 8.89998 18.4 10.6C11 15.3 0.799988 21.7 0.799988 36.7C0.799988 43 2.6 47.8 6 50.9C9.9 54.5 14.8 54.9 16.8 54.9C23.1 65.7 34.7 72.9 48 72.9C64 72.9 78.2 62.2 82.7 46.8C83.8 43.6 84.2 40.2 84.2 36.8Z"
    fill="currentColor" />
</svg>