<svg xmlns="http://www.w3.org/2000/svg" fill="none" viewBox="0 0 115 114">
  <path stroke="currentcolor" stroke-linecap="round" stroke-linejoin="round" stroke-width="5" d="M50.69 50.26H40.46c-.93 0-1.7.75-1.7 1.68v37.13c0 .93.77 1.68 1.7 1.68H50.7c.94 0 1.7-.75 1.7-1.68V51.94a1.7 1.7 0 0 0-1.7-1.68Zm47.68 0H88.15c-.94 0-1.7.75-1.7 1.68v37.13c0 .93.76 1.68 1.7 1.68h10.22c.94 0 1.7-.75 1.7-1.68V51.94a1.7 1.7 0 0 0-1.7-1.68Zm-23.84 0H64.3c-.93 0-1.7.75-1.7 1.68v37.13c0 .93.77 1.68 1.7 1.68h10.23c.94 0 1.7-.75 1.7-1.68V51.94a1.7 1.7 0 0 0-1.7-1.68Zm-47.68 0H16.62c-.93 0-1.7.75-1.7 1.68v37.13c0 .93.77 1.68 1.7 1.68h10.23c.94 0 1.7-.75 1.7-1.68V51.94a1.7 1.7 0 0 0-1.7-1.68ZM110.3 97.5H4.7c-.94 0-1.7.75-1.7 1.69v10.13c0 .93.76 1.68 1.7 1.68h105.6c.93 0 1.7-.75 1.7-1.69V99.2a1.7 1.7 0 0 0-1.7-1.69ZM3 36.24c0-.92.66-2.07 1.47-2.54L56.04 3.36c.8-.48 2.12-.48 2.92 0l51.57 30.34a3.3 3.3 0 0 1 1.47 2.54v5.57a1.7 1.7 0 0 1-1.7 1.68H4.7A1.7 1.7 0 0 1 3 41.81v-5.57Z"/>
</svg>