<svg width="88" height="84" viewBox="0 0 88 84" fill="none" xmlns="http://www.w3.org/2000/svg">
  <path
    d="M67.4 27.3C65.2 23.2 60.2999 21.4 56.0999 23L45.1999 2.29999L44 5.29999C43.9 5.49999 34.8 27.9 18.8 36.3L8.80001 41.5C1.60001 45.3 -1.10006 54.2 2.59994 61.3C5.19994 66.3 10.2999 69.1 15.5999 69.1C16.9999 69.1 18.2999 68.9 19.6999 68.5L21.3 79.1C21.7 81.9 24.2 84 27 84C27.3 84 27.6 84 27.9 83.9C31 83.4 33.1999 80.5 32.6999 77.4L30.5 63.1L32.5 62.1C48.5 53.7 72 58.8 72.3 58.9L75.5 59.6L64.5999 38.9C68.2999 36.5 69.6 31.4 67.4 27.3ZM64.8 28.7C66.2 31.3 65.3999 34.6 63.1999 36.3L57.5999 25.7C60.2999 24.9 63.4 26.1 64.8 28.7ZM5.30001 60C2.30001 54.3 4.49992 47.2 10.1999 44.2L18.9 39.6L29.8 60.3L21.0999 64.9C15.3999 67.9 8.30001 65.7 5.30001 60ZM29.8 78C30 79.5 29 80.9 27.5 81.1C26 81.3 24.6 80.3 24.4 78.8L22.6999 67.5L27.8 64.8L29.8 78ZM32.5 59L21.5999 38.2C34.3999 30.7 42.5999 15.7 45.5999 9.29999L69.9 55.5C62.9 54.4 45.9 52.6 32.5 59Z"
    fill="currentColor" />
  <path
    d="M44.1 23.9C43.4 23.4 42.5 23.6 42 24.3C38.1 30.2 33.9 34.9 29.5 38.4C28.9 38.9 28.7 39.9 29.3 40.5C29.6 40.9 30 41.1 30.5 41.1C30.8 41.1 31.2 41 31.4 40.8C36.1 37.1 40.5 32.1 44.6 26C45 25.3 44.8 24.4 44.1 23.9Z"
    fill="currentColor" />
  <path
    d="M16 46.3L13.8001 47.4C12.3001 48.2 10.9001 49.2 9.80009 50.5C9.20009 51.1 9.30007 52.1 9.90007 52.6C10.2001 52.9 10.5001 53 10.9001 53C11.3001 53 11.7 52.8 12 52.5C12.9 51.5 13.9 50.7 15.1 50.1L17.3001 49C18.0001 48.6 18.3001 47.7 17.9001 47C17.7001 46.2 16.8 45.9 16 46.3Z"
    fill="currentColor" />
  <path
    d="M75.3 24.7C75.5 24.7 75.8 24.6 76 24.5L85.8 19.3C86.5 18.9 86.8 18 86.4 17.3C86 16.6 85.1 16.3 84.4 16.7L74.5999 21.9C73.8999 22.3 73.6 23.2 74 23.9C74.2 24.4 74.7 24.7 75.3 24.7Z"
    fill="currentColor" />
  <path
    d="M59.6 14.1C59.7 14.1 59.9 14.2 60 14.2C60.6 14.2 61.2001 13.8 61.4001 13.1L64.7 2.49998C64.9 1.69998 64.5 0.899978 63.7 0.599978C62.9 0.399978 62.1001 0.799978 61.8001 1.59998L58.5 12.2C58.4 13 58.9 13.9 59.6 14.1Z"
    fill="currentColor" />
  <path
    d="M86.4 43.5L75.8 40.2C75 40 74.2 40.4 73.9 41.2C73.7 42 74.1 42.8 74.9 43.1L85.4999 46.4C85.5999 46.4 85.8 46.5 85.9 46.5C86.5 46.5 87.1 46.1 87.3 45.4C87.6 44.6 87.2 43.8 86.4 43.5Z"
    fill="currentColor" />
</svg>
  