<svg xmlns="http://www.w3.org/2000/svg" fill="none" viewBox="0 0 127 74">
  <mask id="a" fill="#fff">
    <path d="M36.87 74a8.21 8.21 0 0 1 0-16.44 8.21 8.21 0 0 1 0 16.44Zm0-12.34a4.11 4.11 0 0 0 0 8.23 4.1 4.1 0 0 0 0-8.23Z"/>
  </mask>
  <path fill="currentcolor" stroke="currentcolor" stroke-width="2" d="M36.87 74a8.21 8.21 0 0 1 0-16.44 8.21 8.21 0 0 1 0 16.44Zm0-12.34a4.11 4.11 0 0 0 0 8.23 4.1 4.1 0 0 0 0-8.23Z" mask="url(#a)"/>
  <mask id="b" fill="#fff">
    <path d="M100.37 74a8.21 8.21 0 0 1 0-16.44 8.21 8.21 0 0 1 0 16.44Zm0-12.34a4.11 4.11 0 0 0 0 8.23 4.1 4.1 0 0 0 0-8.23Z"/>
  </mask>
  <path fill="currentcolor" stroke="currentcolor" stroke-width="2" d="M100.37 74a8.21 8.21 0 0 1 0-16.44 8.21 8.21 0 0 1 0 16.44Zm0-12.34a4.11 4.11 0 0 0 0 8.23 4.1 4.1 0 0 0 0-8.23Z" mask="url(#b)"/>
  <mask id="c" fill="#fff">
    <path d="M16.39 74a8.21 8.21 0 0 1 0-16.44 8.21 8.21 0 0 1 0 16.44Zm0-12.34a4.11 4.11 0 0 0 0 8.23 4.1 4.1 0 0 0 0-8.23Z"/>
  </mask>
  <path fill="currentcolor" stroke="currentcolor" stroke-width="2" d="M16.39 74a8.21 8.21 0 0 1 0-16.44 8.21 8.21 0 0 1 0 16.44Zm0-12.34a4.11 4.11 0 0 0 0 8.23 4.1 4.1 0 0 0 0-8.23Z" mask="url(#c)"/>
  <mask id="d" fill="#fff">
    <path d="M121.88 65.78h-5.47c-1.9 0-3.54-1.3-3.98-3.15a12.93 12.93 0 0 0-8.3-9.18h-92.9l-7.58 9.5c-.7.9-2 1.03-2.88.32-.89-.7-1.03-2-.32-2.89l8.2-10.27a2 2 0 0 1 1.59-.77h94.23c.2 0 .42.03.62.1a17.08 17.08 0 0 1 11.32 12.22h5.47c.56 0 1.02-.45 1.02-1.02V38.8c0-.79-.23-1.54-.64-2.2L110.7 18.34a4.06 4.06 0 0 0-3.45-1.9H94.23a2.05 2.05 0 0 1-2.05-2.05c0-1.14.91-2.06 2.05-2.06h13c2.82 0 5.4 1.42 6.92 3.81l11.57 18.24A8.25 8.25 0 0 1 127 38.8v21.84c0 2.83-2.3 5.14-5.12 5.14v-.01Z"/>
  </mask>
  <path fill="currentcolor" stroke="currentcolor" stroke-width="2" d="M121.88 65.78h-5.47c-1.9 0-3.54-1.3-3.98-3.15a12.93 12.93 0 0 0-8.3-9.18h-92.9l-7.58 9.5c-.7.9-2 1.03-2.88.32-.89-.7-1.03-2-.32-2.89l8.2-10.27a2 2 0 0 1 1.59-.77h94.23c.2 0 .42.03.62.1a17.08 17.08 0 0 1 11.32 12.22h5.47c.56 0 1.02-.45 1.02-1.02V38.8c0-.79-.23-1.54-.64-2.2L110.7 18.34a4.06 4.06 0 0 0-3.45-1.9H94.23a2.05 2.05 0 0 1-2.05-2.05c0-1.14.91-2.06 2.05-2.06h13c2.82 0 5.4 1.42 6.92 3.81l11.57 18.24A8.25 8.25 0 0 1 127 38.8v21.84c0 2.83-2.3 5.14-5.12 5.14v-.01Z" mask="url(#d)"/>

    <path d="M86.03 65.78H53.26c-.61 0-1.18-.27-1.58-.74L41.44 52.7a2.06 2.06 0 0 1 .27-2.9 2.04 2.04 0 0 1 2.88.26l9.63 11.6h31.82a2.05 2.05 0 1 1 0 4.1v.02Z"/>

  <path fill="currentcolor" stroke="currentcolor" stroke-width="2" d="M86.03 65.78H53.26c-.61 0-1.18-.27-1.58-.74L41.44 52.7a2.06 2.06 0 0 1 .27-2.9 2.04 2.04 0 0 1 2.88.26l9.63 11.6h31.82a2.05 2.05 0 1 1 0 4.1v.02Z" mask="url(#e)"/>

    <path d="M94.23 53.44a2.05 2.05 0 0 1-2.05-2.05V7.45a1 1 0 0 0-.3-.73l-3.2-3.2a2.05 2.05 0 1 1 2.9-2.91l3.2 3.2c.96.98 1.5 2.27 1.5 3.64V51.4c0 1.14-.91 2.05-2.05 2.05Z"/>

  <path fill="currentcolor" stroke="currentcolor" stroke-width="2" d="M94.23 53.44a2.05 2.05 0 0 1-2.05-2.05V7.45a1 1 0 0 0-.3-.73l-3.2-3.2a2.05 2.05 0 1 1 2.9-2.91l3.2 3.2c.96.98 1.5 2.27 1.5 3.64V51.4c0 1.14-.91 2.05-2.05 2.05Z" mask="url(#f)"/>

    <path d="M124.69 39.05h-20.22a4.11 4.11 0 0 1-4.1-4.11V24.67a4.11 4.11 0 0 1 4.1-4.12h11.35c1.13 0 2.06.92 2.06 2.05 0 1.14-.91 2.06-2.04 2.06h-11.37v10.27h20.22c1.13 0 2.04.92 2.04 2.06 0 1.13-.91 2.05-2.05 2.05v.01Z"/>

  <path fill="currentcolor" stroke="currentcolor" stroke-width="2" d="M124.69 39.05h-20.22a4.11 4.11 0 0 1-4.1-4.11V24.67a4.11 4.11 0 0 1 4.1-4.12h11.35c1.13 0 2.06.92 2.06 2.05 0 1.14-.91 2.06-2.04 2.06h-11.37v10.27h20.22c1.13 0 2.04.92 2.04 2.06 0 1.13-.91 2.05-2.05 2.05v.01Z" mask="url(#g)"/>

    <path d="M124.95 49.34h-4.1a2.05 2.05 0 0 1-2.04-2.06c0-1.13.91-2.05 2.04-2.05h4.1a2.05 2.05 0 1 1 0 4.1Z"/>

  <path fill="currentcolor" stroke="currentcolor" stroke-width="2" d="M124.95 49.34h-4.1a2.05 2.05 0 0 1-2.04-2.06c0-1.13.91-2.05 2.04-2.05h4.1a2.05 2.05 0 1 1 0 4.1Z" mask="url(#h)"/>

    <path d="M52.1 53.44a1.8 1.8 0 0 1-.84-.19L21 39.4a2.08 2.08 0 0 1-.71-.54L7.34 23.56a5 5 0 0 1-.4-5.96l9.93-15.47.14-.2A5.4 5.4 0 0 1 21.7.04l19.79 1.8a2 2 0 0 1 .76.23L72.51 17.9c.23.13.44.3.6.5l13.8 16.24a4.85 4.85 0 0 1 .44 5.71l-7.57 12.13a2.04 2.04 0 0 1-2.83.65 2.06 2.06 0 0 1-.64-2.83l7.57-12.13c.18-.29.15-.6-.08-.88L70.26 21.35 40.72 5.89 21.32 4.1c-.4-.04-.83.1-1.08.36l-9.85 15.35a.88.88 0 0 0 .08 1.07l12.65 14.95L52.96 49.5a2.06 2.06 0 0 1 1.02 2.72 2.04 2.04 0 0 1-1.87 1.2v.02Z"/>

  <path fill="currentcolor" stroke="currentcolor" stroke-width="2" d="M52.1 53.44a1.8 1.8 0 0 1-.84-.19L21 39.4a2.08 2.08 0 0 1-.71-.54L7.34 23.56a5 5 0 0 1-.4-5.96l9.93-15.47.14-.2A5.4 5.4 0 0 1 21.7.04l19.79 1.8a2 2 0 0 1 .76.23L72.51 17.9c.23.13.44.3.6.5l13.8 16.24a4.85 4.85 0 0 1 .44 5.71l-7.57 12.13a2.04 2.04 0 0 1-2.83.65 2.06 2.06 0 0 1-.64-2.83l7.57-12.13c.18-.29.15-.6-.08-.88L70.26 21.35 40.72 5.89 21.32 4.1c-.4-.04-.83.1-1.08.36l-9.85 15.35a.88.88 0 0 0 .08 1.07l12.65 14.95L52.96 49.5a2.06 2.06 0 0 1 1.02 2.72 2.04 2.04 0 0 1-1.87 1.2v.02Z" mask="url(#i)"/>

    <path d="M88.08 34.95a8.21 8.21 0 0 1 0-16.44 8.21 8.21 0 0 1 0 16.44Zm0-12.34a4.11 4.11 0 0 0 0 8.23 4.1 4.1 0 0 0 0-8.23Z"/>

  <path fill="currentcolor" stroke="currentcolor" stroke-width="2" d="M88.08 34.95a8.21 8.21 0 0 1 0-16.44 8.21 8.21 0 0 1 0 16.44Zm0-12.34a4.11 4.11 0 0 0 0 8.23 4.1 4.1 0 0 0 0-8.23Z" mask="url(#j)"/>

    <path d="M54.27 53.44a2.05 2.05 0 0 1-1.8-3.04l17.3-31.67c.54-1 1.78-1.36 2.77-.81 1 .54 1.36 1.79.81 2.78L56.07 52.37a2.04 2.04 0 0 1-1.8 1.07Z"/>

  <path fill="currentcolor" stroke="currentcolor" stroke-width="2" d="M54.27 53.44a2.05 2.05 0 0 1-1.8-3.04l17.3-31.67c.54-1 1.78-1.36 2.77-.81 1 .54 1.36 1.79.81 2.78L56.07 52.37a2.04 2.04 0 0 1-1.8 1.07Z" mask="url(#k)"/>
  <mask id="l" fill="#fff">
    <path d="M21.85 39.6a2.06 2.06 0 0 1-1.77-3.09L39.53 2.86a2.05 2.05 0 1 1 3.55 2.06L23.63 38.57a2.05 2.05 0 0 1-1.77 1.02h-.01Z"/>
  </mask>
  <path fill="currentcolor" stroke="currentcolor" stroke-width="2" d="M21.85 39.6a2.06 2.06 0 0 1-1.77-3.09L39.53 2.86a2.05 2.05 0 1 1 3.55 2.06L23.63 38.57a2.05 2.05 0 0 1-1.77 1.02h-.01Z" mask="url(#l)"/>
  <mask id="m" fill="#fff">
    <path d="M14.34 53.44a2.05 2.05 0 0 1-2.05-2.05V28.66a2.05 2.05 0 1 1 4.1 0v22.73c0 1.14-.92 2.05-2.05 2.05Z"/>
  </mask>
  <path fill="currentcolor" stroke="currentcolor" stroke-width="2" d="M14.34 53.44a2.05 2.05 0 0 1-2.05-2.05V28.66a2.05 2.05 0 1 1 4.1 0v22.73c0 1.14-.92 2.05-2.05 2.05Z" mask="url(#m)"/>
</svg>