<svg xmlns="http://www.w3.org/2000/svg" fill="none" viewBox="0 0 117 115">
  <path stroke="currentcolor" stroke-linecap="round" stroke-linejoin="round" stroke-width="5" d="M35.29 112c17.832 0 32.289-14.458 32.289-32.293s-14.457-32.293-32.29-32.293S3 61.872 3 79.707 17.456 112 35.29 112Z"/>
  <path stroke="currentcolor" stroke-linecap="round" stroke-linejoin="round" stroke-width="5" d="M45.374 72.636s0-7.063-10.092-7.063c-8.072 0-10.092 3.532-10.092 7.063 0 10.595 20.184 3.532 20.184 14.127 0 3.531-2.02 7.063-10.092 7.063-10.092 0-10.092-7.063-10.092-7.063m10.1-21.19V59.52m0 40.366v-6.053m50.453-66.606c15.606 0 28.257-5.423 28.257-12.114C114 8.424 101.349 3 85.743 3 70.138 3 57.487 8.423 57.487 15.114c0 6.69 12.65 12.113 28.256 12.113Z"/>
  <path stroke="currentcolor" stroke-linecap="round" stroke-linejoin="round" stroke-width="5" d="M114 15.114c0 6.685-12.65 12.113-28.257 12.113-15.607 0-28.256-5.42-28.256-12.114"/>
  <path stroke="currentcolor" stroke-linecap="round" stroke-linejoin="round" stroke-width="5" d="M114 15.114c0 6.685-12.65 12.113-28.257 12.113-15.607 0-28.256-5.42-28.256-12.114"/>
  <path stroke="currentcolor" stroke-linecap="round" stroke-linejoin="round" stroke-width="5" d="M57.487 27.22c0 6.685 12.65 12.113 28.256 12.113 15.607 0 28.257-5.42 28.257-12.113M57.487 39.333c0 6.686 12.65 12.114 28.256 12.114 15.607 0 28.257-5.421 28.257-12.114m0 12.114c0 6.685-12.65 12.113-28.257 12.113-5.216 0-10.084-.617-14.277-1.671M114 63.553c0 6.686-12.65 12.114-28.257 12.114-3.683 0-7.193-.313-10.419-.858m38.676.858c0 6.685-12.65 12.113-28.257 12.113-3.814 0-7.447-.327-10.76-.915M57.487 39.333V27.22m0 0V15.114M114 75.667V15.114"/>
</svg>