<svg xmlns="http://www.w3.org/2000/svg" fill="none" viewBox="0 0 134 114">
  <path stroke="currentcolor" stroke-linecap="round" stroke-linejoin="round" stroke-width="5" d="M126 3H8a5 5 0 0 0-5 5v75.3a5 5 0 0 0 5 5h118a5 5 0 0 0 5-5V8a5 5 0 0 0-5-5ZM50.1 111l2-22.4H82l2 22.3"/>
  <path stroke="currentcolor" stroke-linecap="round" stroke-linejoin="round" stroke-width="5" d="m100.5 66.6.1-.4v-.5l.1-.1V65l.2-.6s0 0 0 0v-1.6l.1-.3v-4.2l-.1-.6v-.3l-.1-.5v-.3l-.1-.5v-.3l-.1-.4 10.2-5-5.3-12.6-10.7 3.6-.3-.3-.1-.2-.4-.5-.1-.2-.4-.5-.1-.1-.4-.5s0 0 0 0l-.2-.2-.4-.4s0 0 0 0 0 0 0 0a12 12 0 0 0-.5-.6s0 0 0 0l-.5-.5-.1-.1-.4-.4-.2-.2-.4-.4-.2-.2-.4-.3-.3-.3-.3-.3-.3-.2-.3-.3-.3-.2-.1-.1-.2-.1v-.1a8 8 0 0 0-.5-.3l-.3-.2-.3-.3 3.7-10.6-12.7-5.3-5 10.1h-.9l-.4-.1h-.4s0 0 0 0l-.6-.2h-1.7l-.2-.1H64l-.6.1h-.2l-.6.1h-.2l-.6.1h-.2l-.2.1-5-10.1-12.8 5.2 3.7 10.6s0 0 0 0l-.3.3-.4.3s-.2 0-.3.2l-.4.3-.2.2c-.2 0-.3.2-.4.3l-.3.2a6.7 6.7 0 0 0-.6.5v.1l-.4.3-.2.2h-.1l-.3.4-.3.2-.3.3-.3.3-.3.3-.3.3-.2.3-.3.3-.2.3-.4.4-.2.2-.3.4s0 0 0 0l-.2.3-.3.4s0 0 0 0 0 0 0 0l-.4.5v.1h-.1l-10.7-3.6-5.4 12.6 10.2 5v.7l-.1.1v.5l-.1.2v.6l-.1.4v.8l-.1.4v3s0 0 0 0v.8s0 0 0 0v.7s0 0 0 0v.6l.1.4v.4l.1.4v.4l.1.5v.3s0 0 0 0"/>
  <path stroke="currentcolor" stroke-linecap="round" stroke-linejoin="round" stroke-width="5" d="m45 66.6-.7-3.8a22.6 22.6 0 0 1 20.8-24.3 22.6 22.6 0 0 1 23.8 28.1M5 75h124m-92.4 36h60.8"/>
</svg>