<svg width="85" height="85" viewBox="0 0 85 85" fill="none" xmlns="http://www.w3.org/2000/svg">
  <path
    d="M76.3 47C78.1 45.4 79.2 42.9 79.2 40.2V37.7C79.2 32.6 75.5 28.7 70.7 28.7C65.9 28.7 62.2 32.7 62.2 37.7V40.2C62.2 43 63.3 45.4 65.1 47C64.2 47.3 63.2 47.6 62.3 48C58.8 49.6 56.9 51.9 56.9 54.7C56.9 55.5 57.6 56.2 58.4 56.2C59.2 56.2 59.9 55.5 59.9 54.7C59.9 51.1 66.9 49.2 70.7 49.2C74.5 49.2 81.5 51.1 81.5 54.7C81.5 55.5 82.2 56.2 83 56.2C83.8 56.2 84.5 55.5 84.5 54.7C84.6 50.4 80.4 48.1 76.3 47ZM65.3 37.6C65.3 34.2 67.7 31.6 70.8 31.6C73.9 31.6 76.3 34.2 76.3 37.6V40.1C76.3 43.5 73.9 46.1 70.8 46.1C67.7 46.1 65.3 43.5 65.3 40.1V37.6Z"
    fill="currentColor" />
  <path
    d="M76.3 75C78.1 73.4 79.2 70.9 79.2 68.1V65.6C79.2 60.5 75.5 56.6 70.7 56.6C65.9 56.6 62.2 60.6 62.2 65.6V68.1C62.2 70.9 63.3 73.3 65.1 75C61 76.1 56.9 78.5 56.9 82.7C56.9 83.5 57.6 84.2 58.4 84.2C59.2 84.2 59.9 83.5 59.9 82.7C59.9 79.1 66.9 77.2 70.7 77.2C74.5 77.2 81.5 79.1 81.5 82.7C81.5 83.5 82.2 84.2 83 84.2C83.8 84.2 84.5 83.5 84.5 82.7C84.6 78.5 80.4 76.1 76.3 75ZM65.3 65.7C65.3 62.3 67.7 59.7 70.8 59.7C73.9 59.7 76.3 62.3 76.3 65.7V68.2C76.3 71.6 73.9 74.2 70.8 74.2C67.7 74.2 65.3 71.6 65.3 68.2V65.7Z"
    fill="currentColor" />
  <path
    d="M58.5 28.1C59.3 28.1 60 27.4 60 26.6C60 23 67 21.1 70.8 21.1C74.6 21.1 81.6 23 81.6 26.6C81.6 27.4 82.3 28.1 83.1 28.1C83.9 28.1 84.6 27.4 84.6 26.6C84.6 22.4 80.5 20.1 76.4 18.9C78.2 17.3 79.3 14.8 79.3 12.1V9.59998C79.3 4.49998 75.6 0.599976 70.8 0.599976C66 0.599976 62.3 4.59998 62.3 9.59998V12.1C62.3 14.9 63.4 17.3 65.2 18.9C64.3 19.2 63.3 19.5 62.4 19.9C58.9 21.5 57 23.8 57 26.6C57 27.4 57.7 28.1 58.5 28.1ZM65.3 9.59998C65.3 6.19998 67.7 3.59998 70.8 3.59998C73.9 3.59998 76.3 6.19998 76.3 9.59998V12.1C76.3 15.5 73.9 18.1 70.8 18.1C67.7 18.1 65.3 15.5 65.3 12.1V9.59998Z"
    fill="currentColor" />
  <path
    d="M20.3 47C22.1 45.4 23.2 42.9 23.2 40.2V37.7C23.2 32.6 19.5 28.7 14.7 28.7C9.90001 28.7 6.20001 32.7 6.20001 37.7V40.2C6.20001 43 7.29998 45.4 9.09998 47C8.19998 47.3 7.19999 47.6 6.29999 48C2.79999 49.6 0.900024 51.9 0.900024 54.7C0.900024 55.5 1.60002 56.2 2.40002 56.2C3.20002 56.2 3.90002 55.5 3.90002 54.7C3.90002 51.1 10.9 49.2 14.7 49.2C18.5 49.2 25.5 51.1 25.5 54.7C25.5 55.5 26.2 56.2 27 56.2C27.8 56.2 28.5 55.5 28.5 54.7C28.5 50.4 24.3 48.1 20.3 47ZM9.20001 40.1V37.6C9.20001 34.2 11.6 31.6 14.7 31.6C17.8 31.6 20.2 34.2 20.2 37.6V40.1C20.2 43.5 17.8 46.1 14.7 46.1C11.6 46.1 9.20001 43.5 9.20001 40.1Z"
    fill="currentColor" />
  <path
    d="M42.7 15.8H53.2C54 15.8 54.7 15.1 54.7 14.3C54.7 13.5 54 12.8 53.2 12.8H42.7C40.9 12.8 39.5 14.3 39.5 16V40.8H30.5C29.7 40.8 29 41.5 29 42.3C29 43.1 29.7 43.8 30.5 43.8H39.5V68.6C39.5 70.4 41 71.8 42.7 71.8H53.2C54 71.8 54.7 71.1 54.7 70.3C54.7 69.5 54 68.8 53.2 68.8H42.7C42.6 68.8 42.4 68.7 42.4 68.5V43.7H53.2C54 43.7 54.7 43 54.7 42.2C54.7 41.4 54 40.7 53.2 40.7H42.4V15.9C42.5 15.9 42.6 15.8 42.7 15.8Z"
    fill="currentColor" />
</svg>
  