<svg xmlns="http://www.w3.org/2000/svg" fill="none" viewBox="0 0 115 134">
  <path stroke="currentcolor" stroke-linecap="round" stroke-linejoin="round" stroke-width="5" d="M57.7 15.4A18.1 18.1 0 0 0 39.2 33c-.1 5.1 2 8.8 4.8 12.7 2.5 3.3 4.3 3.7 5.3 8.7m8.4-39A18.1 18.1 0 0 1 76.2 33c.1 5.1-2 8.8-4.8 12.7-2.5 3.3-4.7 3.7-5.7 8.7m0 .1h0-16.1m8.1 12.3H62l3.7-6.1v-6.2"/>
  <path stroke="currentcolor" stroke-linecap="round" stroke-linejoin="round" stroke-width="5" d="M63.4 25a9.8 9.8 0 0 1 4.8 6.6M49.3 54.5v6.2l4 6.1h4.2m0 25.1V131m0-39.1L20 73m37.5 18.9-13.3 18.9-37.5-19L20 73m37.5 18.9 13 19 37.5-19L95 73M57.5 91.9 95 73m-37.5 58L20 112.1V99.8M57.5 131 95 112.1V99.8M26.8 33.9H31m4.8 21.8 2.9-2.9m40.5 2.9-2.9-2.9m11.9-18.9H84M41.1 62.4 20 73m7.9-25.2L3 60.3 20 73m67.1-25.2L112 60.3 95 73m0 0L73.9 62.4M79.2 12l-2.9 3m-40.5-3 2.9 3M57.5 3v4.1"/>
</svg>