<svg width="87" height="85" viewBox="0 0 87 85" fill="none" xmlns="http://www.w3.org/2000/svg">
  <path
    d="M86.4 45.8L76.8 31.9L76.7 31.8C76.7 31.8 76.7 31.7 76.6 31.7L76.5 31.6L76.4 31.5C76.4 31.5 76.3 31.5 76.3 31.4C76.3 31.4 76.2 31.4 76.2 31.3L57.9 25.2C57.1 24.9 56.3 25.4 56 26.1C55.7 26.9 56.2 27.7 56.9 28L71.5 32.9L44.9 44.5L16.6 32.8L31.1 28C31.9 27.7 32.3 26.9 32 26.1C31.7 25.3 30.9 24.9 30.1 25.2L11.8 31.3C11.8 31.3 11.8 31.3 11.7 31.3C11.7 31.3 11.6 31.3 11.6 31.4H11.5C11.5 31.4 11.5 31.4 11.4 31.4L11.3 31.5C11.3 31.5 11.3 31.5 11.2 31.5L11.1 31.6L11 31.7L0.299988 45.7L10.7 50.6V68.2L44.9 84.3L77.1 68.2V50.4L86.4 45.8ZM55.8 57.8L47.2 46.8L75.1 34.6L82.1 44.7L55.8 57.8ZM12.6 34.6L42.5 46.9L34.6 58.7L12.9 48.5C12.8 48.4 12.7 48.4 12.6 48.4L4.79999 44.7L12.6 34.6ZM13.6 52.1L35.7 62.5L43.3 51.1V80.3L13.6 66.3V52.1ZM74 66.4L46.2 80.3V50.5L54.9 61.5L74 52V66.4Z"
    fill="currentColor" />
  <path
    d="M43.8 35.4L52.6 26.5C53.2 25.9 53.2 25 52.6 24.4C52 23.8 51.1 23.8 50.5 24.4L45.3 29.7V14C45.3 13.2 44.6 12.5 43.8 12.5C43 12.5 42.3 13.2 42.3 14V29.6L37.1 24.3C36.5 23.7 35.6 23.7 35 24.3C34.4 24.9 34.4 25.8 35 26.4L43.8 35.4Z"
    fill="currentColor" />
  <path
    d="M43.8 10.4C44.6 10.4 45.3 9.69999 45.3 8.89999V2.10001C45.3 1.30001 44.6 0.600006 43.8 0.600006C43 0.600006 42.3 1.30001 42.3 2.10001V8.89999C42.3 9.69999 43 10.4 43.8 10.4Z"
    fill="currentColor" />
  <path
    d="M51 21.1C51.8 21.1 52.5 20.4 52.5 19.6V13.1C52.5 12.3 51.8 11.6 51 11.6C50.2 11.6 49.5 12.3 49.5 13.1V19.6C49.5 20.5 50.2 21.1 51 21.1Z"
    fill="currentColor" />
  <path
    d="M51 8.2C51.8 8.2 52.5 7.5 52.5 6.7V5C52.5 4.2 51.8 3.5 51 3.5C50.2 3.5 49.5 4.2 49.5 5V6.7C49.5 7.5 50.2 8.2 51 8.2Z"
    fill="currentColor" />
  <path
    d="M36.7 21.1C37.5 21.1 38.2 20.4 38.2 19.6V16.2C38.2 15.4 37.5 14.7 36.7 14.7C35.9 14.7 35.2 15.4 35.2 16.2V19.6C35.2 20.5 35.9 21.1 36.7 21.1Z"
    fill="currentColor" />
  <path
    d="M36.7 11.3C37.5 11.3 38.2 10.6 38.2 9.8V8.10001C38.2 7.30001 37.5 6.60001 36.7 6.60001C35.9 6.60001 35.2 7.30001 35.2 8.10001V9.8C35.2 10.6 35.9 11.3 36.7 11.3Z"
    fill="currentColor" />
</svg>
  