<svg width="18" height="24" viewBox="0 0 18 24" fill="none" xmlns="http://www.w3.org/2000/svg">
  <path d="M17.2969 4.59375C17.7188 5.01562 18 5.625 18 6.1875V21.75C18 23.0156 16.9688 24 15.75 24H2.25C0.984375 24 0 23.0156 0 21.75V2.25C0 1.03125 0.984375 0 2.25 0H11.8125C12.375 0 12.9844 0.234375 13.4062 0.65625L17.2969 4.59375ZM15.5625 6L12 2.4375V6H15.5625ZM2.25 21.75H15.75V8.25H10.875C10.2188 8.25 9.75 7.78125 9.75 7.125V2.25H2.25V21.75ZM13.9688 15.0469C14.4375 15.5156 14.3438 16.8281 13.125 16.8281C12.4219 16.8281 11.3906 16.5469 10.5 16.0312C9.51562 16.2188 8.34375 16.6406 7.3125 17.0156C4.96875 21.0469 3.60938 19.2188 3.75 18.4688C3.9375 17.5312 5.20312 16.7812 6.14062 16.3125C6.60938 15.4219 7.3125 13.9219 7.78125 12.7969C7.45312 11.4844 7.26562 10.4062 7.45312 9.65625C7.6875 8.8125 9.28125 8.71875 9.46875 9.9375C9.70312 10.6406 9.375 11.8125 9.23438 12.5625C9.60938 13.5469 10.125 14.25 10.9219 14.7188C11.7656 14.625 13.4062 14.4844 13.9688 15.0469ZM4.6875 18.7031C4.6875 18.7031 5.20312 18.4688 6.09375 17.0625C5.8125 17.2969 4.92188 18.0469 4.6875 18.7031ZM8.48438 9.75C8.39062 9.75 8.39062 11.0156 8.57812 11.6719C8.8125 11.25 8.85938 9.75 8.48438 9.75ZM7.35938 16.1719C8.10938 15.8438 8.95312 15.4688 9.9375 15.2344C9.375 14.8594 8.90625 14.2969 8.53125 13.5938C8.20312 14.4375 7.82812 15.375 7.35938 16.1719ZM13.5 15.9375C13.6875 15.7969 13.4062 15.4219 11.7656 15.5625C13.2656 16.2188 13.5 15.9375 13.5 15.9375Z" fill="currentColor"/>
</svg>
