<svg width="83" height="81" viewBox="0 0 83 81" fill="none" xmlns="http://www.w3.org/2000/svg">
  <path
    d="M51.2 34.1C46.7 35.4 43.4 39.3 42.8 43.9C42.7 44.7 43.2 45.5 44.1 45.6C44.2 45.6 44.2 45.6 44.3 45.6C45 45.6 45.7 45.1 45.8 44.3C46.3 40.9 48.8 38 52.1 37C52.9 36.8 53.3 35.9 53.1 35.1C52.8 34.3 52 33.9 51.2 34.1Z"
    fill="currentColor" />
  <path
    d="M82 69.1L69.9 57C72.3 53.8 73.7 49.9 73.7 45.6C73.7 35.1 65.2 26.6 54.7 26.6C44.2 26.6 35.7 35.1 35.7 45.6C35.7 56.1 44.2 64.6 54.7 64.6C59.9 64.6 64.5 62.5 68 59.2L80 71.2C80.3 71.5 80.7 71.6 81.1 71.6C81.5 71.6 81.9 71.5 82.2 71.2C82.6 70.7 82.6 69.7 82 69.1ZM54.6 61.7C45.8 61.7 38.6 54.5 38.6 45.7C38.6 36.9 45.8 29.7 54.6 29.7C63.4 29.7 70.6 36.9 70.6 45.7C70.7 54.5 63.5 61.7 54.6 61.7Z"
    fill="currentColor" />
  <path
    d="M56.4 68.7C55.6 68.7 54.9 69.4 54.9 70.2V77.5H3.5V3.40002H47L54.9 11.3V21.2C54.9 22 55.6 22.7 56.4 22.7C57.2 22.7 57.9 22 57.9 21.2V10L48.2 0.400024H0.5V80.5H57.8V70.2C57.9 69.4 57.2 68.7 56.4 68.7Z"
    fill="currentColor" />
  <path
    d="M30.1 40.6H12.6C11.8 40.6 11.1 41.3 11.1 42.1C11.1 42.9 11.8 43.6 12.6 43.6H30.1C30.9 43.6 31.6 42.9 31.6 42.1C31.6 41.3 30.9 40.6 30.1 40.6Z"
    fill="currentColor" />
  <path
    d="M31.6 49.1C31.6 48.3 30.9 47.6 30.1 47.6H12.6C11.8 47.6 11.1 48.3 11.1 49.1C11.1 49.9 11.8 50.6 12.6 50.6H30.1C30.9 50.6 31.6 50 31.6 49.1Z"
    fill="currentColor" />
  <path
    d="M12.5 54.7C11.7 54.7 11 55.4 11 56.2C11 57 11.7 57.7 12.5 57.7H21.3C22.1 57.7 22.8 57 22.8 56.2C22.8 55.4 22.1 54.7 21.3 54.7H12.5Z"
    fill="currentColor" />
  <path
    d="M44.1 5.60004C43.3 5.60004 42.6 6.30004 42.6 7.10004V15.6H51.1C51.9 15.6 52.6 14.9 52.6 14.1C52.6 13.3 51.9 12.6 51.1 12.6H45.6V7.10004C45.6 6.20004 44.9 5.60004 44.1 5.60004Z"
    fill="currentColor" />
  <path
    d="M26.2 25.6001C27.4 24.3001 28.1 22.4 28.1 20.3V18.3C28.1 14.1 25.1 10.8 21.3 10.8C17.5 10.8 14.5 14.1 14.5 18.3V20.3C14.5 22.4 15.2 24.2001 16.4 25.6001C13.1 26.7001 11 28.9001 11 31.6001C11 32.4001 11.7 33.1001 12.5 33.1001C13.3 33.1001 14 32.4001 14 31.6001C14 29.8001 16.9 27.8 21.3 27.8C25.6 27.8 28.6 29.7001 28.6 31.6001C28.6 32.4001 29.3 33.1001 30.1 33.1001C30.9 33.1001 31.6 32.4001 31.6 31.6001C31.6 28.9001 29.4 26.7001 26.2 25.6001ZM17.6 20.3V18.3C17.6 15.8 19.3 13.8 21.4 13.8C23.5 13.8 25.2 15.8 25.2 18.3V20.3C25.2 22.8 23.5 24.8 21.4 24.8C19.2 24.9 17.6 22.9 17.6 20.3Z"
    fill="currentColor" />
</svg>
  