<svg width="78" height="78" viewBox="0 0 78 78" fill="none" xmlns="http://www.w3.org/2000/svg">
  <path
    d="M39 77.3C17.8 77.3 0.5 60 0.5 38.8C0.5 17.6 17.8 0.299988 39 0.299988C60.2 0.299988 77.5 17.6 77.5 38.8C77.5 60 60.2 77.3 39 77.3ZM39 3.29999C19.4 3.29999 3.5 19.2 3.5 38.8C3.5 58.4 19.4 74.3 39 74.3C58.6 74.3 74.5 58.4 74.5 38.8C74.5 19.2 58.6 3.29999 39 3.29999Z"
    fill="currentColor" />
  <path
    d="M39 40.3C32.4 40.3 27.4 35.3 27.4 28.7V23.7C27.4 17.1 32.4 12.1 39 12.1C45.6 12.1 50.6 17.1 50.6 23.7V28.7C50.6 35.4 45.6 40.3 39 40.3ZM39 15.1C34 15.1 30.4 18.7 30.4 23.7V28.7C30.4 33.7 34 37.3 39 37.3C44 37.3 47.6 33.7 47.6 28.7V23.7C47.6 18.7 44 15.1 39 15.1Z"
    fill="currentColor" />
  <path
    d="M59.2 65.6C58.4 65.6 57.7 64.9 57.7 64.1V55.7C57.7 49.4 45.4 45.4 39 45.4C32.6 45.4 20.3 49.4 20.3 55.7V64.1C20.3 64.9 19.6 65.6 18.8 65.6C18 65.6 17.3 64.9 17.3 64.1V55.7C17.3 51.8 20.2 48.3 25.7 45.7C29.8 43.8 35 42.5 39 42.5C43 42.5 48.2 43.8 52.3 45.7C57.8 48.3 60.7 51.8 60.7 55.7V64.1C60.6 64.9 60 65.6 59.2 65.6Z"
    fill="currentColor" />
</svg>
  