<svg width="81" height="85" viewBox="0 0 81 85" fill="none" xmlns="http://www.w3.org/2000/svg">
  <path
    d="M80.8 62.5C80.6 61.7 79.8 61.2 79 61.4L71.9 63.3C74.6 58 76 52.2 76 46.2C76 29.1 64.5 14 48 9.60001C47.2 9.40001 46.4 9.90001 46.2 10.7C46 11.5 46.5 12.3 47.3 12.5C62.5 16.6 73.1 30.5 73.1 46.3C73.1 51.7 71.8 57 69.5 61.8L67.6 54.9C67.4 54.1 66.6 53.6 65.8 53.8C65 54 64.5 54.8 64.7 55.6L67.9 67.5L79.8 64.3C80.6 64.1 81.1 63.3 80.8 62.5Z"
    fill="currentColor" />
  <path
    d="M5.60001 59.4C3.90001 55.2 3 50.8 3 46.3C3 27 18.7 11.3 38 11.3H38.2L33.1 16.4C32.5 17 32.5 17.9 33.1 18.5C33.4 18.8 33.8 18.9 34.2 18.9C34.6 18.9 35 18.8 35.3 18.5L44 9.80003L35.3 1.10002C34.7 0.500024 33.8 0.500024 33.2 1.10002C32.6 1.70002 32.6 2.60002 33.2 3.20002L38.3 8.30003H38C17.1 8.30003 0 25.3 0 46.3C0 51.2 0.899988 56 2.79999 60.6C2.99999 61.2 3.60001 61.5 4.20001 61.5C4.40001 61.5 4.59999 61.5 4.79999 61.4C5.59999 61 5.90001 60.1 5.60001 59.4Z"
    fill="currentColor" />
  <path
    d="M64.1 69.6C57.5 77 48 81.2 38.1 81.2C27 81.2 16.7 76 10.1 67.2L17.8 68C18.6 68.1 19.4 67.5 19.4 66.7C19.5 65.9 18.9 65.1 18.1 65.1L5.79999 63.8L4.70001 76.3C4.60001 77.1 5.20001 77.9 6.10001 77.9H6.20001C7.00001 77.9 7.60001 77.3 7.70001 76.5L8.29999 69.7C15.5 78.8 26.4 84.2 38.1 84.2C48.9 84.2 59.2 79.6 66.4 71.6C67 71 66.9 70 66.3 69.5C65.6 68.9 64.6 69 64.1 69.6Z"
    fill="currentColor" />
  <path
    d="M13.5 46.2C13.5 59.7 24.5 70.7 38 70.7C51.5 70.7 62.5 59.7 62.5 46.2C62.5 32.7 51.5 21.7 38 21.7C24.5 21.7 13.5 32.7 13.5 46.2ZM28 65.3V59.7C28 55.5 34 53.5 38 53.5C42 53.5 48 55.5 48 59.7V65.3C45 66.9 41.6 67.8 38 67.8C34.4 67.8 31 66.9 28 65.3ZM31.9 44.6V42.1C31.9 38.7 34.5 36.2 38.1 36.2C41.7 36.2 44.3 38.7 44.3 42.1V44.6C44.3 48 41.7 50.5 38.1 50.5C34.5 50.5 31.9 48 31.9 44.6ZM38 24.7C49.9 24.7 59.5 34.4 59.5 46.2C59.5 53.2 56.1 59.4 51 63.3V59.6C51 55.5 47.9 52.8 43.9 51.4C45.9 49.8 47.1 47.3 47.1 44.5V42C47.1 36.9 43.2 33.1 37.9 33.1C32.7 33.1 28.7 36.9 28.7 42V44.5C28.7 47.3 29.9 49.8 31.9 51.4C27.9 52.8 24.8 55.5 24.8 59.6V63.3C19.6 59.4 16.3 53.2 16.3 46.2C16.5 34.3 26.2 24.7 38 24.7Z"
    fill="currentColor" />
</svg>