<svg width="77" height="75" viewBox="0 0 77 75" fill="none" xmlns="http://www.w3.org/2000/svg">
  <path
    d="M44.6 44C44.3 44 43.9 43.9 43.6 43.8C42.3 43.4 41.4 42.1 41.4 40.7V32H37.8C35.1 32 32.9 29.8 32.9 27.1V5C32.9 2.3 35.1 0.100006 37.8 0.100006H71.9C74.6 0.100006 76.8 2.3 76.8 5V27.2C76.8 29.4 75.4 31.2 73.4 31.9V32.2H55.6L47.2 42.8C46.6 43.6 45.7 44 44.6 44ZM37.8 3C36.7 3 35.9 3.89999 35.9 4.89999V27.1C35.9 28.2 36.8 29 37.8 29H44.4V40.7C44.4 40.8 44.4 40.9 44.6 40.9C44.7 40.9 44.8 40.9 44.8 40.8L54.1 29H71.9C73 29 73.8 28.1 73.8 27.1V5C73.8 3.9 72.9 3.10001 71.9 3.10001H37.8V3Z"
    fill="currentColor" />
  <path
    d="M66.8 13.3H42.9C42.1 13.3 41.4 12.6 41.4 11.8C41.4 11 42.1 10.3 42.9 10.3H66.8C67.6 10.3 68.3 11 68.3 11.8C68.3 12.6 67.6 13.3 66.8 13.3Z"
    fill="currentColor" />
  <path
    d="M60 20.1H42.9C42.1 20.1 41.4 19.4 41.4 18.6C41.4 17.8 42.1 17.1 42.9 17.1H60C60.8 17.1 61.5 17.8 61.5 18.6C61.5 19.4 60.8 20.1 60 20.1Z"
    fill="currentColor" />
  <path
    d="M58.2 74.9H57.4C54.3 74.7 38.1 73 20.2 55.1C2.30003 37.2 0.600024 21 0.400024 17.9V17.1L1.10002 16.6C6.60002 12.8 11.2 11.3 14.8 10.4L15.6 10.2L16.2 10.8C20.2 14.9 24 20.6 26.2 25.7L26.6 26.6L20.5 32.7C21.2 34.6 23.4 39.6 29.5 45.7C35.6 51.8 40.6 54 42.5 54.7L48.6 48.6L49.5 49C54.6 51.2 60.4 55 64.4 59L65 59.6L64.8 60.4C63.8 64.1 62.3 68.6 58.6 74.1L58.2 74.9ZM3.50002 18.6C4.90002 35.1 20.5 51.2 22.3 53C24.1 54.8 40.2 70.4 56.7 71.8C59.6 67.4 61 63.7 61.8 60.5C58.3 57.3 53.6 54.1 49.3 52.2L43.4 58.1L42.6 57.9C41.4 57.6 35.2 55.6 27.4 47.9C19.6 40.1 17.7 33.9 17.4 32.8L17.2 32L23.1 26.1C21.2 21.8 18 17.1 14.8 13.6C11.6 14.3 7.90002 15.7 3.50002 18.6Z"
    fill="currentColor" />
</svg>
  