<svg width="69" height="85" viewBox="0 0 69 85" fill="none" xmlns="http://www.w3.org/2000/svg">
  <path
    d="M34 27.8H21.8L28.1 0.700012L0.200012 38.1H12.5L7.5 65L34 27.8ZM6 35.2L22.3 13.4L18.3 30.6H28.5L12.8 52.6L16.1 35.1H6V35.2Z"
    fill="currentColor" />
  <path
    d="M55.7 58.5V12.6C55.7 7.70002 51.7 3.80002 46.9 3.80002C42.1 3.80002 38.1 7.80002 38.1 12.6V58.5C34.6 61.2 32.6 65.4 32.6 69.8C32.6 77.7 39 84.2 47 84.2C54.9 84.2 61.4 77.8 61.4 69.8C61.2 65.4 59.2 61.3 55.7 58.5ZM46.8 81.4C40.5 81.4 35.3 76.2 35.3 69.9C35.3 66.1 37.1 62.6 40.2 60.5L40.8 60.1V12.7C40.8 9.40001 43.5 6.80002 46.7 6.80002C50 6.80002 52.7 9.50001 52.7 12.7V60L53.3 60.4C56.4 62.6 58.2 66.1 58.2 69.8C58.3 76.2 53.2 81.4 46.8 81.4Z"
    fill="currentColor" />
  <path
    d="M63.5 15.9H67.2C68 15.9 68.6 15.3 68.6 14.5C68.6 13.7 68 13.1 67.2 13.1H63.5C62.7 13.1 62.1 13.7 62.1 14.5C62.1 15.3 62.7 15.9 63.5 15.9Z"
    fill="currentColor" />
  <path
    d="M67.2 46.3H63.5C62.7 46.3 62.1 46.9 62.1 47.7C62.1 48.5 62.7 49.1 63.5 49.1H67.2C68 49.1 68.6 48.5 68.6 47.7C68.6 46.9 68 46.3 67.2 46.3Z"
    fill="currentColor" />
  <path
    d="M67.2 35.2H63.5C62.7 35.2 62.1 35.8 62.1 36.6C62.1 37.4 62.7 38 63.5 38H67.2C68 38 68.6 37.4 68.6 36.6C68.6 35.8 68 35.2 67.2 35.2Z"
    fill="currentColor" />
  <path
    d="M67.2 24.1H63.5C62.7 24.1 62.1 24.7 62.1 25.5C62.1 26.3 62.7 26.9 63.5 26.9H67.2C68 26.9 68.6 26.3 68.6 25.5C68.6 24.7 68 24.1 67.2 24.1Z"
    fill="currentColor" />
  <path
    d="M46.8 16.7C46 16.7 45.4 17.3 45.4 18.1V69.8C45.4 70.6 46 71.2 46.8 71.2C47.6 71.2 48.2 70.6 48.2 69.8V18.1C48.3 17.4 47.6 16.7 46.8 16.7Z"
    fill="currentColor" />
</svg>
  