<svg xmlns="http://www.w3.org/2000/svg" fill="none" viewBox="0 0 122 115">
  <path stroke="currentcolor" stroke-linecap="round" stroke-linejoin="round" stroke-width="5" d="M55.3 3h26.11l9.9 17.96 7.66-2.1-7.14 24.83-25.3-6.28 7.14-4.19S64.03 14.04 55.3 3Zm0 0h-7.22c-9.83 0-20.84 24.84-20.84 24.84l19.91 11.1 7.18-14.09m-38.28 71L3 73.12 13.52 55.5l-5.64-5.6 24.97-6.2 7.23 25.17-7.18-4.13s-11.7 18-16.85 31.1Zm0 0 3.62 6.29c4.9 8.55 31.81 5.72 31.81 5.72l-.38-22.88-15.74.8m79.08-3.88-13.05 22.74-20.43-.36-2 7.72-17.83-18.64 18.06-18.89.04 8.32s21.35 1.2 35.21-.89l3.62-6.3c4.9-8.54-10.98-30.55-10.98-30.55L87.56 56.83l8.55 13.3"/>
</svg>