<svg width="83" height="82" viewBox="0 0 83 82" fill="none" xmlns="http://www.w3.org/2000/svg">
  <path
    d="M80 27.6C79.7 26.8 78.9 26.4 78.1 26.7C77.3 27 76.9 27.8 77.2 28.6C78.5 32.5 79.2 36.6 79.2 40.8C79.2 61.6 62.3 78.6 41.4 78.6C29.6 78.6 18.6 73.1 11.5 63.9H21.2C22 63.9 22.7 63.2 22.7 62.4C22.7 61.6 22 60.9 21.2 60.9H7V75C7 75.8 7.7 76.5 8.5 76.5C9.3 76.5 10 75.8 10 75V66.7C17.7 76 29.2 81.5 41.4 81.5C63.9 81.5 82.2 63.2 82.2 40.7C82.2 36.3 81.4 31.9 80 27.6Z"
    fill="currentColor" />
  <path
    d="M3.59998 40.8C3.59998 20 20.5 3 41.4 3C53.1 3 64.2 8.5 71.3 17.7H61.6C60.8 17.7 60.1 18.4 60.1 19.2C60.1 20 60.8 20.7 61.6 20.7H75.8V6.6C75.8 5.8 75.1 5.1 74.3 5.1C73.5 5.1 72.8 5.8 72.8 6.6V14.9C65.1 5.5 53.6 0 41.4 0C18.9 0 0.599976 18.3 0.599976 40.8C0.599976 45.3 1.29999 49.7 2.79999 53.9C2.99999 54.5 3.60001 54.9 4.20001 54.9C4.40001 54.9 4.50001 54.9 4.70001 54.8C5.50001 54.5 5.89998 53.7 5.59998 52.9C4.29998 49 3.59998 44.9 3.59998 40.8Z"
    fill="currentColor" />
  <path
    d="M41.4 14.5L40 18.8C38.9 22.2 36.3 26 33.6 30.2C29.6 36.3 25.5 42.5 25.5 48C25.5 56.7 32.6 63.9 41.4 63.9C50.2 63.9 57.3 56.8 57.3 48C57.3 42.5 53.2 36.2 49.2 30.2C46.5 26.1 44 22.2 42.8 18.8L41.4 14.5ZM54.2 47.9C54.2 55 48.4 60.8 41.3 60.8C34.2 60.8 28.4 55 28.4 47.9C28.4 43.3 32.3 37.4 36 31.7C38 28.7 39.9 25.8 41.3 23C42.7 25.8 44.6 28.7 46.6 31.7C50.4 37.4 54.2 43.3 54.2 47.9Z"
    fill="currentColor" />
  <path
    d="M35.7 47.9C35.7 47.1 35 46.4 34.2 46.4C33.4 46.4 32.7 47.1 32.7 47.9C32.7 52.7 36.6 56.6 41.4 56.6C42.2 56.6 42.9 55.9 42.9 55.1C42.9 54.3 42.2 53.6 41.4 53.6C38.3 53.6 35.7 51.1 35.7 47.9Z"
    fill="currentColor" />
</svg>
  