<svg xmlns="http://www.w3.org/2000/svg" fill="none" viewBox="0 0 140 104">
  <path stroke="currentcolor" stroke-linecap="round" stroke-linejoin="round" stroke-width="5" d="M74 3H39m-1.3 97.6a22.26 22.26 0 0 0 18.66-25.37 22.32 22.32 0 0 0-25.48-18.59 22.26 22.26 0 0 0-18.66 25.38 22.32 22.32 0 0 0 25.47 18.59Zm93.31-35.32a26.8 26.8 0 0 0-25.27-17.8 26.8 26.8 0 0 0-25.27 17.8m-.01 17.8a26.8 26.8 0 0 0 25.27 17.8A26.8 26.8 0 0 0 131 83.08M11.93 78.63 3 69.73m0-22.24v22.25m0-22.25c0-4.92 4-8.9 8.93-8.9m0 0h26.8m0-35.59v35.59m44.67 0L74.47 3"/>
  <path stroke="currentcolor" stroke-linecap="round" stroke-linejoin="round" stroke-width="5" d="M34.27 87.53a8.91 8.91 0 0 0 8.93-8.9c0-4.91-4-8.9-8.93-8.9a8.91 8.91 0 0 0-8.93 8.9c0 4.91 4 8.9 8.93 8.9ZM56.6 20.8V3m0 17.8c0 4.91 4 8.89 8.93 8.89m0 .01h15.64m2.23 8.89 11.3 11.26M137 83.08H56.15M137 65.28H74.47m62.53 0v17.8"/>
</svg>