<svg xmlns="http://www.w3.org/2000/svg" fill="none" viewBox="0 0 135 109">
  <mask id="a" fill="#fff">
    <path d="M133.109 56.36h-2.276L114.15 21.473h4.298a1.93 1.93 0 0 0 1.927-1.926 1.93 1.93 0 0 0-1.927-1.925H76.893a9.554 9.554 0 0 0-3.688-5.763V5.683A5.692 5.692 0 0 0 67.518 0a5.693 5.693 0 0 0-5.687 5.683v6.176a9.575 9.575 0 0 0-3.687 5.763H16.589a1.93 1.93 0 0 0-1.928 1.925 1.93 1.93 0 0 0 1.928 1.926h4.298L4.204 56.36H1.927A1.93 1.93 0 0 0 0 58.286c0 4.41 2.604 8.495 7.338 11.503 4.458 2.834 10.356 4.39 16.596 4.39s12.13-1.563 16.596-4.39c4.734-3.001 7.338-7.092 7.338-11.503a1.93 1.93 0 0 0-1.927-1.926h-2.277L26.981 21.473h31.141a9.554 9.554 0 0 0 3.687 5.762v69.15H44.72c-4.051 0-7.738 1.657-9.629 4.331-1.338 1.897-2.16 3.721-2.655 5.937a1.91 1.91 0 0 0 .379 1.628c.363.457.916.719 1.505.719h66.362c.582 0 1.142-.269 1.505-.719a1.95 1.95 0 0 0 .378-1.628c-.494-2.209-1.316-4.04-2.654-5.937-1.89-2.667-5.578-4.33-9.629-4.33h-17.09v-69.15a9.575 9.575 0 0 0 3.687-5.763h31.141L91.336 56.36h-2.277a1.93 1.93 0 0 0-1.927 1.926c0 4.41 2.604 8.495 7.338 11.503 4.466 2.834 10.356 4.39 16.596 4.39s12.131-1.563 16.596-4.39c4.734-3.001 7.338-7.092 7.338-11.503a1.93 1.93 0 0 0-1.927-1.926h.036Zm-67.43-46.2V5.683c0-1.01.821-1.839 1.84-1.839 1.017 0 1.84.821 1.84 1.839v4.476s-.037 0-.059-.008c-.13-.021-.262-.05-.393-.065-.029 0-.058 0-.087-.014-.124-.015-.247-.037-.37-.044-.06 0-.117-.007-.175-.014l-.291-.022a9.338 9.338 0 0 0-.473-.015c-.16 0-.313 0-.473.015-.094 0-.196.014-.29.021-.059 0-.117.008-.175.015l-.371.044c-.03 0-.058 0-.087.014l-.393.066c-.022 0-.036 0-.058.007h.014ZM38.471 66.534c-3.855 2.441-9.011 3.793-14.53 3.793-5.52 0-10.677-1.344-14.531-3.793-2.822-1.788-4.64-3.99-5.287-6.33h39.621c-.647 2.34-2.472 4.542-5.287 6.33h.015Zm-30-10.174 15.47-32.35L39.41 56.36H8.473Zm88.304 46.572c.53.749.945 1.461 1.28 2.209H36.98c.334-.748.749-1.46 1.28-2.209 1.163-1.642 3.701-2.703 6.48-2.703h45.555c2.778 0 5.316 1.061 6.48 2.703ZM69.358 28.936v67.45h-3.68v-67.45s.037 0 .051.007c.131.022.27.051.4.066h.036c.444.065.895.094 1.353.094.458 0 .91-.036 1.353-.095h.036l.4-.065c.015 0 .037 0 .051-.007Zm.931-4.39c-.087.052-.174.095-.262.139-.007 0-.014.007-.022.014a3.678 3.678 0 0 1-.312.138l-.058.022a3.118 3.118 0 0 1-.277.102c-.014 0-.036.015-.05.015-.226.072-.452.13-.684.181h-.022a4.247 4.247 0 0 1-.313.051c-.029 0-.05 0-.08.007-.087.008-.175.022-.269.03h-.087c-.117 0-.226.014-.342.014-.117 0-.225 0-.342-.015h-.087c-.087 0-.175-.014-.27-.029-.028 0-.05 0-.08-.007-.101-.014-.21-.029-.312-.05h-.022a5.57 5.57 0 0 1-.683-.183c-.015 0-.037-.014-.051-.014-.095-.03-.182-.065-.277-.102a.374.374 0 0 1-.058-.022c-.102-.043-.21-.087-.313-.138-.007 0-.014-.007-.021-.014-.088-.044-.175-.087-.262-.138a5.72 5.72 0 0 1-2.953-5 5.71 5.71 0 0 1 2.953-5c.087-.05.174-.094.262-.137.007 0 .014-.008.021-.015.102-.05.204-.094.313-.138.022-.007.037-.014.058-.022a3.23 3.23 0 0 1 .277-.101c.014 0 .036-.015.05-.015.226-.072.451-.13.684-.181h.022c.102-.022.21-.037.313-.051.029 0 .05 0 .08-.008.087-.007.174-.021.269-.029h.087c.117 0 .225-.014.342-.014.116 0 .225 0 .342.014h.087c.087 0 .175.015.27.03.028 0 .05 0 .08.007.1.014.21.029.312.05h.022c.232.044.458.11.683.182.015 0 .037.015.051.015.095.029.182.065.276.101.022.008.037.015.059.022.102.044.21.087.312.138.008 0 .015.008.022.015a5.728 5.728 0 0 1 3.215 5.137 5.72 5.72 0 0 1-2.953 5Zm40.806-.537 15.469 32.351H95.626l15.469-32.35Zm14.531 42.525c-3.855 2.441-9.011 3.793-14.531 3.793-5.52 0-10.676-1.344-14.53-3.793-2.822-1.788-4.64-3.99-5.287-6.33h39.619c-.647 2.34-2.472 4.542-5.287 6.33h.015Z"/>
  </mask>
  <path fill="currentcolor" stroke="currentcolor" stroke-width="2" d="M133.109 56.36h-2.276L114.15 21.473h4.298a1.93 1.93 0 0 0 1.927-1.926 1.93 1.93 0 0 0-1.927-1.925H76.893a9.554 9.554 0 0 0-3.688-5.763V5.683A5.692 5.692 0 0 0 67.518 0a5.693 5.693 0 0 0-5.687 5.683v6.176a9.575 9.575 0 0 0-3.687 5.763H16.589a1.93 1.93 0 0 0-1.928 1.925 1.93 1.93 0 0 0 1.928 1.926h4.298L4.204 56.36H1.927A1.93 1.93 0 0 0 0 58.286c0 4.41 2.604 8.495 7.338 11.503 4.458 2.834 10.356 4.39 16.596 4.39s12.13-1.563 16.596-4.39c4.734-3.001 7.338-7.092 7.338-11.503a1.93 1.93 0 0 0-1.927-1.926h-2.277L26.981 21.473h31.141a9.554 9.554 0 0 0 3.687 5.762v69.15H44.72c-4.051 0-7.738 1.657-9.629 4.331-1.338 1.897-2.16 3.721-2.655 5.937a1.91 1.91 0 0 0 .379 1.628c.363.457.916.719 1.505.719h66.362c.582 0 1.142-.269 1.505-.719a1.95 1.95 0 0 0 .378-1.628c-.494-2.209-1.316-4.04-2.654-5.937-1.89-2.667-5.578-4.33-9.629-4.33h-17.09v-69.15a9.575 9.575 0 0 0 3.687-5.763h31.141L91.336 56.36h-2.277a1.93 1.93 0 0 0-1.927 1.926c0 4.41 2.604 8.495 7.338 11.503 4.466 2.834 10.356 4.39 16.596 4.39s12.131-1.563 16.596-4.39c4.734-3.001 7.338-7.092 7.338-11.503a1.93 1.93 0 0 0-1.927-1.926h.036Zm-67.43-46.2V5.683c0-1.01.821-1.839 1.84-1.839 1.017 0 1.84.821 1.84 1.839v4.476s-.037 0-.059-.008c-.13-.021-.262-.05-.393-.065-.029 0-.058 0-.087-.014-.124-.015-.247-.037-.37-.044-.06 0-.117-.007-.175-.014l-.291-.022a9.338 9.338 0 0 0-.473-.015c-.16 0-.313 0-.473.015-.094 0-.196.014-.29.021-.059 0-.117.008-.175.015l-.371.044c-.03 0-.058 0-.087.014l-.393.066c-.022 0-.036 0-.058.007h.014ZM38.471 66.534c-3.855 2.441-9.011 3.793-14.53 3.793-5.52 0-10.677-1.344-14.531-3.793-2.822-1.788-4.64-3.99-5.287-6.33h39.621c-.647 2.34-2.472 4.542-5.287 6.33h.015Zm-30-10.174 15.47-32.35L39.41 56.36H8.473Zm88.304 46.572c.53.749.945 1.461 1.28 2.209H36.98c.334-.748.749-1.46 1.28-2.209 1.163-1.642 3.701-2.703 6.48-2.703h45.555c2.778 0 5.316 1.061 6.48 2.703ZM69.358 28.936v67.45h-3.68v-67.45s.037 0 .051.007c.131.022.27.051.4.066h.036c.444.065.895.094 1.353.094.458 0 .91-.036 1.353-.095h.036l.4-.065c.015 0 .037 0 .051-.007Zm.931-4.39c-.087.052-.174.095-.262.139-.007 0-.014.007-.022.014a3.678 3.678 0 0 1-.312.138l-.058.022a3.118 3.118 0 0 1-.277.102c-.014 0-.036.015-.05.015-.226.072-.452.13-.684.181h-.022a4.247 4.247 0 0 1-.313.051c-.029 0-.05 0-.08.007-.087.008-.175.022-.269.03h-.087c-.117 0-.226.014-.342.014-.117 0-.225 0-.342-.015h-.087c-.087 0-.175-.014-.27-.029-.028 0-.05 0-.08-.007-.101-.014-.21-.029-.312-.05h-.022a5.57 5.57 0 0 1-.683-.183c-.015 0-.037-.014-.051-.014-.095-.03-.182-.065-.277-.102a.374.374 0 0 1-.058-.022c-.102-.043-.21-.087-.313-.138-.007 0-.014-.007-.021-.014-.088-.044-.175-.087-.262-.138a5.72 5.72 0 0 1-2.953-5 5.71 5.71 0 0 1 2.953-5c.087-.05.174-.094.262-.137.007 0 .014-.008.021-.015.102-.05.204-.094.313-.138.022-.007.037-.014.058-.022a3.23 3.23 0 0 1 .277-.101c.014 0 .036-.015.05-.015.226-.072.451-.13.684-.181h.022c.102-.022.21-.037.313-.051.029 0 .05 0 .08-.008.087-.007.174-.021.269-.029h.087c.117 0 .225-.014.342-.014.116 0 .225 0 .342.014h.087c.087 0 .175.015.27.03.028 0 .05 0 .08.007.1.014.21.029.312.05h.022c.232.044.458.11.683.182.015 0 .037.015.051.015.095.029.182.065.276.101.022.008.037.015.059.022.102.044.21.087.312.138.008 0 .015.008.022.015a5.728 5.728 0 0 1 3.215 5.137 5.72 5.72 0 0 1-2.953 5Zm40.806-.537 15.469 32.351H95.626l15.469-32.35Zm14.531 42.525c-3.855 2.441-9.011 3.793-14.531 3.793-5.52 0-10.676-1.344-14.53-3.793-2.822-1.788-4.64-3.99-5.287-6.33h39.619c-.647 2.34-2.472 4.542-5.287 6.33h.015Z" mask="url(#a)"/>
</svg>