<svg width="18" height="19" viewBox="0 0 18 19" fill="none" xmlns="http://www.w3.org/2000/svg">
<path d="M16.6 18.8108L10.3 12.5108C9.8 12.9108 9.225 13.2275 8.575 13.4608C7.925 13.6941 7.23333 13.8108 6.5 13.8108C4.68333 13.8108 3.14583 13.1816 1.8875 11.9233C0.629167 10.665 0 9.12746 0 7.31079C0 5.49412 0.629167 3.95662 1.8875 2.69829C3.14583 1.43996 4.68333 0.810791 6.5 0.810791C8.31667 0.810791 9.85417 1.43996 11.1125 2.69829C12.3708 3.95662 13 5.49412 13 7.31079C13 8.04412 12.8833 8.73579 12.65 9.38579C12.4167 10.0358 12.1 10.6108 11.7 11.1108L18 17.4108L16.6 18.8108ZM6.5 11.8108C7.75 11.8108 8.8125 11.3733 9.6875 10.4983C10.5625 9.62329 11 8.56079 11 7.31079C11 6.06079 10.5625 4.99829 9.6875 4.12329C8.8125 3.24829 7.75 2.81079 6.5 2.81079C5.25 2.81079 4.1875 3.24829 3.3125 4.12329C2.4375 4.99829 2 6.06079 2 7.31079C2 8.56079 2.4375 9.62329 3.3125 10.4983C4.1875 11.3733 5.25 11.8108 6.5 11.8108Z" fill="#002A41"/>
</svg>
