<svg width="98" height="85" viewBox="0 0 98 85" fill="none" xmlns="http://www.w3.org/2000/svg">
  <path
    d="M83.4 67.9C82.5 67.9 81.5 67.5 80.9 66.8L67 52.5H44.6C39.3 52.5 34.9 48.2 34.9 42.8V10.2C34.9 4.9 39.2 0.5 44.6 0.5H87.4C92.7 0.5 97.1 4.8 97.1 10.2V42.8C97.1 48.1 92.8 52.5 87.4 52.5H86.9V64.3C86.9 65.8 86 67 84.7 67.6C84.3 67.8 83.8 67.9 83.4 67.9ZM44.6 3.6C40.9 3.6 37.9 6.6 37.9 10.3V42.9C37.9 46.6 40.9 49.6 44.6 49.6H67.7C68.1 49.6 68.5 49.8 68.8 50.1L83 64.8C83.2 65 83.5 65 83.6 64.9C83.7 64.8 83.9 64.7 83.9 64.4V51C83.9 50.2 84.6 49.5 85.4 49.5H87.4C91.1 49.5 94.1 46.5 94.1 42.8V10.2C94.1 6.5 91.1 3.5 87.4 3.5H44.6V3.6Z"
    fill="currentColor" />
  <path
    d="M14 84.2C13.6 84.2 13.1 84.1 12.7 83.9C11.4 83.4 10.5 82.1 10.5 80.6V68.8H10C4.7 68.8 0.299988 64.5 0.299988 59.1V26.5C0.299988 21.2 4.6 16.8 10 16.8H32.4C33.2 16.8 33.9 17.5 33.9 18.3C33.9 19.1 33.2 19.8 32.4 19.8H10C6.3 19.8 3.29999 22.8 3.29999 26.5V59.1C3.29999 62.8 6.3 65.8 10 65.8H12C12.8 65.8 13.5 66.5 13.5 67.3V80.6C13.5 80.9 13.7 81.1 13.8 81.1C13.9 81.2 14.2 81.2 14.4 81L28.6 66.3C28.9 66 29.3 65.8 29.7 65.8H48.7C52.4 65.8 55.4 62.8 55.4 59.1V55C55.4 54.2 56.1 53.5 56.9 53.5C57.7 53.5 58.4 54.2 58.4 55V59.1C58.4 64.4 54.1 68.8 48.7 68.8H30.3L16.5 83.1C15.9 83.8 14.9 84.2 14 84.2Z"
    fill="currentColor" />
  <path
    d="M56.9 46.4C56.1 46.4 55.4 45.7 55.4 44.9V26.5C55.4 22.8 52.4 19.8 48.7 19.8H42.6C41.8 19.8 41.1 19.1 41.1 18.3C41.1 17.5 41.8 16.8 42.6 16.8H48.7C54 16.8 58.4 21.1 58.4 26.5V44.9C58.4 45.7 57.7 46.4 56.9 46.4Z"
    fill="currentColor" />
</svg>
  