<svg width="69" height="81" viewBox="0 0 69 81" fill="none" xmlns="http://www.w3.org/2000/svg">
  <path
    d="M58.3 77.5H5.69998C4.59998 77.5 3.69998 76.6 3.69998 75.5V5.4C3.69998 4.3 4.59998 3.4 5.69998 3.4H45.4L58.6 16.6V63.3C58.6 64.1 59.3 64.8 60.1 64.8C60.9 64.8 61.6 64.1 61.6 63.3V15.4L46.7 0.5H5.79999C2.99999 0.5 0.799988 2.7 0.799988 5.5V75.6C0.799988 78.4 2.99999 80.6 5.79999 80.6H58.4C59.2 80.6 59.9 79.9 59.9 79.1C59.9 78.3 59.2 77.5 58.3 77.5Z"
    fill="currentColor" />
  <path
    d="M44.3 5.59998C43.5 5.59998 42.8 6.29998 42.8 7.09998V19.1H54.8C55.6 19.1 56.3 18.4 56.3 17.6C56.3 16.8 55.6 16.1 54.8 16.1H45.8V7.09998C45.8 6.19998 45.1 5.59998 44.3 5.59998Z"
    fill="currentColor" />
  <path
    d="M68.2 77.9L48 57.8C51 54 52.8 49.2 52.8 43.9C52.8 31.5 42.7 21.4 30.3 21.4C17.9 21.4 7.79999 31.5 7.79999 43.9C7.79999 56.3 17.9 66.4 30.3 66.4C36.4 66.4 42 63.9 46 60L66 80C66.3 80.3 66.7 80.4 67.1 80.4C67.5 80.4 67.9 80.3 68.2 80C68.7 79.4 68.7 78.5 68.2 77.9ZM30.3 63.4C19.5 63.4 10.8 54.6 10.8 43.9C10.8 33.1 19.6 24.4 30.3 24.4C41.1 24.4 49.8 33.2 49.8 43.9C49.8 54.7 41.1 63.4 30.3 63.4Z"
    fill="currentColor" />
  <path
    d="M19.8 38.9C19 38.9 18.3 39.6 18.3 40.4V52.7C18.3 53.5 19 54.2 19.8 54.2C20.6 54.2 21.3 53.5 21.3 52.7V40.4C21.3 39.6 20.6 38.9 19.8 38.9Z"
    fill="currentColor" />
  <path
    d="M26.8 44.1C26 44.1 25.3 44.8 25.3 45.6V52.6C25.3 53.4 26 54.1 26.8 54.1C27.6 54.1 28.3 53.4 28.3 52.6V45.6C28.3 44.8 27.6 44.1 26.8 44.1Z"
    fill="currentColor" />
  <path
    d="M33.8 33.6C33 33.6 32.3 34.3 32.3 35.1V52.6C32.3 53.4 33 54.1 33.8 54.1C34.6 54.1 35.3 53.4 35.3 52.6V35.1C35.3 34.3 34.6 33.6 33.8 33.6Z"
    fill="currentColor" />
  <path
    d="M40.8 40.6C40 40.6 39.3 41.3 39.3 42.1V52.6C39.3 53.4 40 54.1 40.8 54.1C41.6 54.1 42.3 53.4 42.3 52.6V42.1C42.3 41.3 41.6 40.6 40.8 40.6Z"
    fill="currentColor" />
</svg>
  