<svg width="75" height="79" viewBox="0 0 75 79" fill="none" xmlns="http://www.w3.org/2000/svg">
  <path
    d="M66.3 71.5C67.1 71.5 67.8 70.8 67.8 70V35.7H52.8V70C52.8 70.8 53.5 71.5 54.3 71.5C55.1 71.5 55.8 70.8 55.8 70V38.7H64.9V70C64.8 70.8 65.5 71.5 66.3 71.5Z"
    fill="currentColor" />
  <path
    d="M47.4 71.5C48.2 71.5 48.9 70.8 48.9 70V47.8H33.8V70C33.8 70.8 34.5 71.5 35.3 71.5C36.1 71.5 36.8 70.8 36.8 70V50.8H45.9V70C45.9 70.8 46.5 71.5 47.4 71.5Z"
    fill="currentColor" />
  <path
    d="M28.4 71.5C29.2 71.5 29.9 70.8 29.9 70V58.2H14.8V70C14.8 70.8 15.5 71.5 16.3 71.5C17.1 71.5 17.8 70.8 17.8 70V61.2H26.9V70C26.9 70.8 27.6 71.5 28.4 71.5Z"
    fill="currentColor" />
  <path
    d="M38.7 29L54.6 13.1L51.9 10.3L68.9 5.10002L62.4 20.8L59.5 17.9L38.8 38.6L30.2 30L18.8 41.4C18.2 42 18.2 42.9 18.8 43.5C19.4 44.1 20.3 44.1 20.9 43.5L30.2 34.2L38.8 42.8L59.5 22.1L63.5 26.1L74.2 0.400024L46.4 9.00002L50.5 13.2L38.8 24.9L30.2 16.3L1.40001 44.8C0.800012 45.4 0.800012 46.3 1.40001 46.9C1.70001 47.2 2.10001 47.3 2.50001 47.3C2.90001 47.3 3.30001 47.2 3.60001 46.9L30.2 20.3L38.7 29Z"
    fill="currentColor" />
  <path
    d="M73.2 75.4H9.40002C8.60002 75.4 7.90002 76.1 7.90002 76.9C7.90002 77.7 8.60002 78.4 9.40002 78.4H73.2C74 78.4 74.7 77.7 74.7 76.9C74.7 76.1 74.1 75.4 73.2 75.4Z"
    fill="currentColor" />
</svg>
  