<svg xmlns="http://www.w3.org/2000/svg" fill="none" viewBox="0 0 114 115">
  <path stroke="currentcolor" stroke-linecap="round" stroke-linejoin="round" stroke-width="5" d="M66.73 47.68a16.02 16.02 0 0 1 0 22.5 15.66 15.66 0 0 1-22.3 0 16.02 16.02 0 0 1 0-22.5 15.66 15.66 0 0 1 15.17-4.13"/>
  <path stroke="currentcolor" stroke-linecap="round" stroke-linejoin="round" stroke-width="5" d="M79.74 34.54a34.72 34.72 0 0 1 0 48.79 33.95 33.95 0 0 1-48.33 0 34.72 34.72 0 0 1 0-48.79 33.93 33.93 0 0 1 42.04-4.97"/>
  <path stroke="currentcolor" stroke-linecap="round" stroke-linejoin="round" stroke-width="5" d="M77.93 10.88A52.23 52.23 0 0 0 18.4 21.41a53.42 53.42 0 0 0 0 75.05 52.24 52.24 0 0 0 74.36 0c18.14-18.3 20.24-46.65 6.35-67.3m-16.17 2.16 1.69-1.7m-4.89 4.92-13 13.14m-.01 0L54.88 59.64m29.75-30.02 5.32-5.38m-10.21 10.3 3.2-3.22m-.21-1.92.21 1.92m14.03-14.16v-2.83m-8.42-2.83L96.97 3v11.33m-11.9.67 3.48-3.5"/>
  <path stroke="currentcolor" stroke-linecap="round" stroke-linejoin="round" stroke-width="5" d="m85.07 15-3.53 3.58 1.19 10.83m.21 1.91 12.62 1.42 3.55-3.57m.67-12.01h-2.81m2.13 12.01 11.9-12H99.78M82.73 29.4l1.9.22"/>
</svg>