<svg xmlns="http://www.w3.org/2000/svg" fill="none" viewBox="0 0 91 115">
  <path stroke="currentcolor" stroke-linecap="round" stroke-linejoin="round" stroke-width="5" d="M9 62.6c7.5 0 13.6 6.2 13.6 13.7v22c0 7.6-6 13.7-13.6 13.7a6 6 0 0 1-6-6V68.7a6 6 0 0 1 6-6v0ZM22.7 67v40.3c0 .6.4 1 1 1.2 4.3.7 22.3 3.4 35.1 3.1 12.8-.3 21.4-3.5 22-7 .7-4.3-.5-4.3 0-6 .3-1.9 3.8-1.6 5-6.2 1.2-5.3-2.3-5.6-2.2-7.3.2-1.8 4.4-2.9 4.4-6.8 0-4-3.4-4.9-3.4-6.3 0-1.4 3.4-1.6 3-6.8-.4-6-2.3-7.1-9.9-7.7-10.1-.9-17.3 1.2-19.6 0-1.7-1-.6-7 1-9.6 3-5.1 4.5-6.8 4.5-13.5s-2-11-4.6-12.4c-1.7-1-6.6-1.3-7.4-.6-.7.8-.5 2.5-1.8 9-1.7 8.3-6.4 13-11.5 19.7-4.8 6.3-6.9 14.1-14.7 15.7-.6.1-1 .6-1 1.1v0Z"/>
  <path stroke="currentcolor" stroke-linecap="round" stroke-linejoin="round" stroke-width="5" d="M60.3 57.9c-3.6.2-7.7 1-11.8 0M42 15l-5-5m17.8.9v-8m11.8 12.5 5.6-5.6"/>
</svg>