<svg xmlns="http://www.w3.org/2000/svg" fill="none" viewBox="0 0 157 109">
  <mask id="a" fill="#fff">
    <path d="M.04 24.35c.48-1.28.88-2.6 1.46-3.83 1.04-2.18 2.34-2.36 4.02-.68 1.99 2 3.96 4 5.95 5.98 1.52 1.5 2.82 1.5 4.38 0 1.18-1.13 2.33-2.3 3.47-3.47 1.81-1.87 1.81-3.02.01-4.84-1.95-1.96-3.9-3.9-5.85-5.88-1.54-1.56-1.36-2.88.62-3.86C19.64 5 24.9 6 29.63 9.53c4.74 3.53 6.43 8.49 5.2 14.29-.34 1.56-.03 2.57 1.07 3.67 7.77 7.72 15.47 15.5 23.22 23.24.43.42 1.08.9 1.64.9 6.63.06 13.27.04 20.13.04-.3-.7-.52-1.26-.78-1.8L66.06 20.03c-1.33-2.82-1.2-3.2 1.56-4.6.26-.13.5-.3.87-.51L59 4.38c-1.39.66-2.77 1.28-4.1 2-.25.12-.48.65-.43.95.66 4.4 1.36 8.78 2.08 13.37l1.77-.8c1.7-.77 2.48-.5 3.3 1.2 2.77 5.83 5.5 11.66 8.26 17.5 1.02 2.17 2.06 4.34 3.06 6.52.65 1.44.38 2.5-.73 3.03-1.09.53-2.1.07-2.78-1.36L59.28 25.28c-.17-.37-.36-.72-.6-1.19-.86.4-1.67.8-2.5 1.17-1.68.73-2.83.13-3.12-1.67-.84-5.2-1.65-10.42-2.47-15.63-.07-.45-.13-.91-.23-1.36-.34-1.5.1-2.54 1.6-3.2 2.1-.9 4.15-1.95 6.2-2.98 1.17-.58 2.12-.46 3.01.54 3.93 4.38 7.9 8.73 11.81 13.12 1.16 1.3.89 2.6-.62 3.4-.8.43-1.63.8-2.6 1.26l4.02 8.52c3.62 7.68 7.26 15.35 10.83 23.05.48 1.03 1 1.46 2.17 1.39 2.08-.12 4.45.53 6.18-.27 1.73-.8 2.84-2.97 4.2-4.57 5.26-6.2 10.5-12.44 15.78-18.63.63-.74.79-1.33.44-2.3-.4-1.09-.56-2.3-.62-3.46-.22-4.55-2.45-6.6-7-6.3-.87.05-1.75.33-2.58.23-.78-.09-1.86-.34-2.18-.9-.32-.56-.18-1.76.24-2.34 3.22-4.53 7.51-7.56 13.01-8.47 6.92-1.14 13.28.37 18.86 4.76 2.45 1.93 4.87 3.9 7.36 5.78a6.27 6.27 0 0 1 2.62 4.82c.03.55.1 1.12.2 1.67.28 1.7.81 2.02 2.52 1.68 1.05-.2 2.19-.64 3.14-.4 3.25.8 5.8 2.78 7.43 5.68 1.02 1.83.68 3.85-.59 5.52a340.85 340.85 0 0 1-7.87 10.02 5.44 5.44 0 0 1-7.57.95c-1.08-.76-2.36-1.45-3.08-2.5a14.17 14.17 0 0 1-1.75-4.29c-.43-1.57-.87-1.87-2.45-1.64-2 .3-4.02.33-6.01.57a2.5 2.5 0 0 0-1.48.75c-2.5 2.98-4.94 6-7.4 9.03-.81 1-1.77 1.4-2.92.65-1.05-.68-1.05-1.96-.03-3.21 2.31-2.86 4.65-5.72 6.97-8.57.16-.2.3-.41.52-.74-.73-.6-1.46-1.14-2.13-1.74-.88-.8-1.1-1.76-.35-2.73.75-.95 1.7-1.03 2.7-.34.3.2.6.42.85.66 2.47 2.43 5.23 2.99 8.57 1.92 3.43-1.1 6.52.89 6.87 4.5.24 2.44 1.81 3.4 3.43 4.5.88.6 1.77.37 2.44-.48 2.47-3.13 4.95-6.25 7.4-9.4.74-.96.63-1.92-.33-2.7-.78-.65-1.54-1.4-2.43-1.86-.7-.36-1.56-.41-2.36-.49-.44-.03-.9.21-1.34.3-3.3.66-6.34-1.4-6.56-4.76a6.82 6.82 0 0 0-3.27-5.79c-2.17-1.42-4.03-3.31-6.18-4.78-5.76-3.92-11.97-5.04-18.58-2.44a13 13 0 0 0-3.9 2.64l1.58.3c4.3.94 6.84 3.74 7.35 8.12.23 2.02.2 4.06 1.48 5.86.73 1.02-.12 1.93-.8 2.72a43744.22 43744.22 0 0 0-18.94 22.43h46.68c2.52 0 3 .5 3.01 3.08v2.92c0 4.8-1.34 6.7-6.02 8.34v31.14c0 7.18-4.62 11.8-11.79 11.8-34.35 0-68.71.02-103.07 0-6.46 0-11.3-4.82-11.33-11.37-.04-9.94 0-19.89 0-29.84v-1.75c-.53-.16-1.01-.3-1.47-.48-2.37-.93-4-2.62-4.32-5.14-.28-2.27-.18-4.6-.11-6.91.04-1.42 1.07-1.8 2.35-1.8H54.4c-.57-.63-.89-1-1.23-1.35-6.64-6.68-13.24-13.4-19.95-19.99-2.2-2.16-2.83-4.42-2.19-7.48 1.8-8.54-6.08-13.43-12.33-12.56-.18.03-.35.16-.8.37 1.48 1.45 2.89 2.78 4.25 4.15 3.2 3.23 3.25 6.88.1 10.13a124.12 124.12 0 0 1-3.9 3.9c-2.9 2.74-6.61 2.7-9.44-.08-1.5-1.46-2.93-2.96-4.4-4.45l-.53.15c.11 1.54.02 3.12.36 4.6 1.45 6.4 6.66 9.67 13 8.17a5.93 5.93 0 0 1 6 1.69c1.88 1.89 3.77 3.76 5.64 5.66 1.2 1.23 1.32 2.29.4 3.2-.92.88-1.97.74-3.19-.48-1.81-1.8-3.64-3.6-5.4-5.45-.76-.78-1.57-1.12-2.6-.8-6.7 2.07-15.4-1.46-17.75-11.26-.09-.39-.25-.75-.37-1.12v-4.31H.04Zm51.8 41.6c-.09.38-.16.63-.2.88-.77 3.37-2.95 5.2-6.36 5.3-1.48.03-2.97.04-4.44-.04a6.08 6.08 0 0 1-5.91-6.06c-.07-2.2-.02-4.4-.02-6.6v-3.8H13.58v2.5c.01 2.9.96 3.85 3.88 3.86 3.32.02 6.64 0 9.96.03 1.66 0 2.59.74 2.57 1.96-.01 1.23-.94 1.9-2.6 1.92h-7.77v31.03c0 5.27 2.77 8.09 8 8.1l102.29.01c5.32 0 8.1-2.81 8.1-8.17v-29.2c0-.55-.05-1.1-.08-1.77h-8.07c-1.4-.02-2.28-.79-2.28-1.94-.01-1.14.85-1.88 2.28-1.94.45-.03.91 0 1.37 0 3.16 0 6.33.02 9.5-.02 1.82-.02 3.02-.9 3.2-2.44.15-1.29.03-2.6.03-3.9-.32-.07-.46-.12-.61-.12-6.48-.01-12.97 0-19.45-.03-1 0-1.19.43-1.18 1.3.04 2.97.09 5.95 0 8.91-.1 3.83-2.6 6.3-6.4 6.4-1.58.05-3.17.05-4.75-.05a6.16 6.16 0 0 1-5.51-4.78l-.29-1.34H51.85Zm53.94-10.33H51.89v6.3h53.89v-6.3Zm-57.95-.1c-2.88 0-5.57-.03-8.27.04-.27.01-.76.63-.77.96a256.5 256.5 0 0 0 0 9.2c.04 1.53.9 2.4 2.39 2.5 1.42.09 2.86.09 4.27 0 1.48-.09 2.35-1 2.37-2.5.04-3.31.01-6.63.01-10.2Zm61.92.07c0 3.5-.03 6.83.02 10.15.02 1.48.93 2.4 2.4 2.48 1.37.08 2.75.08 4.13 0 1.61-.07 2.5-1 2.55-2.67.05-2.15 0-4.3 0-6.45v-3.52h-9.1v.01Z"/>
  </mask>
  <path fill="currentcolor" stroke="currentcolor" stroke-width="2" d="M.04 24.35c.48-1.28.88-2.6 1.46-3.83 1.04-2.18 2.34-2.36 4.02-.68 1.99 2 3.96 4 5.95 5.98 1.52 1.5 2.82 1.5 4.38 0 1.18-1.13 2.33-2.3 3.47-3.47 1.81-1.87 1.81-3.02.01-4.84-1.95-1.96-3.9-3.9-5.85-5.88-1.54-1.56-1.36-2.88.62-3.86C19.64 5 24.9 6 29.63 9.53c4.74 3.53 6.43 8.49 5.2 14.29-.34 1.56-.03 2.57 1.07 3.67 7.77 7.72 15.47 15.5 23.22 23.24.43.42 1.08.9 1.64.9 6.63.06 13.27.04 20.13.04-.3-.7-.52-1.26-.78-1.8L66.06 20.03c-1.33-2.82-1.2-3.2 1.56-4.6.26-.13.5-.3.87-.51L59 4.38c-1.39.66-2.77 1.28-4.1 2-.25.12-.48.65-.43.95.66 4.4 1.36 8.78 2.08 13.37l1.77-.8c1.7-.77 2.48-.5 3.3 1.2 2.77 5.83 5.5 11.66 8.26 17.5 1.02 2.17 2.06 4.34 3.06 6.52.65 1.44.38 2.5-.73 3.03-1.09.53-2.1.07-2.78-1.36L59.28 25.28c-.17-.37-.36-.72-.6-1.19-.86.4-1.67.8-2.5 1.17-1.68.73-2.83.13-3.12-1.67-.84-5.2-1.65-10.42-2.47-15.63-.07-.45-.13-.91-.23-1.36-.34-1.5.1-2.54 1.6-3.2 2.1-.9 4.15-1.95 6.2-2.98 1.17-.58 2.12-.46 3.01.54 3.93 4.38 7.9 8.73 11.81 13.12 1.16 1.3.89 2.6-.62 3.4-.8.43-1.63.8-2.6 1.26l4.02 8.52c3.62 7.68 7.26 15.35 10.83 23.05.48 1.03 1 1.46 2.17 1.39 2.08-.12 4.45.53 6.18-.27 1.73-.8 2.84-2.97 4.2-4.57 5.26-6.2 10.5-12.44 15.78-18.63.63-.74.79-1.33.44-2.3-.4-1.09-.56-2.3-.62-3.46-.22-4.55-2.45-6.6-7-6.3-.87.05-1.75.33-2.58.23-.78-.09-1.86-.34-2.18-.9-.32-.56-.18-1.76.24-2.34 3.22-4.53 7.51-7.56 13.01-8.47 6.92-1.14 13.28.37 18.86 4.76 2.45 1.93 4.87 3.9 7.36 5.78a6.27 6.27 0 0 1 2.62 4.82c.03.55.1 1.12.2 1.67.28 1.7.81 2.02 2.52 1.68 1.05-.2 2.19-.64 3.14-.4 3.25.8 5.8 2.78 7.43 5.68 1.02 1.83.68 3.85-.59 5.52a340.85 340.85 0 0 1-7.87 10.02 5.44 5.44 0 0 1-7.57.95c-1.08-.76-2.36-1.45-3.08-2.5a14.17 14.17 0 0 1-1.75-4.29c-.43-1.57-.87-1.87-2.45-1.64-2 .3-4.02.33-6.01.57a2.5 2.5 0 0 0-1.48.75c-2.5 2.98-4.94 6-7.4 9.03-.81 1-1.77 1.4-2.92.65-1.05-.68-1.05-1.96-.03-3.21 2.31-2.86 4.65-5.72 6.97-8.57.16-.2.3-.41.52-.74-.73-.6-1.46-1.14-2.13-1.74-.88-.8-1.1-1.76-.35-2.73.75-.95 1.7-1.03 2.7-.34.3.2.6.42.85.66 2.47 2.43 5.23 2.99 8.57 1.92 3.43-1.1 6.52.89 6.87 4.5.24 2.44 1.81 3.4 3.43 4.5.88.6 1.77.37 2.44-.48 2.47-3.13 4.95-6.25 7.4-9.4.74-.96.63-1.92-.33-2.7-.78-.65-1.54-1.4-2.43-1.86-.7-.36-1.56-.41-2.36-.49-.44-.03-.9.21-1.34.3-3.3.66-6.34-1.4-6.56-4.76a6.82 6.82 0 0 0-3.27-5.79c-2.17-1.42-4.03-3.31-6.18-4.78-5.76-3.92-11.97-5.04-18.58-2.44a13 13 0 0 0-3.9 2.64l1.58.3c4.3.94 6.84 3.74 7.35 8.12.23 2.02.2 4.06 1.48 5.86.73 1.02-.12 1.93-.8 2.72a43744.22 43744.22 0 0 0-18.94 22.43h46.68c2.52 0 3 .5 3.01 3.08v2.92c0 4.8-1.34 6.7-6.02 8.34v31.14c0 7.18-4.62 11.8-11.79 11.8-34.35 0-68.71.02-103.07 0-6.46 0-11.3-4.82-11.33-11.37-.04-9.94 0-19.89 0-29.84v-1.75c-.53-.16-1.01-.3-1.47-.48-2.37-.93-4-2.62-4.32-5.14-.28-2.27-.18-4.6-.11-6.91.04-1.42 1.07-1.8 2.35-1.8H54.4c-.57-.63-.89-1-1.23-1.35-6.64-6.68-13.24-13.4-19.95-19.99-2.2-2.16-2.83-4.42-2.19-7.48 1.8-8.54-6.08-13.43-12.33-12.56-.18.03-.35.16-.8.37 1.48 1.45 2.89 2.78 4.25 4.15 3.2 3.23 3.25 6.88.1 10.13a124.12 124.12 0 0 1-3.9 3.9c-2.9 2.74-6.61 2.7-9.44-.08-1.5-1.46-2.93-2.96-4.4-4.45l-.53.15c.11 1.54.02 3.12.36 4.6 1.45 6.4 6.66 9.67 13 8.17a5.93 5.93 0 0 1 6 1.69c1.88 1.89 3.77 3.76 5.64 5.66 1.2 1.23 1.32 2.29.4 3.2-.92.88-1.97.74-3.19-.48-1.81-1.8-3.64-3.6-5.4-5.45-.76-.78-1.57-1.12-2.6-.8-6.7 2.07-15.4-1.46-17.75-11.26-.09-.39-.25-.75-.37-1.12v-4.31H.04Zm51.8 41.6c-.09.38-.16.63-.2.88-.77 3.37-2.95 5.2-6.36 5.3-1.48.03-2.97.04-4.44-.04a6.08 6.08 0 0 1-5.91-6.06c-.07-2.2-.02-4.4-.02-6.6v-3.8H13.58v2.5c.01 2.9.96 3.85 3.88 3.86 3.32.02 6.64 0 9.96.03 1.66 0 2.59.74 2.57 1.96-.01 1.23-.94 1.9-2.6 1.92h-7.77v31.03c0 5.27 2.77 8.09 8 8.1l102.29.01c5.32 0 8.1-2.81 8.1-8.17v-29.2c0-.55-.05-1.1-.08-1.77h-8.07c-1.4-.02-2.28-.79-2.28-1.94-.01-1.14.85-1.88 2.28-1.94.45-.03.91 0 1.37 0 3.16 0 6.33.02 9.5-.02 1.82-.02 3.02-.9 3.2-2.44.15-1.29.03-2.6.03-3.9-.32-.07-.46-.12-.61-.12-6.48-.01-12.97 0-19.45-.03-1 0-1.19.43-1.18 1.3.04 2.97.09 5.95 0 8.91-.1 3.83-2.6 6.3-6.4 6.4-1.58.05-3.17.05-4.75-.05a6.16 6.16 0 0 1-5.51-4.78l-.29-1.34H51.85Zm53.94-10.33H51.89v6.3h53.89v-6.3Zm-57.95-.1c-2.88 0-5.57-.03-8.27.04-.27.01-.76.63-.77.96a256.5 256.5 0 0 0 0 9.2c.04 1.53.9 2.4 2.39 2.5 1.42.09 2.86.09 4.27 0 1.48-.09 2.35-1 2.37-2.5.04-3.31.01-6.63.01-10.2Zm61.92.07c0 3.5-.03 6.83.02 10.15.02 1.48.93 2.4 2.4 2.48 1.37.08 2.75.08 4.13 0 1.61-.07 2.5-1 2.55-2.67.05-2.15 0-4.3 0-6.45v-3.52h-9.1v.01Z" mask="url(#a)"/>
  <mask id="b" fill="#fff">
    <path d="M58.2 109H27.04c-3.14 0-6.03-1.16-8.11-3.25-2.1-2.1-3.25-5-3.27-8.17-.02-6.98-.02-14.08-.01-20.95V66.02l-.46-.15c-.34-.1-.67-.2-.98-.32-2.55-1-4.04-2.8-4.34-5.18A41.1 41.1 0 0 1 9.74 54l.01-.54c.04-1.24.82-1.85 2.38-1.85h.02c4.19.01 8.44.01 12.56 0h29.58l-.47-.52c-.26-.3-.48-.54-.7-.76a3630.1 3630.1 0 0 1-5.27-5.31c-4.8-4.84-9.75-9.83-14.68-14.68-2.2-2.17-2.86-4.41-2.2-7.51.93-4.37-.74-7.29-2.3-8.97a11.76 11.76 0 0 0-9.98-3.54c-.1.01-.21.07-.39.16l-.36.18 1.35 1.3c1 .97 1.94 1.87 2.86 2.8 1.6 1.62 2.43 3.33 2.45 5.09.01 1.76-.77 3.48-2.35 5.1-1.2 1.26-2.51 2.6-3.9 3.91-2.91 2.76-6.64 2.72-9.5-.08a172.13 172.13 0 0 1-3.03-3.07l-1.34-1.37-.49.14c.04.47.05.96.07 1.43.03 1.04.06 2.12.3 3.13.7 3.13 2.31 5.56 4.64 7.02 2.33 1.46 5.2 1.84 8.3 1.12 2.38-.56 4.36 0 6.05 1.69l2.17 2.19c1.14 1.13 2.3 2.3 3.45 3.47.7.7 1.03 1.35 1.02 1.95 0 .46-.21.9-.62 1.3-.92.9-2.02.74-3.24-.48l-.69-.68a243.52 243.52 0 0 1-4.71-4.76c-.8-.83-1.62-1.08-2.56-.79A13.5 13.5 0 0 1 7.5 39.81C5 38.37 1.74 35.46.38 29.77.32 29.5.22 29.25.13 29L0 28.65V24.3l.43-1.2c.3-.88.62-1.79 1.02-2.64.52-1.1 1.11-1.68 1.78-1.8.68-.11 1.44.25 2.3 1.12l2.4 2.42c1.16 1.17 2.36 2.38 3.56 3.56 1.5 1.48 2.78 1.48 4.32 0 1.02-.99 2.12-2.1 3.46-3.47 1.8-1.86 1.8-2.97.02-4.78l-2.7-2.7-3.15-3.17c-.79-.8-1.13-1.54-1.02-2.2.11-.67.66-1.25 1.64-1.73C19.3 5.1 24.55 5.7 29.64 9.49c4.66 3.46 6.46 8.42 5.2 14.32-.32 1.53-.02 2.56 1.07 3.64 4.44 4.4 8.93 8.92 13.27 13.27 3.25 3.27 6.62 6.65 9.94 9.96.43.43 1.08.89 1.61.9 5.25.05 10.4.04 15.86.04h4.22l-.26-.61-.5-1.13-9.84-20.91-4.2-8.94c-1.34-2.85-1.21-3.24 1.57-4.66.16-.08.33-.19.52-.3l.3-.18-9.43-10.47-1.04.48c-1 .48-2.05.96-3.04 1.49-.22.11-.44.62-.4.91a1162.68 1162.68 0 0 0 2.07 13.32l1.72-.78c1.73-.78 2.55-.49 3.36 1.22l6.25 13.24a751.9 751.9 0 0 0 2 4.24l.77 1.62 2.3 4.9c.66 1.44.4 2.54-.74 3.1-.5.23-.97.28-1.41.12-.56-.2-1.04-.7-1.43-1.51l-6.89-14.6-3.26-6.9c-.11-.26-.23-.49-.37-.76l-.2-.39-.78.36c-.58.28-1.13.54-1.7.79-.85.36-1.59.4-2.14.1-.54-.3-.9-.93-1.04-1.8-.59-3.64-1.17-7.34-1.73-10.92l-.74-4.72-.04-.28c-.06-.36-.11-.73-.19-1.08-.35-1.58.16-2.61 1.62-3.24 1.95-.85 3.88-1.82 5.75-2.76l.46-.22c1.2-.6 2.18-.43 3.05.55l5.37 5.96c2.11 2.35 4.3 4.76 6.44 7.16.56.63.8 1.3.7 1.9-.11.62-.57 1.15-1.33 1.57-.55.29-1.12.56-1.71.84l-.85.4 1.28 2.7 2.72 5.79 2.62 5.56c2.7 5.73 5.5 11.65 8.2 17.5.5 1.07 1.06 1.43 2.13 1.36.73-.04 1.52 0 2.27.06 1.44.1 2.79.19 3.91-.33 1.22-.56 2.15-1.84 3.05-3.07.37-.5.74-1.02 1.13-1.49l5.63-6.65c3.32-3.94 6.75-8 10.14-11.98.66-.76.77-1.36.44-2.26-.35-.96-.54-2.09-.62-3.46-.11-2.3-.73-3.93-1.88-4.96-1.15-1.03-2.8-1.46-5.07-1.31-.32.02-.65.07-.97.12-.53.09-1.1.18-1.62.11-.53-.07-1.83-.28-2.2-.9-.32-.57-.2-1.77.24-2.4 3.38-4.76 7.76-7.62 13.03-8.48 7.04-1.17 13.4.44 18.89 4.76l2.3 1.82c1.64 1.31 3.35 2.66 5.06 3.96a6.31 6.31 0 0 1 2.63 4.84c.04.61.1 1.17.2 1.67.14.86.34 1.33.68 1.56.36.25.88.27 1.8.09.26-.05.53-.12.8-.2.8-.19 1.63-.4 2.35-.22 3.23.8 5.8 2.78 7.45 5.71.99 1.75.77 3.77-.58 5.56a334.3 334.3 0 0 1-7.88 10.02 5.47 5.47 0 0 1-7.62.96l-.74-.5c-.87-.58-1.79-1.18-2.35-2a14.44 14.44 0 0 1-1.76-4.3c-.43-1.56-.85-1.85-2.4-1.62-1.11.16-2.25.24-3.34.33-.88.07-1.79.14-2.68.25-.54.06-1.14.37-1.45.73a634.13 634.13 0 0 0-6.92 8.45l-.47.58c-.92 1.14-1.9 1.36-2.98.66-.43-.29-.7-.69-.78-1.16-.1-.64.16-1.4.74-2.11l4.46-5.49 2.52-3.1c.1-.12.2-.25.3-.42l.2-.27-.65-.52c-.52-.4-1-.78-1.47-1.2-.95-.86-1.08-1.85-.35-2.78.74-.95 1.72-1.07 2.76-.36.3.21.6.42.86.66 2.42 2.38 5.13 3 8.53 1.9a5.34 5.34 0 0 1 4.66.51c1.3.86 2.1 2.3 2.26 4.03.22 2.32 1.68 3.3 3.22 4.34l.2.13c.83.56 1.7.4 2.38-.47l.57-.71c2.25-2.84 4.58-5.78 6.83-8.7.73-.93.62-1.87-.32-2.64l-.54-.46c-.6-.5-1.2-1.03-1.88-1.39-.66-.34-1.47-.4-2.25-.47h-.1c-.27-.03-.54.06-.83.15a5.5 5.5 0 0 1-5.12-.87 5.1 5.1 0 0 1-1.97-3.8c-.17-2.64-1.14-4.35-3.26-5.74a35.72 35.72 0 0 1-3.22-2.48c-.95-.78-1.94-1.6-2.96-2.3-6.01-4.09-12.25-4.91-18.54-2.43-1.22.48-2.44 1.3-3.83 2.6l.42.07 1.08.21c4.31.95 6.87 3.77 7.38 8.15l.1 1.02c.16 1.72.3 3.34 1.37 4.83.71 1-.04 1.88-.7 2.65l-.1.12-3.44 4.08-12.6 14.91-1.83 2.17-1 1.21h46.58c2.53 0 3.05.52 3.06 3.1v2.95c0 4.85-1.36 6.73-6.02 8.37v31.11c-.01 7.2-4.66 11.84-11.84 11.84H58.21v.02ZM12.14 51.7c-1.53 0-2.26.56-2.3 1.76l-.01.54c-.07 2.1-.13 4.27.13 6.37.29 2.35 1.78 4.12 4.29 5.11.3.13.63.22.97.32l.49.15h.03v10.68c0 6.87-.01 13.97.01 20.94a11.44 11.44 0 0 0 3.24 8.12 11.26 11.26 0 0 0 8.05 3.22H130.1c7.14 0 11.74-4.62 11.76-11.77V65.98h.03c4.64-1.64 5.99-3.5 6-8.32v-2.92c-.01-2.55-.48-3.03-2.98-3.03H98.15l.06-.07 1.06-1.27 1.82-2.17 12.6-14.91 3.56-4.2c.64-.76 1.36-1.6.7-2.55-1.07-1.51-1.23-3.22-1.4-4.87-.02-.33-.06-.67-.1-1-.5-4.36-3.03-7.16-7.31-8.1l-1.08-.2-.5-.1-.08-.01.06-.06a12.77 12.77 0 0 1 3.91-2.65c6.32-2.5 12.58-1.67 18.62 2.44 1.04.7 2.01 1.52 2.97 2.3 1.03.85 2.09 1.73 3.22 2.47 2.13 1.4 3.12 3.15 3.29 5.81.1 1.51.78 2.84 1.94 3.74a5.66 5.66 0 0 0 4.56 1l.49-.15c.28-.09.58-.18.87-.15h.1c.8.07 1.61.13 2.28.48.68.36 1.3.89 1.9 1.4l.54.45c.97.8 1.09 1.78.33 2.77-2.25 2.9-4.58 5.85-6.83 8.7l-.57.7c-.7.9-1.61 1.07-2.48.48l-.2-.13c-1.56-1.04-3.02-2.03-3.26-4.4A5.21 5.21 0 0 0 137 33.5a5.27 5.27 0 0 0-4.6-.5c-3.42 1.1-6.15.48-8.6-1.93a5.87 5.87 0 0 0-.85-.65c-1-.69-1.94-.57-2.65.33-.7.9-.58 1.85.34 2.67.46.41.95.8 1.45 1.2l.68.54.03.03-.02.02-.2.3-.33.44-2.52 3.1-4.45 5.47c-.57.7-.83 1.43-.72 2.05.07.45.32.83.74 1.1 1.03.67 1.98.45 2.88-.65l.47-.57c2.26-2.79 4.59-5.66 6.92-8.45.32-.38.94-.7 1.5-.77.89-.1 1.8-.17 2.68-.24a42.2 42.2 0 0 0 3.33-.34c1.6-.23 2.06.08 2.5 1.67.4 1.41.88 3.03 1.75 4.28.56.81 1.45 1.4 2.33 1.98l.74.5a5.4 5.4 0 0 0 7.52-.94c2.43-2.97 5-6.24 7.87-10.02 1.34-1.75 1.55-3.74.58-5.46a11.52 11.52 0 0 0-7.4-5.67c-.7-.17-1.52.03-2.32.23-.26.07-.54.14-.8.19-.95.19-1.48.15-1.86-.1-.36-.25-.58-.74-.72-1.62a17.3 17.3 0 0 1-.2-1.68 6.25 6.25 0 0 0-2.6-4.79 221.68 221.68 0 0 1-5.07-3.96l-2.29-1.81a23.18 23.18 0 0 0-18.82-4.75c-5.25.87-9.62 3.7-12.98 8.45-.42.6-.54 1.78-.23 2.3.36.63 1.73.82 2.14.88.52.05 1.07-.03 1.6-.11.32-.05.65-.1.97-.13 2.3-.14 3.98.3 5.14 1.34 1.17 1.05 1.8 2.69 1.91 5.01.07 1.38.27 2.5.6 3.44.35.94.23 1.55-.44 2.35-3.4 3.98-6.82 8.04-10.14 11.97l-5.63 6.65c-.4.46-.77.98-1.14 1.49-.9 1.24-1.83 2.52-3.08 3.1-1.13.52-2.57.43-3.95.33-.75-.05-1.53-.1-2.25-.06-1.11.07-1.68-.3-2.2-1.4-2.72-5.85-5.51-11.77-8.2-17.5a2335.95 2335.95 0 0 1-5.35-11.35l-1.31-2.77.03-.02.88-.42c.6-.28 1.17-.54 1.71-.83.74-.4 1.19-.93 1.29-1.52.1-.58-.14-1.2-.68-1.83-2.14-2.4-4.33-4.81-6.44-7.16L61.17.95C60.31 0 59.4-.17 58.21.42l-.45.23c-1.88.93-3.8 1.9-5.75 2.76-1.44.62-1.93 1.6-1.58 3.15.08.36.14.73.2 1.1l.04.27.74 4.72c.56 3.57 1.14 7.27 1.73 10.91.13.86.48 1.46 1 1.75.53.29 1.25.25 2.06-.1.57-.25 1.12-.52 1.7-.8.27-.11.54-.25.81-.37l.04-.01.01.03.23.43c.14.28.27.51.38.76l3.26 6.9c2.25 4.8 4.58 9.74 6.9 14.6.36.79.82 1.28 1.37 1.47.42.14.87.1 1.34-.12 1.1-.53 1.34-1.59.7-2.98-.75-1.64-1.54-3.3-2.3-4.9l-.76-1.63-2-4.24-6.26-13.24c-.8-1.68-1.55-1.95-3.25-1.18l-1.81.82v-.05c-.15-.9-.3-1.77-.43-2.65-.59-3.7-1.13-7.18-1.66-10.72-.05-.33.19-.86.45-1 .99-.52 2.03-1.01 3.03-1.48l1.07-.5.03-.02 9.54 10.59-.05.02-.34.2c-.19.12-.36.22-.53.3-2.74 1.4-2.86 1.75-1.53 4.55l4.2 8.94 9.84 20.92c.17.35.32.7.5 1.13l.28.66.02.06h-4.33c-5.46 0-10.62 0-15.86-.04-.56 0-1.23-.48-1.67-.92-3.32-3.31-6.69-6.7-9.94-9.96-4.34-4.36-8.83-8.86-13.27-13.27-1.11-1.1-1.42-2.15-1.08-3.72 1.24-5.87-.55-10.8-5.18-14.24-5.08-3.77-10.28-4.36-15.5-1.76-.95.48-1.49 1.04-1.6 1.67-.1.64.24 1.35 1 2.13l3.16 3.17 2.7 2.7c1.8 1.83 1.8 3.01-.02 4.89a140.5 140.5 0 0 1-3.47 3.48c-1.57 1.52-2.9 1.52-4.44 0a413.1 413.1 0 0 1-3.55-3.56l-2.4-2.42c-.85-.85-1.58-1.2-2.23-1.1-.65.11-1.2.7-1.72 1.76-.4.84-.73 1.75-1.03 2.62l-.43 1.2v4.29l.13.35c.09.24.18.5.25.77 1.35 5.66 4.6 8.56 7.09 9.99a13.46 13.46 0 0 0 10.6 1.25c.98-.3 1.82-.04 2.64.82 1.55 1.61 3.17 3.2 4.72 4.76l.69.68c1.2 1.2 2.23 1.35 3.13.47.4-.38.6-.8.6-1.24 0-.58-.33-1.22-1-1.9a521.04 521.04 0 0 0-3.45-3.47l-2.17-2.19a5.93 5.93 0 0 0-5.98-1.67c-3.13.74-6.01.34-8.36-1.12-2.35-1.48-3.97-3.93-4.68-7.07-.24-1.02-.27-2.1-.3-3.15-.01-.48-.03-.97-.07-1.46v-.04l.6-.16.01.01 1.36 1.39c.99 1 2 2.06 3.03 3.06 2.82 2.77 6.5 2.8 9.39.09 1.38-1.31 2.7-2.66 3.9-3.91 1.56-1.62 2.34-3.32 2.32-5.05-.01-1.74-.83-3.43-2.42-5.03a177.9 177.9 0 0 0-2.86-2.79c-.45-.44-.91-.89-1.4-1.34l-.04-.05.05-.02.42-.2c.18-.1.29-.16.41-.18 3.63-.5 7.57.9 10.06 3.58 1.57 1.69 3.24 4.63 2.31 9.03-.65 3.08 0 5.3 2.18 7.44 4.93 4.85 9.89 9.84 14.68 14.67 1.75 1.78 3.5 3.54 5.27 5.31l.7.77.52.58.06.06H29.49l-4.75.01H12.17l-.04.03Zm98.38 53.38-82.9-.01c-5.26 0-8.03-2.81-8.03-8.13V65.86h7.79c1.64 0 2.56-.67 2.58-1.88 0-.5-.15-.92-.47-1.24-.42-.44-1.14-.68-2.06-.69l-5.28-.01h-4.68c-2.95-.02-3.9-.98-3.92-3.91v-2.56h21.4v5.84c0 1.51 0 3.08.03 4.6a6.03 6.03 0 0 0 5.87 6.03c1.58.09 3.13.07 4.44.03 3.38-.09 5.56-1.91 6.31-5.26l.13-.52.1-.36v-.03h54v.03l.09.44c.06.31.12.6.2.9a6.13 6.13 0 0 0 5.48 4.75c1.41.1 2.92.12 4.73.06a6.56 6.56 0 0 0 4.56-1.8 6.57 6.57 0 0 0 1.81-4.57c.07-2.61.04-5.28.02-7.86l-.02-1.06c0-.55.07-.85.28-1.06.18-.19.49-.27.94-.27 4.57.02 9.2.02 13.7.02h5.75c.1 0 .19.03.33.06l.3.08h.02v.03l.02 1.19c.02.89.05 1.81-.05 2.7-.18 1.55-1.36 2.45-3.25 2.48-2.23.03-4.49.03-6.67.03h-4.19c-1.4.07-2.24.78-2.24 1.9 0 1.14.9 1.88 2.25 1.9h8.1v.04l.04.64c.02.39.04.77.04 1.13v29.21c0 5.37-2.82 8.2-8.14 8.2h-19.38l-.04.01ZM19.65 65.94v30.99c0 5.27 2.75 8.05 7.96 8.05 32.44.02 65.9.02 102.28.02 2.64 0 4.66-.7 6.02-2.07 1.35-1.36 2.04-3.4 2.05-6.06v-29.2c0-.37-.02-.73-.05-1.14l-.03-.6h-8.03c-1.4-.01-2.32-.78-2.33-1.97 0-1.16.88-1.92 2.32-1.98h4.2c2.19 0 4.45 0 6.67-.03 1.84-.02 3-.9 3.17-2.4.1-.9.08-1.81.05-2.7l-.02-1.16a3.4 3.4 0 0 1-.26-.07 1.24 1.24 0 0 0-.31-.06h-5.76c-4.48 0-9.13 0-13.69-.02-.43 0-.71.08-.89.25-.18.18-.25.48-.25 1l.02 1.06c.03 2.58.05 5.25-.02 7.86a6.62 6.62 0 0 1-1.83 4.63 6.63 6.63 0 0 1-4.6 1.82c-1.83.05-3.33.03-4.75-.06a6.21 6.21 0 0 1-5.56-4.8l-.2-.92a8.04 8.04 0 0 1-.07-.4H51.87l-.08.33-.13.52c-.77 3.39-2.97 5.23-6.4 5.32-1.3.04-2.85.06-4.44-.03a6.11 6.11 0 0 1-5.94-6.1c-.05-1.53-.04-3.1-.03-4.6v-5.77H13.6v2.48c.01 2.88.95 3.8 3.84 3.82h4.67c1.73 0 3.52 0 5.28.02.94 0 1.68.25 2.12.7.34.34.5.78.49 1.31-.02 1.25-.96 1.95-2.66 1.96h-7.71.02Zm23.64 2.39c-.7 0-1.42-.02-2.12-.07-1.52-.09-2.38-.98-2.42-2.52-.06-2.75-.06-5.76 0-9.2 0-.37.51-1 .8-1.01 2.1-.06 4.16-.05 6.35-.05h1.97v3.13c0 2.45.01 4.78-.02 7.13-.02 1.49-.92 2.44-2.41 2.52-.72.05-1.44.07-2.16.07h.01Zm.78-12.77c-1.53 0-3 0-4.5.05-.26 0-.74.6-.74.92-.06 3.45-.06 6.47 0 9.2.04 1.5.87 2.37 2.34 2.45 1.41.1 2.84.1 4.27 0 1.46-.08 2.31-.98 2.33-2.44.03-2.35.02-4.67.02-7.13v-3.05h-3.72Zm70.2 12.77c-.72 0-1.41-.02-2.1-.06-1.5-.1-2.41-1.03-2.43-2.51-.04-2.36-.03-4.67-.02-7.13v-3.07h9.18v5.48c0 1.48.02 3.02-.02 4.53-.03 1.67-.95 2.63-2.58 2.7-.71.05-1.4.06-2.04.06Zm-4.47-12.7v3c-.01 2.45-.02 4.76.02 7.11.02 1.44.9 2.35 2.36 2.44 1.3.08 2.65.08 4.13.01 1.6-.08 2.46-.99 2.5-2.63.03-1.5.03-3.04.02-4.52v-5.41h-9.03Zm-3.98 6.32H51.84v-6.37h53.98v6.37Zm-53.9-.08h53.82v-6.21H51.93v6.21Z"/>
  </mask>
  <path fill="currentcolor" stroke="currentcolor" stroke-width="2" d="M58.2 109H27.04c-3.14 0-6.03-1.16-8.11-3.25-2.1-2.1-3.25-5-3.27-8.17-.02-6.98-.02-14.08-.01-20.95V66.02l-.46-.15c-.34-.1-.67-.2-.98-.32-2.55-1-4.04-2.8-4.34-5.18A41.1 41.1 0 0 1 9.74 54l.01-.54c.04-1.24.82-1.85 2.38-1.85h.02c4.19.01 8.44.01 12.56 0h29.58l-.47-.52c-.26-.3-.48-.54-.7-.76a3630.1 3630.1 0 0 1-5.27-5.31c-4.8-4.84-9.75-9.83-14.68-14.68-2.2-2.17-2.86-4.41-2.2-7.51.93-4.37-.74-7.29-2.3-8.97a11.76 11.76 0 0 0-9.98-3.54c-.1.01-.21.07-.39.16l-.36.18 1.35 1.3c1 .97 1.94 1.87 2.86 2.8 1.6 1.62 2.43 3.33 2.45 5.09.01 1.76-.77 3.48-2.35 5.1-1.2 1.26-2.51 2.6-3.9 3.91-2.91 2.76-6.64 2.72-9.5-.08a172.13 172.13 0 0 1-3.03-3.07l-1.34-1.37-.49.14c.04.47.05.96.07 1.43.03 1.04.06 2.12.3 3.13.7 3.13 2.31 5.56 4.64 7.02 2.33 1.46 5.2 1.84 8.3 1.12 2.38-.56 4.36 0 6.05 1.69l2.17 2.19c1.14 1.13 2.3 2.3 3.45 3.47.7.7 1.03 1.35 1.02 1.95 0 .46-.21.9-.62 1.3-.92.9-2.02.74-3.24-.48l-.69-.68a243.52 243.52 0 0 1-4.71-4.76c-.8-.83-1.62-1.08-2.56-.79A13.5 13.5 0 0 1 7.5 39.81C5 38.37 1.74 35.46.38 29.77.32 29.5.22 29.25.13 29L0 28.65V24.3l.43-1.2c.3-.88.62-1.79 1.02-2.64.52-1.1 1.11-1.68 1.78-1.8.68-.11 1.44.25 2.3 1.12l2.4 2.42c1.16 1.17 2.36 2.38 3.56 3.56 1.5 1.48 2.78 1.48 4.32 0 1.02-.99 2.12-2.1 3.46-3.47 1.8-1.86 1.8-2.97.02-4.78l-2.7-2.7-3.15-3.17c-.79-.8-1.13-1.54-1.02-2.2.11-.67.66-1.25 1.64-1.73C19.3 5.1 24.55 5.7 29.64 9.49c4.66 3.46 6.46 8.42 5.2 14.32-.32 1.53-.02 2.56 1.07 3.64 4.44 4.4 8.93 8.92 13.27 13.27 3.25 3.27 6.62 6.65 9.94 9.96.43.43 1.08.89 1.61.9 5.25.05 10.4.04 15.86.04h4.22l-.26-.61-.5-1.13-9.84-20.91-4.2-8.94c-1.34-2.85-1.21-3.24 1.57-4.66.16-.08.33-.19.52-.3l.3-.18-9.43-10.47-1.04.48c-1 .48-2.05.96-3.04 1.49-.22.11-.44.62-.4.91a1162.68 1162.68 0 0 0 2.07 13.32l1.72-.78c1.73-.78 2.55-.49 3.36 1.22l6.25 13.24a751.9 751.9 0 0 0 2 4.24l.77 1.62 2.3 4.9c.66 1.44.4 2.54-.74 3.1-.5.23-.97.28-1.41.12-.56-.2-1.04-.7-1.43-1.51l-6.89-14.6-3.26-6.9c-.11-.26-.23-.49-.37-.76l-.2-.39-.78.36c-.58.28-1.13.54-1.7.79-.85.36-1.59.4-2.14.1-.54-.3-.9-.93-1.04-1.8-.59-3.64-1.17-7.34-1.73-10.92l-.74-4.72-.04-.28c-.06-.36-.11-.73-.19-1.08-.35-1.58.16-2.61 1.62-3.24 1.95-.85 3.88-1.82 5.75-2.76l.46-.22c1.2-.6 2.18-.43 3.05.55l5.37 5.96c2.11 2.35 4.3 4.76 6.44 7.16.56.63.8 1.3.7 1.9-.11.62-.57 1.15-1.33 1.57-.55.29-1.12.56-1.71.84l-.85.4 1.28 2.7 2.72 5.79 2.62 5.56c2.7 5.73 5.5 11.65 8.2 17.5.5 1.07 1.06 1.43 2.13 1.36.73-.04 1.52 0 2.27.06 1.44.1 2.79.19 3.91-.33 1.22-.56 2.15-1.84 3.05-3.07.37-.5.74-1.02 1.13-1.49l5.63-6.65c3.32-3.94 6.75-8 10.14-11.98.66-.76.77-1.36.44-2.26-.35-.96-.54-2.09-.62-3.46-.11-2.3-.73-3.93-1.88-4.96-1.15-1.03-2.8-1.46-5.07-1.31-.32.02-.65.07-.97.12-.53.09-1.1.18-1.62.11-.53-.07-1.83-.28-2.2-.9-.32-.57-.2-1.77.24-2.4 3.38-4.76 7.76-7.62 13.03-8.48 7.04-1.17 13.4.44 18.89 4.76l2.3 1.82c1.64 1.31 3.35 2.66 5.06 3.96a6.31 6.31 0 0 1 2.63 4.84c.04.61.1 1.17.2 1.67.14.86.34 1.33.68 1.56.36.25.88.27 1.8.09.26-.05.53-.12.8-.2.8-.19 1.63-.4 2.35-.22 3.23.8 5.8 2.78 7.45 5.71.99 1.75.77 3.77-.58 5.56a334.3 334.3 0 0 1-7.88 10.02 5.47 5.47 0 0 1-7.62.96l-.74-.5c-.87-.58-1.79-1.18-2.35-2a14.44 14.44 0 0 1-1.76-4.3c-.43-1.56-.85-1.85-2.4-1.62-1.11.16-2.25.24-3.34.33-.88.07-1.79.14-2.68.25-.54.06-1.14.37-1.45.73a634.13 634.13 0 0 0-6.92 8.45l-.47.58c-.92 1.14-1.9 1.36-2.98.66-.43-.29-.7-.69-.78-1.16-.1-.64.16-1.4.74-2.11l4.46-5.49 2.52-3.1c.1-.12.2-.25.3-.42l.2-.27-.65-.52c-.52-.4-1-.78-1.47-1.2-.95-.86-1.08-1.85-.35-2.78.74-.95 1.72-1.07 2.76-.36.3.21.6.42.86.66 2.42 2.38 5.13 3 8.53 1.9a5.34 5.34 0 0 1 4.66.51c1.3.86 2.1 2.3 2.26 4.03.22 2.32 1.68 3.3 3.22 4.34l.2.13c.83.56 1.7.4 2.38-.47l.57-.71c2.25-2.84 4.58-5.78 6.83-8.7.73-.93.62-1.87-.32-2.64l-.54-.46c-.6-.5-1.2-1.03-1.88-1.39-.66-.34-1.47-.4-2.25-.47h-.1c-.27-.03-.54.06-.83.15a5.5 5.5 0 0 1-5.12-.87 5.1 5.1 0 0 1-1.97-3.8c-.17-2.64-1.14-4.35-3.26-5.74a35.72 35.72 0 0 1-3.22-2.48c-.95-.78-1.94-1.6-2.96-2.3-6.01-4.09-12.25-4.91-18.54-2.43-1.22.48-2.44 1.3-3.83 2.6l.42.07 1.08.21c4.31.95 6.87 3.77 7.38 8.15l.1 1.02c.16 1.72.3 3.34 1.37 4.83.71 1-.04 1.88-.7 2.65l-.1.12-3.44 4.08-12.6 14.91-1.83 2.17-1 1.21h46.58c2.53 0 3.05.52 3.06 3.1v2.95c0 4.85-1.36 6.73-6.02 8.37v31.11c-.01 7.2-4.66 11.84-11.84 11.84H58.21v.02ZM12.14 51.7c-1.53 0-2.26.56-2.3 1.76l-.01.54c-.07 2.1-.13 4.27.13 6.37.29 2.35 1.78 4.12 4.29 5.11.3.13.63.22.97.32l.49.15h.03v10.68c0 6.87-.01 13.97.01 20.94a11.44 11.44 0 0 0 3.24 8.12 11.26 11.26 0 0 0 8.05 3.22H130.1c7.14 0 11.74-4.62 11.76-11.77V65.98h.03c4.64-1.64 5.99-3.5 6-8.32v-2.92c-.01-2.55-.48-3.03-2.98-3.03H98.15l.06-.07 1.06-1.27 1.82-2.17 12.6-14.91 3.56-4.2c.64-.76 1.36-1.6.7-2.55-1.07-1.51-1.23-3.22-1.4-4.87-.02-.33-.06-.67-.1-1-.5-4.36-3.03-7.16-7.31-8.1l-1.08-.2-.5-.1-.08-.01.06-.06a12.77 12.77 0 0 1 3.91-2.65c6.32-2.5 12.58-1.67 18.62 2.44 1.04.7 2.01 1.52 2.97 2.3 1.03.85 2.09 1.73 3.22 2.47 2.13 1.4 3.12 3.15 3.29 5.81.1 1.51.78 2.84 1.94 3.74a5.66 5.66 0 0 0 4.56 1l.49-.15c.28-.09.58-.18.87-.15h.1c.8.07 1.61.13 2.28.48.68.36 1.3.89 1.9 1.4l.54.45c.97.8 1.09 1.78.33 2.77-2.25 2.9-4.58 5.85-6.83 8.7l-.57.7c-.7.9-1.61 1.07-2.48.48l-.2-.13c-1.56-1.04-3.02-2.03-3.26-4.4A5.21 5.21 0 0 0 137 33.5a5.27 5.27 0 0 0-4.6-.5c-3.42 1.1-6.15.48-8.6-1.93a5.87 5.87 0 0 0-.85-.65c-1-.69-1.94-.57-2.65.33-.7.9-.58 1.85.34 2.67.46.41.95.8 1.45 1.2l.68.54.03.03-.02.02-.2.3-.33.44-2.52 3.1-4.45 5.47c-.57.7-.83 1.43-.72 2.05.07.45.32.83.74 1.1 1.03.67 1.98.45 2.88-.65l.47-.57c2.26-2.79 4.59-5.66 6.92-8.45.32-.38.94-.7 1.5-.77.89-.1 1.8-.17 2.68-.24a42.2 42.2 0 0 0 3.33-.34c1.6-.23 2.06.08 2.5 1.67.4 1.41.88 3.03 1.75 4.28.56.81 1.45 1.4 2.33 1.98l.74.5a5.4 5.4 0 0 0 7.52-.94c2.43-2.97 5-6.24 7.87-10.02 1.34-1.75 1.55-3.74.58-5.46a11.52 11.52 0 0 0-7.4-5.67c-.7-.17-1.52.03-2.32.23-.26.07-.54.14-.8.19-.95.19-1.48.15-1.86-.1-.36-.25-.58-.74-.72-1.62a17.3 17.3 0 0 1-.2-1.68 6.25 6.25 0 0 0-2.6-4.79 221.68 221.68 0 0 1-5.07-3.96l-2.29-1.81a23.18 23.18 0 0 0-18.82-4.75c-5.25.87-9.62 3.7-12.98 8.45-.42.6-.54 1.78-.23 2.3.36.63 1.73.82 2.14.88.52.05 1.07-.03 1.6-.11.32-.05.65-.1.97-.13 2.3-.14 3.98.3 5.14 1.34 1.17 1.05 1.8 2.69 1.91 5.01.07 1.38.27 2.5.6 3.44.35.94.23 1.55-.44 2.35-3.4 3.98-6.82 8.04-10.14 11.97l-5.63 6.65c-.4.46-.77.98-1.14 1.49-.9 1.24-1.83 2.52-3.08 3.1-1.13.52-2.57.43-3.95.33-.75-.05-1.53-.1-2.25-.06-1.11.07-1.68-.3-2.2-1.4-2.72-5.85-5.51-11.77-8.2-17.5a2335.95 2335.95 0 0 1-5.35-11.35l-1.31-2.77.03-.02.88-.42c.6-.28 1.17-.54 1.71-.83.74-.4 1.19-.93 1.29-1.52.1-.58-.14-1.2-.68-1.83-2.14-2.4-4.33-4.81-6.44-7.16L61.17.95C60.31 0 59.4-.17 58.21.42l-.45.23c-1.88.93-3.8 1.9-5.75 2.76-1.44.62-1.93 1.6-1.58 3.15.08.36.14.73.2 1.1l.04.27.74 4.72c.56 3.57 1.14 7.27 1.73 10.91.13.86.48 1.46 1 1.75.53.29 1.25.25 2.06-.1.57-.25 1.12-.52 1.7-.8.27-.11.54-.25.81-.37l.04-.01.01.03.23.43c.14.28.27.51.38.76l3.26 6.9c2.25 4.8 4.58 9.74 6.9 14.6.36.79.82 1.28 1.37 1.47.42.14.87.1 1.34-.12 1.1-.53 1.34-1.59.7-2.98-.75-1.64-1.54-3.3-2.3-4.9l-.76-1.63-2-4.24-6.26-13.24c-.8-1.68-1.55-1.95-3.25-1.18l-1.81.82v-.05c-.15-.9-.3-1.77-.43-2.65-.59-3.7-1.13-7.18-1.66-10.72-.05-.33.19-.86.45-1 .99-.52 2.03-1.01 3.03-1.48l1.07-.5.03-.02 9.54 10.59-.05.02-.34.2c-.19.12-.36.22-.53.3-2.74 1.4-2.86 1.75-1.53 4.55l4.2 8.94 9.84 20.92c.17.35.32.7.5 1.13l.28.66.02.06h-4.33c-5.46 0-10.62 0-15.86-.04-.56 0-1.23-.48-1.67-.92-3.32-3.31-6.69-6.7-9.94-9.96-4.34-4.36-8.83-8.86-13.27-13.27-1.11-1.1-1.42-2.15-1.08-3.72 1.24-5.87-.55-10.8-5.18-14.24-5.08-3.77-10.28-4.36-15.5-1.76-.95.48-1.49 1.04-1.6 1.67-.1.64.24 1.35 1 2.13l3.16 3.17 2.7 2.7c1.8 1.83 1.8 3.01-.02 4.89a140.5 140.5 0 0 1-3.47 3.48c-1.57 1.52-2.9 1.52-4.44 0a413.1 413.1 0 0 1-3.55-3.56l-2.4-2.42c-.85-.85-1.58-1.2-2.23-1.1-.65.11-1.2.7-1.72 1.76-.4.84-.73 1.75-1.03 2.62l-.43 1.2v4.29l.13.35c.09.24.18.5.25.77 1.35 5.66 4.6 8.56 7.09 9.99a13.46 13.46 0 0 0 10.6 1.25c.98-.3 1.82-.04 2.64.82 1.55 1.61 3.17 3.2 4.72 4.76l.69.68c1.2 1.2 2.23 1.35 3.13.47.4-.38.6-.8.6-1.24 0-.58-.33-1.22-1-1.9a521.04 521.04 0 0 0-3.45-3.47l-2.17-2.19a5.93 5.93 0 0 0-5.98-1.67c-3.13.74-6.01.34-8.36-1.12-2.35-1.48-3.97-3.93-4.68-7.07-.24-1.02-.27-2.1-.3-3.15-.01-.48-.03-.97-.07-1.46v-.04l.6-.16.01.01 1.36 1.39c.99 1 2 2.06 3.03 3.06 2.82 2.77 6.5 2.8 9.39.09 1.38-1.31 2.7-2.66 3.9-3.91 1.56-1.62 2.34-3.32 2.32-5.05-.01-1.74-.83-3.43-2.42-5.03a177.9 177.9 0 0 0-2.86-2.79c-.45-.44-.91-.89-1.4-1.34l-.04-.05.05-.02.42-.2c.18-.1.29-.16.41-.18 3.63-.5 7.57.9 10.06 3.58 1.57 1.69 3.24 4.63 2.31 9.03-.65 3.08 0 5.3 2.18 7.44 4.93 4.85 9.89 9.84 14.68 14.67 1.75 1.78 3.5 3.54 5.27 5.31l.7.77.52.58.06.06H29.49l-4.75.01H12.17l-.04.03Zm98.38 53.38-82.9-.01c-5.26 0-8.03-2.81-8.03-8.13V65.86h7.79c1.64 0 2.56-.67 2.58-1.88 0-.5-.15-.92-.47-1.24-.42-.44-1.14-.68-2.06-.69l-5.28-.01h-4.68c-2.95-.02-3.9-.98-3.92-3.91v-2.56h21.4v5.84c0 1.51 0 3.08.03 4.6a6.03 6.03 0 0 0 5.87 6.03c1.58.09 3.13.07 4.44.03 3.38-.09 5.56-1.91 6.31-5.26l.13-.52.1-.36v-.03h54v.03l.09.44c.06.31.12.6.2.9a6.13 6.13 0 0 0 5.48 4.75c1.41.1 2.92.12 4.73.06a6.56 6.56 0 0 0 4.56-1.8 6.57 6.57 0 0 0 1.81-4.57c.07-2.61.04-5.28.02-7.86l-.02-1.06c0-.55.07-.85.28-1.06.18-.19.49-.27.94-.27 4.57.02 9.2.02 13.7.02h5.75c.1 0 .19.03.33.06l.3.08h.02v.03l.02 1.19c.02.89.05 1.81-.05 2.7-.18 1.55-1.36 2.45-3.25 2.48-2.23.03-4.49.03-6.67.03h-4.19c-1.4.07-2.24.78-2.24 1.9 0 1.14.9 1.88 2.25 1.9h8.1v.04l.04.64c.02.39.04.77.04 1.13v29.21c0 5.37-2.82 8.2-8.14 8.2h-19.38l-.04.01ZM19.65 65.94v30.99c0 5.27 2.75 8.05 7.96 8.05 32.44.02 65.9.02 102.28.02 2.64 0 4.66-.7 6.02-2.07 1.35-1.36 2.04-3.4 2.05-6.06v-29.2c0-.37-.02-.73-.05-1.14l-.03-.6h-8.03c-1.4-.01-2.32-.78-2.33-1.97 0-1.16.88-1.92 2.32-1.98h4.2c2.19 0 4.45 0 6.67-.03 1.84-.02 3-.9 3.17-2.4.1-.9.08-1.81.05-2.7l-.02-1.16a3.4 3.4 0 0 1-.26-.07 1.24 1.24 0 0 0-.31-.06h-5.76c-4.48 0-9.13 0-13.69-.02-.43 0-.71.08-.89.25-.18.18-.25.48-.25 1l.02 1.06c.03 2.58.05 5.25-.02 7.86a6.62 6.62 0 0 1-1.83 4.63 6.63 6.63 0 0 1-4.6 1.82c-1.83.05-3.33.03-4.75-.06a6.21 6.21 0 0 1-5.56-4.8l-.2-.92a8.04 8.04 0 0 1-.07-.4H51.87l-.08.33-.13.52c-.77 3.39-2.97 5.23-6.4 5.32-1.3.04-2.85.06-4.44-.03a6.11 6.11 0 0 1-5.94-6.1c-.05-1.53-.04-3.1-.03-4.6v-5.77H13.6v2.48c.01 2.88.95 3.8 3.84 3.82h4.67c1.73 0 3.52 0 5.28.02.94 0 1.68.25 2.12.7.34.34.5.78.49 1.31-.02 1.25-.96 1.95-2.66 1.96h-7.71.02Zm23.64 2.39c-.7 0-1.42-.02-2.12-.07-1.52-.09-2.38-.98-2.42-2.52-.06-2.75-.06-5.76 0-9.2 0-.37.51-1 .8-1.01 2.1-.06 4.16-.05 6.35-.05h1.97v3.13c0 2.45.01 4.78-.02 7.13-.02 1.49-.92 2.44-2.41 2.52-.72.05-1.44.07-2.16.07h.01Zm.78-12.77c-1.53 0-3 0-4.5.05-.26 0-.74.6-.74.92-.06 3.45-.06 6.47 0 9.2.04 1.5.87 2.37 2.34 2.45 1.41.1 2.84.1 4.27 0 1.46-.08 2.31-.98 2.33-2.44.03-2.35.02-4.67.02-7.13v-3.05h-3.72Zm70.2 12.77c-.72 0-1.41-.02-2.1-.06-1.5-.1-2.41-1.03-2.43-2.51-.04-2.36-.03-4.67-.02-7.13v-3.07h9.18v5.48c0 1.48.02 3.02-.02 4.53-.03 1.67-.95 2.63-2.58 2.7-.71.05-1.4.06-2.04.06Zm-4.47-12.7v3c-.01 2.45-.02 4.76.02 7.11.02 1.44.9 2.35 2.36 2.44 1.3.08 2.65.08 4.13.01 1.6-.08 2.46-.99 2.5-2.63.03-1.5.03-3.04.02-4.52v-5.41h-9.03Zm-3.98 6.32H51.84v-6.37h53.98v6.37Zm-53.9-.08h53.82v-6.21H51.93v6.21Z" mask="url(#b)"/>
</svg>
