<svg width="83" height="84" viewBox="0 0 83 84" fill="none" xmlns="http://www.w3.org/2000/svg">
  <path
    d="M18.9 22.7C25.2 22.7 30.3 17.6 30.3 11.3C30.3 5 25.2 0 18.9 0C12.6 0 7.5 5.1 7.5 11.4C7.5 17.7 12.6 22.7 18.9 22.7ZM18.9 2.9C23.5 2.9 27.3 6.7 27.3 11.3C27.3 15.9 23.5 19.7 18.9 19.7C14.3 19.7 10.5 15.9 10.5 11.3C10.5 6.7 14.3 2.9 18.9 2.9Z"
    fill="currentColor" />
  <path
    d="M78.3 80.6H67.1V70.8C76.9 70.2 82.7 64 82.7 53.8C82.7 48.2 80.9 41.8 77.9 36.9C73.7 30 68 26.9 62.3 28.8C61.5 29.1 61.1 29.9 61.4 30.7C61.7 31.5 62.5 31.9 63.3 31.6C64.1 31.3 64.9 31.2 65.6 31.2C73.2 31.2 79.7 43.6 79.7 53.7C79.7 65.1 71.8 67.3 67.1 67.7V60.1L73.6 54.9C74.2 54.4 74.4 53.4 73.8 52.8C73.3 52.2 72.3 52.1 71.7 52.6L67.1 56.3V51C67.1 50.2 66.4 49.5 65.6 49.5C64.8 49.5 64.1 50.2 64.1 51V67.8C61.2 67.6 58.8 66.8 56.8 65.5C60.8 61.9 62.8 57 62.8 51C62.8 45.9 61.3 39.5 58.6 33.5C54 23.2 47.6 17 41.5 17C35.4 17 29 23.2 24.4 33.5C21.7 39.5 20.2 45.9 20.2 51C20.2 57 22.3 61.9 26.2 65.5C24.2 66.8 21.8 67.6 18.9 67.8V53.8C18.9 53 18.2 52.3 17.4 52.3C16.6 52.3 16 53 16 53.8V57.9L12.7 55.4C12 54.9 11.1 55 10.6 55.7C10.1 56.4 10.2 57.3 10.9 57.8L16 61.6V67.8C11.3 67.4 3.5 65.1 3.5 53.8C3.5 43.7 9.99998 31.3 17.6 31.3C18.8 31.3 20 31.6 21.1 32.2C21.8 32.6 22.7 32.3 23.1 31.6C23.5 30.9 23.2 30 22.5 29.6C20.9 28.8 19.2 28.3 17.6 28.3C13.1 28.3 8.69999 31.4 5.29999 36.9C2.29999 41.8 0.5 48.1 0.5 53.8C0.5 64 6.3 70.2 16 70.8V80.6H4.79999C3.99999 80.6 3.29999 81.3 3.29999 82.1C3.29999 82.9 3.99999 83.6 4.79999 83.6H78.4C79.2 83.6 79.9 82.9 79.9 82.1C79.9 81.3 79.1 80.6 78.3 80.6ZM64.1 80.6H43V70.8C47.2 70.6 51.1 69.4 54.3 67.3C56.9 69.3 60.2 70.5 64.1 70.7V80.6ZM23.2 51C23.2 46.3 24.6 40.3 27.1 34.7C31.1 25.7 36.7 20 41.5 20C46.3 20 51.9 25.8 55.9 34.7C58.4 40.3 59.8 46.3 59.8 51C59.8 56.7 57.6 61.3 53.5 64.3C53.5 64.3 53.5 64.3 53.4 64.3C50.6 66.4 46.9 67.6 42.9 67.8V57.2L51 49.1C51.6 48.5 51.6 47.6 51 47C50.4 46.4 49.5 46.4 48.9 47L43 53V42.5C43 41.7 42.3 41 41.5 41C40.7 41 40 41.7 40 42.5V56.6V67.8C36 67.6 32.4 66.3 29.6 64.3C25.4 61.3 23.2 56.7 23.2 51ZM19 70.8C22.9 70.6 26.2 69.4 28.8 67.4C32 69.4 35.9 70.6 40.1 70.9V80.7H19V70.8Z"
    fill="currentColor" />
</svg>
  