<svg xmlns="http://www.w3.org/2000/svg" fill="none" viewBox="0 0 127 96">
  <path fill="currentcolor" stroke="currentcolor" d="M105.92 83.9a1.33 1.33 0 1 1-2.66-.01 1.33 1.33 0 0 1 2.66 0Zm-53.94 0a1.33 1.33 0 1 1-2.67 0 1.33 1.33 0 0 1 2.67 0Zm-28.26 0a1.33 1.33 0 1 1-2.66 0 1.33 1.33 0 0 1 2.66 0Zm70.6-26.99h5.13a1.33 1.33 0 1 1 0 2.67h-5.13a1.33 1.33 0 1 1 0-2.67Z"/>
  <mask id="a" fill="#fff">
    <path d="M126.97 53.12c0-.29-.06-.56-.2-.83l-12.84-25.65a1.8 1.8 0 0 0-1.64-1H84.04c-1.01 0-1.84.81-1.84 1.83v34.08h-6.6v-4.58c0-2.51-1.65-4.7-4.1-5.43l-.33-.1-.14-.3-4.57-10.4-.16-.37.24-.34a7.03 7.03 0 0 0 0-8.12l-.14-.2c-.83-1.16-5.53-7.61-7.42-10.2a1.86 1.86 0 0 0-2.57-.39c-.81.6-1 1.73-.4 2.57l7.58 10.36a3.33 3.33 0 0 1-.72 4.61 3.33 3.33 0 0 1-4.62-.72L37.08 8.9a3.35 3.35 0 0 1 .73-4.62 3.34 3.34 0 0 1 4.61.72l7.56 10.4a1.85 1.85 0 0 0 2.58.39c.8-.6.98-1.73.39-2.57L45.37 2.87a6.98 6.98 0 0 0-9.71-1.53 6.81 6.81 0 0 0-2.77 4.58l-.01.1c-.22 1.24-2.4 14.31-3.58 21.27l-.22 1.33-1-.9-13.25-12.06a5.7 5.7 0 0 0-8.03.36l-1.72 1.9a5.69 5.69 0 0 0 .38 8.03L29 47.36a7.17 7.17 0 0 0 4.85 1.87c2.87 0 6.26-1.79 6.93-5.7l.24-1.48 2.6-15.84.29-1.74 1.03 1.42 3.12 4.29 7.19 9.85.28.35-.19.4-4.54 10.36-.14.32-.33.09a5.65 5.65 0 0 0-4.1 5.43v4.58h-5.87a1.84 1.84 0 0 0 0 3.66h43.67c1 0 1.84-.82 1.84-1.83V29.3h6.6v18.68c0 .9.64 1.68 1.54 1.82l28.67 4.78.61.1v6.87h-3.3a1.84 1.84 0 0 0 0 3.66h3.3v6.6H3.66v-6.6H30.1a1.84 1.84 0 0 0 0-3.66h-5.87v-3.3a6.97 6.97 0 0 0-6.97-6.96H12.1a6.97 6.97 0 0 0-6.97 6.96v3.3h-3.3c-1.01 0-1.84.81-1.84 1.83V83.9c0 1 .82 1.83 1.84 1.83h8.56l.12.59A12.16 12.16 0 0 0 22.39 96c5.72 0 10.7-4.07 11.87-9.67l.12-.59h4.28l.13.59A12.16 12.16 0 0 0 50.65 96c5.73 0 10.71-4.07 11.87-9.67l.13-.59h8.56a1.84 1.84 0 0 0 0-3.67h-8.56l-.12-.58a11.76 11.76 0 0 0-2.25-4.83l-.92-1.18H95.9l-.92 1.18a11.76 11.76 0 0 0-2.25 4.83l-.11.58H81.49a1.84 1.84 0 0 0 0 3.67h11.13l.12.59A12.16 12.16 0 0 0 104.61 96c5.72 0 10.7-4.07 11.87-9.67l.12-.59h8.56c1.01 0 1.84-.82 1.84-1.83V53.12h-.03ZM11.32 26.29l-.55-.5-2.85-2.6a2.03 2.03 0 0 1-.13-2.85l1.73-1.87c.4-.42.93-.65 1.5-.65.5 0 .98.18 1.34.53l2.84 2.58.54.5-.49.54-3.44 3.77-.5.54Zm17.01 7-1 6.04-.22 1.32-1-.9-11.53-10.5-.54-.49.5-.54 3.43-3.8.5-.54.54.5 9.09 8.25.3.27-.07.4Zm12.5-12.68c-1 6.06-3.61 21.8-3.68 22.29a3.35 3.35 0 0 1-3.8 2.73c-1.79-.3-3-2-2.71-3.79l4.52-27.3.29-1.73 1.03 1.43a629 629 0 0 0 4.24 5.81l.18.25-.05.3h-.01ZM55.2 50.25l3.16-7.23.24-.56.6.14a7.9 7.9 0 0 0 1.89.24c.54 0 1.07-.06 1.57-.19l.6-.14.25.56 3.15 7.18.45 1.03H54.74l.45-1.03Zm16.74 10.56v.73H49.9v-4.58a2 2 0 0 1 2.01-2.01H69.9a2 2 0 0 1 2.02 2.01v3.85Zm48.54-10.33-23.7-3.95-.63-.1V29.3h15l.21.4 9.89 19.73.65 1.3-1.43-.24.01-.01ZM8.81 60.8v-2.57a3.3 3.3 0 0 1 3.3-3.3h5.14a3.3 3.3 0 0 1 3.3 3.3v3.3H8.81v-.73Zm3.97 15.84a11.76 11.76 0 0 0-2.25 4.82l-.12.59H3.7v-6.6h10l-.91 1.19Zm9.6 15.67a8.44 8.44 0 0 1-8.43-8.43 8.44 8.44 0 0 1 16.88 0 8.44 8.44 0 0 1-8.44 8.43Zm18.65-15.67a11.76 11.76 0 0 0-2.25 4.82l-.12.59h-4.28l-.11-.59a11.76 11.76 0 0 0-2.25-4.82l-.92-1.18h10.85l-.92 1.18Zm9.62 15.67a8.44 8.44 0 0 1-8.44-8.43 8.44 8.44 0 0 1 16.88 0 8.44 8.44 0 0 1-8.44 8.43Zm53.94 0a8.44 8.44 0 0 1-8.44-8.43 8.44 8.44 0 0 1 16.88 0 8.44 8.44 0 0 1-8.44 8.43ZM123.3 76.2v5.86h-6.73l-.11-.59a11.75 11.75 0 0 0-2.25-4.82l-.92-1.18h10.01v.73Z"/>
  </mask>
  <path fill="currentcolor" stroke="currentcolor" stroke-width="2" d="M126.97 53.12c0-.29-.06-.56-.2-.83l-12.84-25.65a1.8 1.8 0 0 0-1.64-1H84.04c-1.01 0-1.84.81-1.84 1.83v34.08h-6.6v-4.58c0-2.51-1.65-4.7-4.1-5.43l-.33-.1-.14-.3-4.57-10.4-.16-.37.24-.34a7.03 7.03 0 0 0 0-8.12l-.14-.2c-.83-1.16-5.53-7.61-7.42-10.2a1.86 1.86 0 0 0-2.57-.39c-.81.6-1 1.73-.4 2.57l7.58 10.36a3.33 3.33 0 0 1-.72 4.61 3.33 3.33 0 0 1-4.62-.72L37.08 8.9a3.35 3.35 0 0 1 .73-4.62 3.34 3.34 0 0 1 4.61.72l7.56 10.4a1.85 1.85 0 0 0 2.58.39c.8-.6.98-1.73.39-2.57L45.37 2.87a6.98 6.98 0 0 0-9.71-1.53 6.81 6.81 0 0 0-2.77 4.58l-.01.1c-.22 1.24-2.4 14.31-3.58 21.27l-.22 1.33-1-.9-13.25-12.06a5.7 5.7 0 0 0-8.03.36l-1.72 1.9a5.69 5.69 0 0 0 .38 8.03L29 47.36a7.17 7.17 0 0 0 4.85 1.87c2.87 0 6.26-1.79 6.93-5.7l.24-1.48 2.6-15.84.29-1.74 1.03 1.42 3.12 4.29 7.19 9.85.28.35-.19.4-4.54 10.36-.14.32-.33.09a5.65 5.65 0 0 0-4.1 5.43v4.58h-5.87a1.84 1.84 0 0 0 0 3.66h43.67c1 0 1.84-.82 1.84-1.83V29.3h6.6v18.68c0 .9.64 1.68 1.54 1.82l28.67 4.78.61.1v6.87h-3.3a1.84 1.84 0 0 0 0 3.66h3.3v6.6H3.66v-6.6H30.1a1.84 1.84 0 0 0 0-3.66h-5.87v-3.3a6.97 6.97 0 0 0-6.97-6.96H12.1a6.97 6.97 0 0 0-6.97 6.96v3.3h-3.3c-1.01 0-1.84.81-1.84 1.83V83.9c0 1 .82 1.83 1.84 1.83h8.56l.12.59A12.16 12.16 0 0 0 22.39 96c5.72 0 10.7-4.07 11.87-9.67l.12-.59h4.28l.13.59A12.16 12.16 0 0 0 50.65 96c5.73 0 10.71-4.07 11.87-9.67l.13-.59h8.56a1.84 1.84 0 0 0 0-3.67h-8.56l-.12-.58a11.76 11.76 0 0 0-2.25-4.83l-.92-1.18H95.9l-.92 1.18a11.76 11.76 0 0 0-2.25 4.83l-.11.58H81.49a1.84 1.84 0 0 0 0 3.67h11.13l.12.59A12.16 12.16 0 0 0 104.61 96c5.72 0 10.7-4.07 11.87-9.67l.12-.59h8.56c1.01 0 1.84-.82 1.84-1.83V53.12h-.03ZM11.32 26.29l-.55-.5-2.85-2.6a2.03 2.03 0 0 1-.13-2.85l1.73-1.87c.4-.42.93-.65 1.5-.65.5 0 .98.18 1.34.53l2.84 2.58.54.5-.49.54-3.44 3.77-.5.54Zm17.01 7-1 6.04-.22 1.32-1-.9-11.53-10.5-.54-.49.5-.54 3.43-3.8.5-.54.54.5 9.09 8.25.3.27-.07.4Zm12.5-12.68c-1 6.06-3.61 21.8-3.68 22.29a3.35 3.35 0 0 1-3.8 2.73c-1.79-.3-3-2-2.71-3.79l4.52-27.3.29-1.73 1.03 1.43a629 629 0 0 0 4.24 5.81l.18.25-.05.3h-.01ZM55.2 50.25l3.16-7.23.24-.56.6.14a7.9 7.9 0 0 0 1.89.24c.54 0 1.07-.06 1.57-.19l.6-.14.25.56 3.15 7.18.45 1.03H54.74l.45-1.03Zm16.74 10.56v.73H49.9v-4.58a2 2 0 0 1 2.01-2.01H69.9a2 2 0 0 1 2.02 2.01v3.85Zm48.54-10.33-23.7-3.95-.63-.1V29.3h15l.21.4 9.89 19.73.65 1.3-1.43-.24.01-.01ZM8.81 60.8v-2.57a3.3 3.3 0 0 1 3.3-3.3h5.14a3.3 3.3 0 0 1 3.3 3.3v3.3H8.81v-.73Zm3.97 15.84a11.76 11.76 0 0 0-2.25 4.82l-.12.59H3.7v-6.6h10l-.91 1.19Zm9.6 15.67a8.44 8.44 0 0 1-8.43-8.43 8.44 8.44 0 0 1 16.88 0 8.44 8.44 0 0 1-8.44 8.43Zm18.65-15.67a11.76 11.76 0 0 0-2.25 4.82l-.12.59h-4.28l-.11-.59a11.76 11.76 0 0 0-2.25-4.82l-.92-1.18h10.85l-.92 1.18Zm9.62 15.67a8.44 8.44 0 0 1-8.44-8.43 8.44 8.44 0 0 1 16.88 0 8.44 8.44 0 0 1-8.44 8.43Zm53.94 0a8.44 8.44 0 0 1-8.44-8.43 8.44 8.44 0 0 1 16.88 0 8.44 8.44 0 0 1-8.44 8.43ZM123.3 76.2v5.86h-6.73l-.11-.59a11.75 11.75 0 0 0-2.25-4.82l-.92-1.18h10.01v.73Z" mask="url(#a)"/>
</svg>