<svg xmlns="http://www.w3.org/2000/svg" fill="none" viewBox="0 0 128 115">
  <path stroke="currentcolor" stroke-linecap="round" stroke-linejoin="round" stroke-width="5" d="M64.007 91.399c3.22 0 5.83-2.616 5.83-5.842 0-3.227-2.61-5.843-5.83-5.843-3.219 0-5.829 2.616-5.829 5.843 0 3.226 2.61 5.842 5.83 5.842Zm5.829-48.665c0-3.226-2.61-5.842-5.829-5.842s-5.829 2.616-5.829 5.842c0 .153.037.305.044.458l1.928 25.15c.16 2.005 1.813 3.59 3.857 3.59 2.045 0 3.698-1.585 3.857-3.59l1.929-25.15c.014-.153.043-.298.043-.458Z"/>
  <path stroke="currentcolor" stroke-linecap="round" stroke-linejoin="round" stroke-width="5" d="M123.579 96.115 73.157 8.334C71.322 5.158 67.936 3 64.006 3c-3.93 0-7.315 2.158-9.149 5.334L4.435 96.115C3.544 97.67 3 99.443 3 101.37 3 107.24 7.749 112 13.607 112h100.787c5.857 0 10.606-4.76 10.606-10.631 0-1.918-.551-3.699-1.435-5.254h.014Z"/>
</svg>