<svg width="74" height="83" viewBox="0 0 74 83" fill="none" xmlns="http://www.w3.org/2000/svg">
  <path
    d="M35.6 67.6C23.5 67.6 13.7 57.8 13.7 45.7C13.7 34.1 33.6 3.79999 34.4 2.59999L35.6 0.799988L36.8 2.59999C37.6 3.89999 57.5 34.1 57.5 45.7C57.5 57.7 47.7 67.6 35.6 67.6ZM35.6 5.89998C31.2 12.7 16.6 36.4 16.6 45.6C16.6 56.1 25.1 64.6 35.6 64.6C46.1 64.6 54.6 56.1 54.6 45.6C54.6 36.4 39.9 12.8 35.6 5.89998Z"
    fill="currentColor" />
  <path
    d="M35.5 60.5C27.5 60.5 21 54 21 46C21 45.2 21.6 44.6 22.4 44.6C23.2 44.6 23.8 45.2 23.8 46C23.8 52.4 29 57.7 35.5 57.7C36.3 57.7 36.9 58.3 36.9 59.1C36.9 59.9 36.3 60.5 35.5 60.5Z"
    fill="currentColor" />
  <path
    d="M35.6 75.1C22.2 75.1 8.59998 72 8.59998 66.2C8.59998 63.9 10.6 61.9 14.6 60.4C15.3 60.1 16.2 60.5 16.5 61.2C16.8 61.9 16.4 62.8 15.7 63.1C12.6 64.3 11.5 65.6 11.5 66.3C11.5 68.4 19.8 72.4 35.6 72.4C51.4 72.4 59.7 68.5 59.7 66.3C59.7 65.5 58.4 64.1 54.7 62.8C53.9 62.5 53.6 61.7 53.8 61C54.1 60.2 54.9 59.9 55.6 60.1C61.3 62.1 62.5 64.6 62.5 66.3C62.6 72 49 75.1 35.6 75.1Z"
    fill="currentColor" />
  <path
    d="M1.80001 62.3C1.40001 62.3 1.10001 62.2 0.80001 61.9C0.20001 61.4 0.200035 60.4 0.700035 59.9C2.70003 57.8 5.60005 56 9.40005 54.4C10.1 54.1 11 54.5 11.3 55.2C11.6 55.9 11.2 56.8 10.5 57.1C7.10002 58.5 4.50001 60.1 2.80001 61.9C2.60001 62.1 2.20001 62.3 1.80001 62.3Z"
    fill="currentColor" />
  <path
    d="M35.5999 82.3C29.9999 82.3 24.5 81.8 19.5 80.8C18.7 80.6 18.2 79.9 18.4 79.1C18.6 78.3 19.2999 77.8 20.0999 78C24.9999 79 30.1999 79.5 35.5999 79.5C38.1999 79.5 40.8 79.4 43.4 79.1C44.2 79 44.9 79.6 45 80.4C45.1 81.2 44.5 81.9 43.7 82C41 82.2 38.2999 82.3 35.5999 82.3Z"
    fill="currentColor" />
  <path
    d="M66.7 75C66.2 75 65.8 74.8 65.5 74.4C65.1 73.7 65.2 72.8 65.9 72.4C67.9 71 70.3 68.8 70.3 66.1C70.3 62.7 66.5 59.3 59.9 56.7C59.2 56.4 58.8 55.6 59.1 54.8C59.4 54 60.2 53.7 61 54C68.9 57 73.3 61.3 73.3 66.1C73.3 69.2 71.3 72.3 67.6 74.8C67.3 75 67 75 66.7 75Z"
    fill="currentColor" />
</svg>
  