<svg width="83" height="82" viewBox="0 0 83 82" fill="none" xmlns="http://www.w3.org/2000/svg">
  <path
    d="M82.4 48.3C82.4 47.5 81.6 46.9 80.8 46.9C67 47.7 54 49.7 41.8 52.8C28.5 49.4 16 47.5 2.39999 47C1.59999 46.9 0.900015 47.6 0.800015 48.4C0.800015 49.2 1.39992 49.9 2.19992 50C13.7999 50.5 24.5999 51.9 35.6999 54.5C23.2999 58.1 11.9 62.8 1.49997 68.7C0.799967 69.1 0.499991 70 0.899991 70.7C1.19999 71.2 1.69992 71.5 2.19992 71.5C2.49992 71.5 2.69999 71.4 2.89999 71.3C24.6 59 50.8 51.8 80.8 50C81.8 49.8 82.4 49.1 82.4 48.3Z"
    fill="currentColor" />
  <path
    d="M82.4 57.5C82.3 56.7 81.6 56 80.8 56.1C68.1 57 33.0999 65.9 14.1999 78.8C13.4999 79.3 13.3 80.2 13.8 80.9C14.1 81.3 14.5999 81.6 14.9999 81.6C15.2999 81.6 15.6 81.5 15.8 81.3C34.3 68.7 68.5 60 80.9 59.1C81.8 59 82.4 58.3 82.4 57.5Z"
    fill="currentColor" />
  <path
    d="M82.3 68.4C82.2 67.6 81.3999 67 80.5999 67.2C73.2999 68.4 57.7 72.2 45.9 78.8C45.2 79.2 44.9 80.1 45.3 80.8C45.6 81.3 46.0999 81.6 46.5999 81.6C46.7999 81.6 47.1 81.5 47.3 81.4C58.7 75 73.9 71.4 81 70.2C81.9 70 82.5 69.2 82.3 68.4Z"
    fill="currentColor" />
  <path
    d="M40.1 44.7V48.4C40.1 49.2 40.8 49.9 41.6 49.9C42.4 49.9 43.1 49.2 43.1 48.4V44.7C50.9 43.9 57 37.4 57 29.4V28.5L56.2 28.1C55.4 27.7 54.7 27.4 54 27.2C56 24.6 57.1 21.4 57.1 18V17.1V10.4C57.1 9.6 56.4 8.9 55.6 8.9C54.8 8.9 54.1 9.6 54.1 10.4V15.8C52.2 15.2 50.6 15.2 50.5 15.2C50.1 15.2 49.7 15.2 49.2 15.3C48.4 10.1 45.2 6.8 43.1 5.6V1.5C43.1 0.7 42.4 0 41.6 0C40.8 0 40.1 0.7 40.1 1.5V5.6C38 6.8 34.8 10.1 34 15.3C33.6 15.2 33.2 15.2 32.7 15.2C32.6 15.2 31.1 15.2 29.1 15.8V10.4C29.1 9.6 28.4 8.9 27.6 8.9C26.8 8.9 26.1 9.6 26.1 10.4V17.1V18C26.1 21.4 27.2 24.5 29.2 27.2C28.5 27.4 27.7 27.7 27 28.1L26.2 28.5V29.4C26.2 37.4 32.3 44 40.1 44.7ZM41.6 8.1C42.6 8.6 45.7 11.1 46.3 16.1C44.4 16.9 42.7 18.2 41.6 19.8C40.5 18.2 38.8 16.9 36.9 16.1C37.6 11.2 40.7 8.7 41.6 8.1ZM29.2 18.9C31 18.2 32.7 18.2 32.7 18.2C36 18.2 40.1 20.9 40.1 24.3H43.1C43.1 20.9 47.1 18.2 50.5 18.2C50.5 18.2 52.2 18.2 54 18.9C53.8 21.8 52.6 24.5 50.5 26.6C47.2 26.6 43.6 28.4 41.6 31.2C39.6 28.4 36.1 26.6 32.7 26.6C30.7 24.5 29.4 21.8 29.2 18.9ZM32.2 29.6C32.6 29.6 32.8 29.6 32.8 29.6C36.1 29.6 40.2 32.3 40.2 35.7H43.2C43.2 32.3 47.2 29.6 50.6 29.6C50.6 29.6 50.8 29.6 51.1 29.6H51.2C51.9 29.7 52.9 29.8 54.1 30.3C53.6 36.7 48.2 41.8 41.7 41.8C35.2 41.8 29.8 36.7 29.3 30.3C30.4 29.9 31.5 29.7 32.2 29.6Z"
    fill="currentColor" />
</svg>
  