<svg width="80" height="83" viewBox="0 0 80 83" fill="none" xmlns="http://www.w3.org/2000/svg">
  <path
    d="M40 44.3C43.5 44.3 47.6 41.5 47.6 28.4C47.6 17.4 41.6 3.70001 41.3 3.20001L40 0.200012L38.7 3.20001C38.4 3.80001 32.4 17.5 32.4 28.4C32.4 41.5 36.6 44.3 40 44.3ZM40 7.60002C41.8 12.3 44.7 21.1 44.7 28.4C44.7 36.7 43 41.4 40 41.4C37 41.4 35.3 36.7 35.3 28.4C35.3 21.1 38.3 12.2 40 7.60002Z"
    fill="currentColor" />
  <path
    d="M77.5 66.5C77.1 66 68.3 53.9 58.8 48.4C54.2 45.7 50.4 44.3 47.5 44.1C43.8 43.8 42.1 45.5 41.2 47C40.4 48.5 39.8 50.8 41.8 53.9C43.4 56.3 46.6 58.9 51.1 61.6C60.6 67.1 75.5 68.7 76.1 68.8L79.3 69.1L77.5 66.5ZM52.6 59.1C48.4 56.7 45.6 54.4 44.2 52.3C42.7 50.1 43.5 48.8 43.7 48.4C43.9 48 44.7 46.8 47.3 46.9C49.8 47.1 53.2 48.4 57.3 50.8C63.6 54.4 69.8 61.5 72.9 65.3C68 64.6 58.9 62.7 52.6 59.1Z"
    fill="currentColor" />
  <path
    d="M39.4 51.4C39.8 49.9 39.6 48.3 38.9 47C38.1 45.7 36.9 44.7 35.4 44.3C32.3 43.5 28 44.6 22.3 47.7L21.3 48.2C11.8 53.6 2.9 65.7 2.5 66.2L0.599976 68.8L3.79999 68.5C4.39999 68.4 19.3 66.9 28.8 61.5C35.1 58 38.5 54.7 39.4 51.4ZM7 65.2C10 61.5 15.8 55 21.8 51.3L22.7 50.8C29.5 46.9 32.9 46.7 34.6 47.1C35.4 47.3 36 47.8 36.4 48.4C36.8 49.1 36.9 49.8 36.7 50.6C36.2 52.3 34.3 55.1 27.5 59C21.1 62.6 11.9 64.4 7 65.2Z"
    fill="currentColor" />
  <path
    d="M74.6 45.3C74.6 49.4 73.9 53.5 72.5 57.3C72.2 58 72.6 58.9 73.4 59.1C73.6 59.2 73.7 59.2 73.9 59.2C74.5 59.2 75 58.8 75.3 58.3C76.8 54.1 77.6 49.7 77.6 45.3C77.6 34.1 72.6 23.5 64 16.4C63.4 15.9 62.5 16 62 16.6C61.5 17.2 61.6 18.1 62.2 18.6C70 25.2 74.6 34.9 74.6 45.3Z"
    fill="currentColor" />
  <path
    d="M54.1 76.9C44.6 81.1 33.9 80.9 24.6 76.3C20.9 74.5 17.6 72 14.8 69C14.3 68.4 13.3 68.4 12.8 68.9C12.2 69.4 12.2 70.4 12.7 70.9C15.7 74.1 19.3 76.8 23.3 78.8C28.6 81.4 34.3 82.7001 40 82.7001C45.2 82.7001 50.4 81.6 55.3 79.4C56 79.1 56.4 78.2 56 77.5C55.7 76.9 54.9 76.5 54.1 76.9Z"
    fill="currentColor" />
  <path
    d="M4.09996 42.4C4.19996 42.4 4.19997 42.4 4.29997 42.4C4.99997 42.4 5.6 41.9 5.7 41.1C7 30.8 12.7 21.7 21.4 16.1C24.9 13.9 28.7 12.3 32.7 11.4C33.5 11.2 34 10.5 33.8 9.7C33.6 8.9 32.9 8.40001 32.1 8.60001C27.8 9.50001 23.7 11.2 19.9 13.6C10.4 19.6 4.20001 29.5 2.90001 40.6C2.80001 41.5 3.29996 42.3 4.09996 42.4Z"
    fill="currentColor" />
  <path
    d="M67.4 53.8C67.5 53.8 67.6 53.8 67.8 53.8C68.4 53.8 69 53.4 69.2 52.7C69.8 50.3 70.1 47.8 70.1 45.3C70.1 41.9 69.5 38.5 68.4 35.3C68.1 34.6 67.3 34.2 66.6 34.4C65.8 34.7 65.5 35.5 65.7 36.2C66.7 39.1 67.2 42.1 67.2 45.2C67.2 47.5 66.9 49.7 66.4 51.9C66.1 52.8 66.6 53.6 67.4 53.8Z"
    fill="currentColor" />
  <path
    d="M27.8 69.4C25.8 68.4 23.9 67.1 22.2 65.6C21.6 65.1 20.7 65.1001 20.2 65.7001C19.7 66.3001 19.7 67.2001 20.3 67.7001C22.2 69.3001 24.3 70.7 26.5 71.9C29.5 73.4 32.8 74.4 36.2 74.9C36.3 74.9 36.3 74.9 36.4 74.9C37.1 74.9 37.7 74.4 37.8 73.6C37.9 72.8 37.3 72.1 36.6 72C33.5 71.7 30.5 70.8 27.8 69.4Z"
    fill="currentColor" />
  <path
    d="M30.6 16.8C28.2 17.6 26 18.7 23.9 20C21 21.8 18.5 24.1 16.5 26.8C16 27.4 16.1 28.3 16.8 28.8C17.1 29 17.4 29.1 17.7 29.1C18.1 29.1 18.6 28.9 18.8 28.5C20.7 26.1 22.9 24 25.5 22.3C27.4 21.1 29.4 20.1 31.6 19.4C32.4 19.1 32.8 18.3 32.5 17.6C32.1 17 31.3 16.6 30.6 16.8Z"
    fill="currentColor" />
</svg>
  