<svg width="89" height="69" viewBox="0 0 89 69" fill="none" xmlns="http://www.w3.org/2000/svg">
  <path
    d="M37 21.6C36.5 15.2 32 11.4 27.8 9.99999C23.2 8.39999 18.5 9.39998 15.8 12.4C12.8 15.8 12 20.8 13.7 24.7C15 27.6 17.7 29.3 21 29.3C25.8 29.3 27.8 26 28.2 23.2C28.5 20 26.9 17.2 24.4 16.6C23.6 16.4 22.8 16.9 22.6 17.8C22.4 18.6 22.9 19.4 23.8 19.6C24.7 19.8 25.4 21.3 25.2 22.9C25.1 23.9 24.5 26.3 21 26.3C18.3 26.3 17 24.7 16.4 23.4C15.2 20.6 15.8 16.8 18 14.4C19.9 12.3 23.3 11.7 26.7 12.8C29.9 13.9 33.5 16.8 33.8 21.7C34.1 25.6 32.8 29.1 30.1 32C26.7 35.6 21.5 37.7 15.9 37.7H1.90002C1.10002 37.7 0.400024 38.4 0.400024 39.2C0.400024 40 1.10002 40.7 1.90002 40.7H15.9C22.4 40.7 28.3 38.3 32.3 34C35.8 30.7 37.4 26.3 37 21.6Z"
    fill="currentColor" />
  <path
    d="M56.7 40.9H87.5C88.3 40.9 89 40.2 89 39.4C89 38.6 88.3 37.9 87.5 37.9H56.7C51.3 37.9 46.9001 35.5 44.3001 31.2C41.0001 25.6 41 17.9 44.5 11.5C48 4.99998 55.8 2.49998 61.7 3.39998C67.3 4.29998 71.1 7.79999 72.1 13.1C73 17.9 71.1001 20.7 69.3001 22.2C66.6001 24.5 62.4 25.4 59.1 24.2C57.6 23.7 55.7 22.5 55.2 19.8C54.2 14.3 57.4 12.6 58.9 12.1C61 11.4 62.9 12 63.2 12.5C63.6 13.3 64.5 13.5 65.2 13.2C65.9 12.8 66.3 11.9 65.9 11.2C64.8 8.99998 61.3 8.19999 58 9.29999C54.5 10.5 51.1001 14 52.3001 20.4C52.9001 23.6 55 25.9 58.2 27C62.4 28.5 67.9 27.4 71.4 24.4C74.8 21.5 76.1 17.3 75.2 12.4C74 5.89998 69.1001 1.29999 62.3001 0.299987C54.0001 -1.00001 45.7 2.99998 42 9.89998C38.1 17.3 38 26.2 41.9 32.6C44.9 38 50.2 40.9 56.7 40.9Z"
    fill="currentColor" />
  <path
    d="M87.5 45.1H39.7C34.9 45.1 30.5 46.9 27.5 50.1C25.1 52.7 23.9 56 24.1 59.5C24.4 63.6 27 66.9 31 68.3C32.1 68.7 33.2001 68.8 34.3001 68.8C36.6001 68.8 38.7 67.9 40.1 66.4C42.3 63.8 43 60 41.7 57.1C40.7 54.8 38.6 53.5 36 53.5C32.2 53.5 30.6 56.1 30.4 58.3C30.1 60.8 31.4 63.1 33.5 63.5C34.3 63.7 35.1001 63.2 35.3001 62.3C35.5001 61.5 35 60.7 34.2 60.5C33.8 60.4 33.4 59.6 33.5 58.6C33.6 57.8 34 56.5 36.1 56.5C37.5 56.5 38.5 57.1 39 58.3C39.8 60.2 39.4 62.7 37.9 64.4C36.7 65.8 34.3 66.2 32 65.4C29.8 64.7 27.3 62.7 27.1 59.3C26.9 56.6 27.8 54.1 29.7 52.1C32.1 49.5 35.7 48.1 39.7 48.1H87.5C88.3 48.1 89 47.4 89 46.6C89.1 45.8 88.4 45.1 87.5 45.1Z"
    fill="currentColor" />
</svg>
  