<svg width="18" height="25" viewBox="0 0 18 25" fill="none" xmlns="http://www.w3.org/2000/svg">
<path d="M17.2969 4.59375C17.7188 5.01562 18 5.625 18 6.1875V21.75C18 23.0156 16.9688 24 15.75 24H2.25C0.984375 24 0 23.0156 0 21.75V2.25C0 1.03125 0.984375 0 2.25 0H11.8125C12.375 0 12.9844 0.234375 13.4062 0.65625L17.2969 4.59375ZM15.5625 6L12 2.4375V6H15.5625ZM2.25 21.75H15.75V8.25H10.875C10.2188 8.25 9.75 7.78125 9.75 7.125V2.25H2.25V21.75ZM12.1875 10.5C12.6094 10.5 12.8906 10.9688 12.6562 11.3438C11.9062 12.6562 10.5 14.9531 10.5 15L12.6562 18.6562C12.8906 19.0312 12.6094 19.5 12.1875 19.5H10.8281C10.5938 19.5 10.4062 19.4062 10.3125 19.2188C9.23438 17.25 9.65625 17.9531 9 16.5C8.71875 17.1094 8.67188 17.3438 7.64062 19.2188C7.54688 19.4062 7.35938 19.5 7.125 19.5H5.8125C5.34375 19.5 5.0625 19.0312 5.29688 18.6562L7.45312 15L5.29688 11.3438C5.10938 10.9688 5.34375 10.5 5.8125 10.5H7.125C7.35938 10.5 7.54688 10.6406 7.64062 10.8281C8.67188 12.7031 8.34375 12.1406 9 13.5C9.28125 12.7969 9.46875 12.375 10.3125 10.8281C10.4062 10.6406 10.5938 10.5 10.8281 10.5H12.1875Z" fill="currentColor"/>
</svg>
